<?xml version="1.0" encoding="UTF-8" standalone="no"?>
<!-- Created with Inkscape (http://www.inkscape.org/) -->

<svg
   version="1.1"
   id="svg2"
   width="1000"
   height="666.66669"
   viewBox="0 0 1000 666.66669"
   sodipodi:docname="20008383_6221764.ai"
   inkscape:export-filename="bushLeft.svg"
   inkscape:export-xdpi="96"
   inkscape:export-ydpi="96"
   xmlns:inkscape="http://www.inkscape.org/namespaces/inkscape"
   xmlns:sodipodi="http://sodipodi.sourceforge.net/DTD/sodipodi-0.dtd"
   xmlns="http://www.w3.org/2000/svg"
   xmlns:svg="http://www.w3.org/2000/svg">
  <defs
     id="defs6">
    <clipPath
       clipPathUnits="userSpaceOnUse"
       id="clipPath3112">
      <path
         d="M 0,0 H 749.999 V 500 H 0 Z"
         id="path3110" />
    </clipPath>
  </defs>
  <sodipodi:namedview
     id="namedview4"
     pagecolor="#ffffff"
     bordercolor="#000000"
     borderopacity="0.25"
     inkscape:showpageshadow="2"
     inkscape:pageopacity="0.0"
     inkscape:pagecheckerboard="0"
     inkscape:deskcolor="#d1d1d1"
     showgrid="false" />
  <g
     id="g10"
     inkscape:groupmode="layer"
     inkscape:label="Page 1"
     transform="matrix(1.3333333,0,0,-1.3333333,0,666.66667)">
    <g
       id="g3106"
       style="display:inline">
      <g
         id="g3108"
         clip-path="url(#clipPath3112)"
         style="display:inline">
        <g
           id="g3194"
           transform="translate(829.6006,81.4336)"
           style="display:inline">
          <path
             d="m 0,0 c 5.333,2.611 0.9,10.445 -4.751,7.571 -0.239,2.483 -3.339,2.568 -5.825,2.083 2.197,1.045 3.184,3.22 3.538,4.864 l 0.005,0.276 c -2.761,0.426 -5.049,-0.289 -6.844,-1.642 -1.121,1.736 -2.874,2.735 -5.502,2.552 2.212,2.694 0.162,6.854 -3.876,6.142 3.52,4.035 -3.831,6.99 -4.903,1.785 0.702,3.011 -2.363,4.196 -4.589,2.054 1.601,1.883 2.898,4.052 2.04,6.554 -3.118,-0.742 -7.185,-2.282 -7.273,-5.588 -1.188,1.962 -3.971,2.036 -5.868,0.71 1.593,1.611 2.892,3.778 2.023,6.007 -2.794,-0.198 -5.01,-2.069 -5.383,-4.261 -1.559,0.984 -3.151,0.751 -4.384,-0.344 1.909,2.081 3.239,4.785 3.037,7.541 -3.424,-0.456 -6.917,-3.669 -6.991,-6.419 -0.497,4.421 -6.424,2.928 -4.984,-1.245 -2.442,1.442 -6.477,1.002 -6.869,-2.016 0.058,2.203 -1.456,3.344 -3.94,3.137 1.88,0.774 3.76,1.55 5.032,2.891 -2.143,0.887 -4.926,0.962 -6.815,-0.088 1.889,1.05 3.162,2.394 3.524,4.31 -3.08,0.634 -7.743,-0.064 -8.751,-3.066 0.684,2.46 -1.437,4.174 -4.256,2.869 1.317,2.995 -2.661,4.758 -5.188,2.896 0.648,3.443 -3.291,3.24 -6.13,2.817 1.855,0.389 3.591,1.382 4.431,3.014 -3.694,0.927 -6.816,-0.09 -10.249,-1.099 2.506,1.034 5.342,2.886 6.021,5.07 -4.014,0.385 -9.006,-0.855 -9.732,-4.971 -0.41,2.318 -3.019,2.617 -5.082,1.928 1.412,1.578 2.545,3.472 3.212,5.38 -4.115,0.478 -7.088,-2.749 -8.819,-5.641 0.47,2.196 0.533,4.394 -1.494,5.92 -2.531,-2.135 -3.437,-5.052 -3.921,-7.607 -4.035,3.415 -8.214,1.691 -7.512,-3.103 -3.686,1.205 -4.607,-2.448 -4.678,-5.016 -1.614,1.513 -3.625,3.405 -6.091,3.839 -0.893,-2.547 -0.982,-5.853 1.442,-7.753 -3.26,1.559 -5.382,-0.587 -4.646,-3.914 -3.324,-0.644 -2.978,-3.224 -0.974,-5.482 -2.436,1.533 -5.294,2.713 -8.191,2.424 -0.082,-2.937 2.325,-5.568 5.604,-6.396 -2.467,0.435 -4.546,-0.242 -6.244,-2.034 -1.503,5.551 -6.523,3.113 -7.057,-1.276 -2.82,2.645 -5.746,1.259 -6.659,-2.024 -0.342,2.58 -1.502,5.552 -3.935,7.084 -2.561,-2.87 -3.541,-8.718 -1.569,-12.078 -1.972,3.36 -5.658,4.561 -9.369,4.662 -0.078,-2.936 2.759,-4.848 5.185,-6.751 -3.283,0.824 -5.794,-0.578 -4.64,-3.546 -4.547,-0.247 -4.676,-5.019 -3.102,-7.998 -2.428,1.901 -6.128,2.369 -9.059,0.982 1.18,-2.24 4.439,-3.793 6.896,-4.598 -4.571,-0.979 -10.807,-2.644 -9.709,-7.818 2.466,-0.434 5.385,0.587 7.079,2.38 -2.974,-3.225 -5.215,-9.777 1.372,-10.322 -5.369,-0.221 -2.994,-3.958 -0.157,-5.873 0.228,-0.179 0.479,-0.327 0.729,-0.471 -1.614,-0.865 -2.883,-2.24 -3.328,-3.865 l -0.201,0.006 c -0.133,2.759 -1.68,6.476 -4.442,3.608 -2.125,-2.145 -2.225,-6.001 -1.265,-8.597 -2.435,1.536 -5.779,0.158 -5.853,-2.595 -2.432,1.534 -6.801,0.37 -6.269,-2.769 -1.192,1.686 -2.164,3.732 -4.62,4.533 -1.314,-2.718 -0.359,-5.501 1.02,-7.925 -2.43,1.721 -5.517,1.988 -8.635,1.338 0.349,-2.396 3.585,-4.873 5.619,-6.03 -2.263,0.245 -2.94,-1.755 -2.983,-3.41 -3.269,1.193 -6.577,0.914 -9.116,-1.221 1.613,-1.33 4.073,-2.127 6.141,-2.004 -2.911,-0.655 -6.074,-3.141 -1.784,-4.725 -4.569,-1.163 -3.042,-5.792 0.004,-7.529 -3.534,-0.822 -5.827,-1.678 -7.359,-4.942 2.219,-1.898 5.911,-2.733 8.621,-1.89 -5.605,-1.131 -8.185,-4.919 -8.732,-9.862 3.527,0.639 7.474,1.632 10.412,3.391 -3.148,-1.932 -3.07,-6.529 -1.486,-9.146 1.681,1.059 2.579,3.79 3.243,5.426 -0.483,-2.559 2.787,-3.752 5.044,-4.365 -1.589,-5.279 4.998,-6.008 7.974,-2.785 0.107,0.118 0.183,0.252 0.252,0.384 0.79,-3.008 4.616,-5.59 6.914,-2.414 -0.492,-2.924 1.048,-7.191 5.163,-7.485 0.251,1.461 0.086,2.936 -0.5,4.235 2.439,-1.534 5.146,-0.505 6.036,1.857 1.182,-2.238 4.508,-1.224 6.393,-0.173 -1.264,-1.067 -2.341,-2.693 -2.174,-4.163 3.297,-0.092 6.648,1.655 8.366,4.177 -0.649,-1.266 -1.1,-2.54 -1.138,-4.008 2.48,0.117 4.622,3 5.704,4.801 1.799,-2.251 4.739,-0.308 6.227,1.303 -1.554,-4.001 4.642,-3.983 5.76,-0.707 2.646,-1.356 4.354,0.8 4.007,3.014 2.047,-0.609 3.713,0.083 5.582,0.398 -2.965,-2.856 -0.562,-5.492 3.203,-3.575 -0.655,-1.451 -1.111,-2.906 -0.943,-4.566 3.081,-0.449 5.213,2.064 6.298,4.052 0.169,-1.473 3.863,-2.308 5.52,-1.984 0.453,0.097 0.882,0.301 1.287,0.549 0.121,-0.6 0.348,-1.182 0.746,-1.711 2.789,-3.745 7.373,-2.032 5.428,2.244 0.996,-1.312 5.092,-2.526 6.382,-0.54 0.115,-3.493 4.846,-3.989 7.726,-4.435 0.253,1.645 -0.116,3.311 -1.744,4.274 3.04,-2.104 6.784,-1.107 6.469,2.58 2.654,-1.177 5.146,-0.509 7.261,1.269 -1.295,-2.167 -1.758,-3.992 -2.03,-6.373 4.094,-1.211 7.943,3.644 7.62,6.955 3.049,-1.733 5.799,0.764 5.461,3.528 2.818,-2.65 8.771,3.62 5.933,5.531 3.351,0.692 5.265,2.361 6.22,4.536 0.866,-0.134 1.727,-0.26 2.559,-0.368 9.88,-1.093 17.764,4.202 25.929,8.39 10.678,5.496 20.75,11.558 28.732,20.433 7.659,8.332 9.835,20.117 15.047,29.616 2.609,4.888 5.649,14.172 1.745,18.69 C 2.332,-5.297 3.99,-1.208 0,0"
             style="fill:#005d1a;fill-opacity:1;fill-rule:nonzero;stroke:none"
             id="path3196" />
        </g>
        <g
           id="g3198"
           transform="translate(814.8087,23.4287)"
           style="display:inline">
          <path
             d="m 0,0 c -0.37,1.661 -4.479,2.324 -5.923,2.363 6.498,3.68 -0.778,9.387 -3.781,5.247 2.77,3.229 -1.518,4.814 -4.648,3.797 1.285,1.436 4.281,5.396 0.577,5.863 3.748,1.182 5.154,7.386 0.979,5.664 3.564,1.927 1.172,5.112 -2.129,5.201 1.856,-0.05 5.146,-0.505 7.043,0.909 -1.617,1.86 -5.248,2.574 -7.789,1.959 1.68,0.559 3.519,1.495 4.609,2.72 -3.056,1.368 -8.23,0.959 -10.557,-1.183 1.903,1.6 -0.902,4.805 -3.228,2.845 0.927,3.645 -4.234,3.601 -6.706,3.853 1.871,0.499 3.724,0.263 5.606,1.135 -2.855,1.358 -6.963,2.024 -9.894,0.452 3.81,3.57 -0.117,3.493 -3.663,2.119 1.898,1.415 2.981,3.408 3.458,5.6 -2.54,-0.827 -7.137,-2.205 -8.604,-4.767 -2.047,0.522 -4.223,-0.023 -6.408,-0.703 1.273,1.248 2.565,3.236 2.201,4.9 -2.529,-1.586 -5.825,-1.497 -7.559,-4.571 1.51,2.348 2.258,7.103 -1.512,5.182 -3.135,-1.385 -4.467,-4.838 -4.333,-7.596 -1.831,0.967 -4.127,0.108 -4.588,-1.714 0.903,2.913 -0.488,4.791 -1.866,7.396 -2.109,-1.777 -3.879,-6.134 -1.883,-8.576 -1.659,-0.323 -3.125,-1.017 -2.96,-2.674 -0.761,2.406 -3.216,3.207 -5.668,4.194 -1.922,-2.337 -0.987,-5.852 1.239,-7.567 -2.233,1.348 -4.719,0.866 -7.203,0.746 0.356,-2.025 3.028,-2.465 5.09,-2.523 -2.095,-1.231 -3.211,-4.138 -1.394,-5.843 -2.487,-0.296 -4.388,-1.898 -4.04,-4.298 -1.621,1.148 -3.457,1.935 -5.537,1.439 0.351,-2.399 2.383,-3.556 3.995,-5.066 -4.545,-0.063 -7.313,-3.289 -8.854,-6.739 2.254,-0.615 4.542,0.061 6.62,0.556 -1.904,-1.789 -3.229,-4.872 0.248,-6.254 -1.006,-0.303 -2.239,-0.94 -2.937,-1.803 -1.535,0.636 -3.541,0.231 -4.585,-1.297 0.395,3.02 -3.629,3.128 -5.539,1.253 3.261,5.971 -5.682,7.313 -4.949,0.132 -1.494,1.969 -3.971,2.037 -5.866,0.712 1.577,1.057 1.285,1.618 1.938,2.975 -2.479,-0.205 -5.587,-0.671 -6.583,-3.126 0.368,2.192 2.009,5.456 0.193,7.159 -2.534,-2.134 -3.538,-4.863 -3.923,-7.607 -2.458,0.617 -4.655,-0.425 -5.033,-2.897 0.378,2.472 -1.11,4.714 -3.554,5.884 -1.922,-2.43 -2.316,-5.448 -1.772,-8.218 -1.191,1.688 -3.016,2.838 -5.184,2.898 -0.364,-1.92 0.512,-3.87 1.712,-5.282 -2.134,1.16 -4.555,3.157 -7.342,3.231 -0.368,-2.195 1.437,-4.173 3.572,-5.333 -2.44,1.445 -5.223,1.52 -8.023,1.043 1.183,-1.961 3.625,-3.398 6.398,-3.753 -2.486,-0.483 -4.079,-2.092 -2.584,-4.061 -3.082,0.634 -5.322,-2.061 -3.214,-4.321 -4.812,5.366 -11.241,-3.553 -3.531,-4.591 -3.085,0.364 -5.969,-3.139 -3.854,-5.126 -2.506,-1.033 -5.034,-2.895 -5.102,-5.37 2.177,0.217 4.372,1.259 5.965,2.87 -1.314,-2.722 -1.406,-6.027 2.603,-6.684 -2.233,-2.422 0.174,-4.964 3.256,-5.601 -2.786,0.079 -4.105,-2.919 -4.166,-5.12 1.244,0.245 3.102,0.194 4.353,0.71 -2.233,-2.42 0.787,-5.256 3.884,-5.339 -3.445,-1.285 -5.711,-5.08 -5.493,-8.39 2.477,-0.069 5.001,1.791 6.299,3.96 1.509,-1.421 4.294,-1.493 6.77,-1.562 -2.513,-1.31 -2.603,-4.613 -2.052,-7.106 1.886,1.05 3.786,2.652 5.382,4.262 -0.093,-3.303 5.137,-4.549 7.361,-2.404 1.813,-1.701 4.882,-2.888 7.404,-1.028 -2.2,-1.318 -3.49,-3.21 -3.558,-5.691 3.109,0.469 6.545,1.479 8.158,3.913 -0.007,-0.273 -0.018,-0.548 -0.03,-1.101 1.84,-0.599 4.01,-0.657 5.581,0.4 -2.98,-6.646 6.396,-5.966 10.581,-2.986 1.505,-2.238 3.922,-4.237 6.759,-4.739 0.563,1.81 0.83,3.996 0.012,5.764 1.697,-2.212 4.412,-2.355 5.938,0.501 0.337,-2.76 4.408,-4.893 7.512,-4.61 0.463,1.824 -0.732,3.509 -2.354,4.474 2.464,-0.437 5.563,-0.338 5.023,2.619 2.831,-2.101 5.806,0.941 5.45,3.159 0.58,-1.492 2.851,-1.55 3.914,-0.478 -1.708,-1.972 -2.796,-4.146 -2.04,-6.74 2.879,-0.261 4.821,2.81 5.496,4.814 -0.49,-2.745 2.135,-5.02 4.152,-6.728 2.321,1.959 1.8,5.462 0.416,7.701 1.187,-1.867 3.214,-3.208 5.041,-4.359 0.503,-4.237 5.746,-1.256 7.274,1.823 1.382,-2.427 8.275,-6.838 7.813,-1.131 2.826,-2.463 7.451,0.719 5.879,3.698 3.632,-3.218 7.699,2.177 4.266,5.026 2.092,0.862 6.445,1.664 3.826,4.12 1.411,-1.322 4.068,-2.314 6.135,-2.186 0.684,2.37 -1.554,3.534 -3.592,4.504 2.043,-0.79 5.168,0.23 5.229,2.429 0.078,2.937 -3.251,2.108 -5.517,2.169 2.698,0.48 5.212,1.881 5.286,4.634 1.84,-0.6 4.314,-0.853 5.189,0.96 3.713,-0.098 4.646,4.1 1.169,5.293 1.251,0.334 2.498,0.67 3.543,1.189 -0.346,2.398 -3.668,1.756 -4.224,3.974 1.618,-1.148 4.72,-1.043 6.393,-0.173 -1.403,1.508 -4.098,1.213 -5.916,2.549 1.422,-0.776 6.182,-0.356 5.613,1.499 -0.574,1.67 -5.113,1.791 -6.546,2.199 7.849,0.152 4.264,5.026 -2.158,4.099 2.936,1.753 0.105,3.853 -1.514,5.181 1.657,0.139 7.86,0.519 7.293,2.374 -0.565,2.037 -6.569,1.463 -8.031,0.769 1.687,1.239 3.883,6.138 -0.265,5.517 1.866,0.316 5.611,1.314 4.022,3.748 2.941,-0.079 4.873,1.21 4.292,3.059 0.176,-0.024 0.351,-0.044 0.54,-0.066 C -3.563,-1.924 0.348,-2.214 0,0"
             style="fill:#007923;fill-opacity:1;fill-rule:nonzero;stroke:none"
             id="path3200" />
        </g>
      </g>
    </g>
  </g>
</svg>
