<?xml version="1.0" encoding="UTF-8" standalone="no"?>
<!-- Created with Inkscape (http://www.inkscape.org/) -->

<svg
   version="1.1"
   id="svg2"
   width="1000"
   height="666.66669"
   viewBox="0 0 1000 666.66669"
   sodipodi:docname="20008383_6221764.ai"
   xmlns:inkscape="http://www.inkscape.org/namespaces/inkscape"
   xmlns:sodipodi="http://sodipodi.sourceforge.net/DTD/sodipodi-0.dtd"
   xmlns="http://www.w3.org/2000/svg"
   xmlns:svg="http://www.w3.org/2000/svg">
  <defs
     id="defs6">
    <clipPath
       clipPathUnits="userSpaceOnUse"
       id="clipPath3112">
      <path
         d="M 0,0 H 749.999 V 500 H 0 Z"
         id="path3110" />
    </clipPath>
  </defs>
  <sodipodi:namedview
     id="namedview4"
     pagecolor="#ffffff"
     bordercolor="#000000"
     borderopacity="0.25"
     inkscape:showpageshadow="2"
     inkscape:pageopacity="0.0"
     inkscape:pagecheckerboard="0"
     inkscape:deskcolor="#d1d1d1"
     showgrid="false" />
  <g
     id="g10"
     inkscape:groupmode="layer"
     inkscape:label="Page 1"
     transform="matrix(1.3333333,0,0,-1.3333333,0,666.66667)">
    <g
       id="g3106"
       style="display:inline">
      <g
         id="g3108"
         clip-path="url(#clipPath3112)">
        <g
           id="g3824"
           inkscape:label="bushLeftBottom"
           style="display:inline">
          <g
             id="g3202"
             transform="translate(-70.2924,67.3066)"
             style="display:inline">
            <path
               d="m 0,0 c -5.35,2.643 -0.97,10.451 4.701,7.543 0.222,2.481 3.321,2.547 5.811,2.048 -2.204,1.058 -3.206,3.239 -3.571,4.885 l -0.007,0.277 c 2.758,0.408 5.051,-0.319 6.856,-1.683 1.108,1.729 2.856,2.717 5.484,2.519 -2.23,2.707 -0.208,6.854 3.834,6.118 -3.546,4.056 3.786,6.968 4.892,1.756 -0.721,3.015 2.335,4.182 4.575,2.026 -1.612,1.894 -2.924,4.071 -2.083,6.567 3.122,-0.76 7.2,-2.326 7.311,-5.631 1.174,1.955 3.957,2.012 5.863,0.675 -1.603,1.62 -2.918,3.794 -2.063,6.018 2.795,-0.214 5.024,-2.098 5.411,-4.293 1.552,0.975 3.147,0.734 4.386,-0.371 -1.923,2.093 -3.272,4.806 -3.087,7.561 3.426,-0.478 6.941,-3.71 7.034,-6.462 0.468,4.418 6.403,2.89 4.992,-1.275 2.432,1.428 6.471,0.963 6.884,-2.056 -0.075,2.203 1.434,3.335 3.92,3.113 -1.886,0.786 -3.771,1.572 -5.052,2.921 2.136,0.875 4.918,0.932 6.814,-0.128 -1.896,1.06 -3.178,2.412 -3.553,4.331 3.076,0.615 7.743,-0.111 8.772,-3.119 -0.701,2.464 1.41,4.166 4.238,2.844 -1.339,3.003 2.627,4.742 5.167,2.866 -0.672,3.446 3.27,3.219 6.113,2.779 -1.858,0.4 -3.601,1.403 -4.453,3.041 3.687,0.904 6.816,-0.131 10.256,-1.16 -2.511,1.048 -5.361,2.918 -6.054,5.106 4.012,0.361 9.012,-0.91 9.765,-5.03 0.394,2.316 3.001,2.6 5.07,1.899 -1.423,1.586 -2.569,3.486 -3.248,5.398 4.11,0.454 7.105,-2.791 8.855,-5.693 -0.484,2.198 -0.561,4.397 1.455,5.911 2.547,-2.15 3.473,-5.072 3.973,-7.632 4.012,3.392 8.203,1.644 7.532,-3.147 3.68,1.183 4.624,-2.475 4.713,-5.044 1.605,1.503 3.602,3.383 6.065,3.803 0.911,-2.553 1.022,-5.859 -1.391,-7.745 3.252,1.54 5.388,-0.619 4.674,-3.94 3.328,-0.666 2.999,-3.243 1.011,-5.491 2.426,1.52 5.275,2.683 8.174,2.376 0.102,-2.937 -2.288,-5.554 -5.561,-6.362 2.465,0.42 4.549,-0.269 6.258,-2.071 1.465,5.541 6.503,3.074 7.066,-1.319 2.801,2.628 5.737,1.224 6.672,-2.064 0.326,2.577 1.465,5.543 3.889,7.062 2.578,-2.886 3.599,-8.741 1.65,-12.088 1.949,3.347 5.625,4.526 9.336,4.606 0.098,-2.937 -2.726,-4.833 -5.139,-6.721 3.278,0.804 5.799,-0.612 4.664,-3.575 4.549,-0.273 4.709,-5.046 3.155,-8.015 2.415,1.886 6.114,2.332 9.053,0.927 -1.165,-2.233 -4.413,-3.766 -6.864,-4.556 4.577,-1.007 10.824,-2.709 9.761,-7.876 -2.463,-0.419 -5.39,0.619 -7.096,2.422 2.995,-3.243 5.281,-9.808 -1.303,-10.315 5.372,-0.253 3.022,-3.976 0.198,-5.873 -0.228,-0.179 -0.477,-0.324 -0.727,-0.468 1.622,-0.874 2.899,-2.257 3.354,-3.884 l 0.202,0.005 c 0.114,2.758 1.637,6.465 4.418,3.581 2.139,-2.158 2.266,-6.014 1.323,-8.604 2.425,1.521 5.778,0.123 5.87,-2.631 2.423,1.52 6.798,0.329 6.287,-2.806 1.18,1.679 2.14,3.72 4.591,4.505 1.331,-2.725 0.396,-5.503 -0.967,-7.918 2.418,1.706 5.503,1.954 8.625,1.286 -0.332,-2.394 -3.551,-4.852 -5.577,-5.997 2.26,0.232 2.95,-1.773 3.006,-3.428 3.261,1.174 6.57,0.876 9.124,-1.275 -1.605,-1.32 -4.058,-2.103 -6.127,-1.967 2.913,-0.672 6.093,-3.177 1.814,-4.736 4.578,-1.19 3.082,-5.81 0.046,-7.529 3.541,-0.843 5.839,-1.713 7.394,-4.986 -2.207,-1.884 -5.892,-2.698 -8.608,-1.838 5.613,-1.165 8.217,-4.969 8.798,-9.915 -3.531,0.66 -7.485,1.676 -10.435,3.453 3.16,-1.951 3.113,-6.548 1.546,-9.155 -1.686,1.069 -2.604,3.806 -3.279,5.445 0.502,-2.562 -2.761,-3.736 -5.014,-4.335 1.624,-5.287 -4.957,-5.978 -7.955,-2.737 -0.108,0.118 -0.185,0.253 -0.255,0.386 -0.77,-3.004 -4.58,-5.562 -6.899,-2.373 0.512,-2.928 -0.998,-7.185 -5.113,-7.455 -0.261,1.463 -0.105,2.938 0.472,4.233 -2.427,-1.52 -5.142,-0.474 -6.047,1.892 -1.168,-2.229 -4.5,-1.196 -6.392,-0.135 1.271,-1.073 2.357,-2.706 2.201,-4.175 -3.297,-0.073 -6.66,1.695 -8.394,4.227 0.658,-1.27 1.117,-2.546 1.165,-4.016 -2.48,0.132 -4.642,3.028 -5.737,4.837 -1.782,-2.24 -4.737,-0.281 -6.236,1.34 1.581,-4.011 -4.614,-3.956 -5.754,-0.673 -2.639,-1.34 -4.361,0.826 -4.028,3.038 -2.043,-0.596 -3.714,0.105 -5.586,0.432 2.985,-2.875 0.6,-5.496 -3.178,-3.557 0.665,-1.455 1.13,-2.913 0.975,-4.571 -3.08,-0.43 -5.229,2.095 -6.327,4.09 -0.158,-1.473 -3.847,-2.285 -5.507,-1.951 -0.452,0.099 -0.884,0.306 -1.291,0.556 -0.117,-0.599 -0.339,-1.179 -0.733,-1.707 -2.764,-3.728 -7.359,-1.987 -5.444,2.278 -0.987,-1.307 -5.074,-2.495 -6.379,-0.502 -0.09,-3.493 -4.819,-3.961 -7.696,-4.389 -0.263,1.646 0.094,3.31 1.715,4.263 -3.026,-2.085 -6.777,-1.066 -6.487,2.619 -2.645,-1.161 -5.141,-0.479 -7.268,1.313 1.311,-2.175 1.785,-4.003 2.073,-6.385 -4.087,-1.188 -7.969,3.691 -7.666,7.001 -3.039,-1.716 -5.806,0.798 -5.487,3.559 -2.8,-2.632 -8.795,3.672 -5.969,5.567 -3.355,0.713 -5.282,2.393 -6.252,4.574 -0.864,-0.129 -1.725,-0.25 -2.556,-0.354 -9.872,-1.033 -17.792,4.309 -25.986,8.545 -10.715,5.561 -20.828,11.684 -28.87,20.606 -7.714,8.379 -9.97,20.177 -15.245,29.707 -2.643,4.903 -5.746,14.206 -1.873,18.7 C -2.295,-5.283 -3.982,-1.185 0,0"
               style="fill:#005d1a;fill-opacity:1;fill-rule:nonzero;stroke:none"
               id="path3204" />
          </g>
          <g
             id="g3206"
             transform="translate(-71.1879,34.123)"
             style="display:inline">
            <path
               d="m 0,0 c 0.36,1.66 4.464,2.298 5.908,2.328 -6.525,3.719 0.714,9.383 3.745,5.225 -2.792,3.245 1.486,4.804 4.621,3.769 -1.293,1.444 -4.316,5.421 -0.615,5.866 -3.755,1.205 -5.204,7.417 -1.016,5.67 -3.577,1.949 -1.206,5.12 2.093,5.188 -1.856,-0.038 -5.142,-0.474 -7.05,0.952 1.606,1.851 5.231,2.542 7.776,1.912 -1.682,0.569 -3.528,1.516 -4.628,2.747 3.048,1.35 8.225,0.91 10.566,-1.245 -1.912,1.611 0.871,4.799 3.209,2.825 -0.952,3.651 4.21,3.576 6.681,3.814 -1.874,0.511 -3.726,0.285 -5.613,1.168 2.844,1.342 6.949,1.983 9.889,0.392 -3.834,3.593 0.095,3.493 3.649,2.098 -1.906,1.427 -3.003,3.426 -3.494,5.621 2.545,-0.843 7.151,-2.249 8.637,-4.818 2.043,0.509 4.222,-0.049 6.412,-0.742 -1.283,1.255 -2.588,3.251 -2.233,4.913 2.537,-1.601 5.834,-1.533 7.589,-4.616 -1.525,2.357 -2.305,7.116 1.477,5.173 3.145,-1.404 4.501,-4.865 4.385,-7.622 1.824,0.955 4.126,0.083 4.597,-1.741 -0.92,2.918 0.457,4.788 1.817,7.385 2.121,-1.79 3.922,-6.158 1.942,-8.588 1.661,-0.332 3.132,-1.036 2.977,-2.692 0.746,2.403 3.195,3.188 5.639,4.161 1.939,-2.349 1.027,-5.86 -1.187,-7.56 2.225,1.335 4.714,0.837 7.198,0.703 -0.343,-2.023 -3.011,-2.447 -5.074,-2.493 2.104,-1.244 3.239,-4.157 1.435,-5.852 2.488,-0.31 4.401,-1.923 4.068,-4.322 1.613,1.139 3.445,1.915 5.528,1.406 -0.336,-2.397 -2.358,-3.543 -3.961,-5.043 4.546,-0.089 7.336,-3.332 8.899,-6.792 -2.249,-0.6 -4.542,0.089 -6.624,0.597 1.916,-1.801 3.262,-4.891 -0.205,-6.253 1.007,-0.31 2.244,-0.954 2.949,-1.821 1.53,0.628 3.539,0.211 4.594,-1.324 -0.415,3.023 3.608,3.106 5.53,1.219 -3.301,5.992 5.634,7.281 4.949,0.103 1.482,1.961 3.957,2.013 5.859,0.678 -1.583,1.066 -1.294,1.625 -1.957,2.986 2.481,-0.22 5.592,-0.704 6.605,-3.166 -0.383,2.194 -2.045,5.469 -0.241,7.161 2.548,-2.15 3.572,-4.885 3.974,-7.632 2.453,0.603 4.657,-0.452 5.052,-2.926 -0.395,2.474 1.078,4.708 3.515,5.863 1.939,-2.442 2.353,-5.462 1.827,-8.229 1.182,1.681 2.998,2.82 5.165,2.867 0.376,-1.922 -0.487,-3.868 -1.677,-5.273 2.128,1.148 4.535,3.131 7.322,3.189 0.383,-2.199 -1.41,-4.165 -3.538,-5.312 2.431,1.431 5.213,1.488 8.016,0.994 -1.17,-1.953 -3.601,-3.376 -6.372,-3.715 2.489,-0.497 4.092,-2.116 2.612,-4.077 3.076,0.617 5.337,-2.092 3.242,-4.339 4.777,5.337 11.266,-3.621 3.562,-4.612 3.083,0.345 5.99,-3.176 3.889,-5.149 2.512,-1.048 5.054,-2.926 5.137,-5.401 -2.177,0.23 -4.38,1.285 -5.983,2.904 1.332,-2.728 1.447,-6.034 -2.559,-6.667 2.25,-2.435 -0.139,-4.963 -3.217,-5.582 2.785,0.064 4.125,-2.943 4.201,-5.145 -1.247,0.254 -3.104,0.212 -4.358,0.736 2.248,-2.432 -0.753,-5.251 -3.849,-5.315 3.452,-1.306 5.745,-5.114 5.548,-8.424 -2.475,-0.053 -5.013,1.821 -6.325,3.998 -1.498,-1.412 -4.283,-1.467 -6.759,-1.521 2.522,-1.326 2.633,-4.629 2.099,-7.12 -1.893,1.063 -3.803,2.676 -5.411,4.296 0.115,-3.304 -5.107,-4.519 -7.344,-2.36 -1.803,-1.691 -4.863,-2.858 -7.399,-0.984 2.209,-1.331 3.513,-3.231 3.598,-5.712 -3.112,0.487 -6.555,1.517 -8.184,3.963 0.009,-0.275 0.02,-0.55 0.036,-1.103 -1.834,-0.588 -4.005,-0.634 -5.583,0.434 3.024,-6.664 -6.356,-5.928 -10.562,-2.923 -1.489,-2.23 -3.894,-4.214 -6.728,-4.699 -0.573,1.814 -0.856,4.001 -0.049,5.764 -1.683,-2.201 -4.396,-2.329 -5.941,0.537 -0.319,-2.758 -4.377,-4.867 -7.482,-4.566 -0.475,1.827 0.708,3.505 2.325,4.46 -2.461,-0.422 -5.562,-0.305 -5.042,2.649 -2.818,-2.083 -5.812,0.977 -5.472,3.192 -0.569,-1.489 -2.84,-1.533 -3.909,-0.453 1.721,-1.984 2.824,-4.165 2.084,-6.753 -2.877,-0.244 -4.84,2.838 -5.527,4.845 0.507,-2.747 -2.102,-5.006 -4.109,-6.702 -2.333,1.973 -1.837,5.473 -0.467,7.704 -1.174,-1.86 -3.192,-3.188 -5.012,-4.33 -0.473,-4.233 -5.738,-1.221 -7.286,1.867 -1.366,-2.419 -8.229,-6.789 -7.804,-1.084 -2.811,-2.446 -7.458,0.764 -5.906,3.734 -3.609,-3.197 -7.714,2.222 -4.3,5.051 -2.097,0.875 -6.455,1.703 -3.853,4.142 -1.401,-1.313 -4.053,-2.288 -6.122,-2.148 -0.698,2.373 1.532,3.524 3.564,4.482 -2.038,-0.777 -5.17,0.261 -5.246,2.46 -0.096,2.938 3.236,2.089 5.501,2.137 -2.699,0.496 -5.223,1.911 -5.316,4.665 -1.836,-0.589 -4.308,-0.827 -5.195,0.991 -3.712,-0.076 -4.674,4.128 -1.206,5.3 -1.253,0.342 -2.502,0.684 -3.551,1.211 0.33,2.395 3.656,1.733 4.198,3.948 -1.608,-1.138 -4.712,-1.015 -6.391,-0.135 1.394,1.5 4.089,1.189 5.899,2.513 -1.417,-0.766 -6.181,-0.317 -5.624,1.533 0.564,1.667 5.101,1.761 6.532,2.161 -7.85,0.2 -4.299,5.052 2.13,4.085 -2.947,1.772 -0.131,3.855 1.478,5.173 -1.657,0.149 -7.861,0.566 -7.307,2.418 0.551,2.033 6.558,1.424 8.025,0.721 -1.695,1.249 -3.924,6.16 0.228,5.516 -1.868,0.327 -5.619,1.347 -4.048,3.771 -2.94,-0.061 -4.88,1.239 -4.313,3.085 C 5.583,-1.686 5.409,-1.704 5.219,-1.726 3.576,-1.944 -0.333,-2.212 0,0"
               style="fill:#007923;fill-opacity:1;fill-rule:nonzero;stroke:none"
               id="path3208" />
          </g>
        </g>
      </g>
    </g>
  </g>
</svg>
