<?xml version="1.0" encoding="UTF-8" standalone="no"?>
<!-- Created with Inkscape (http://www.inkscape.org/) -->

<svg
   version="1.1"
   id="svg2"
   width="1000"
   height="666.66669"
   viewBox="0 0 1000 666.66669"
   sodipodi:docname="20008383_6221764.ai"
   inkscape:export-filename="treeRight.svg"
   inkscape:export-xdpi="96"
   inkscape:export-ydpi="96"
   xmlns:inkscape="http://www.inkscape.org/namespaces/inkscape"
   xmlns:sodipodi="http://sodipodi.sourceforge.net/DTD/sodipodi-0.dtd"
   xmlns="http://www.w3.org/2000/svg"
   xmlns:svg="http://www.w3.org/2000/svg">
  <defs
     id="defs6">
    <clipPath
       clipPathUnits="userSpaceOnUse"
       id="clipPath2566">
      <path
         d="M 0,0 H 749.999 V 500 H 0 Z"
         id="path2564" />
    </clipPath>
  </defs>
  <sodipodi:namedview
     id="namedview4"
     pagecolor="#ffffff"
     bordercolor="#000000"
     borderopacity="0.25"
     inkscape:showpageshadow="2"
     inkscape:pageopacity="0.0"
     inkscape:pagecheckerboard="0"
     inkscape:deskcolor="#d1d1d1"
     showgrid="false" />
  <g
     id="g10"
     inkscape:groupmode="layer"
     inkscape:label="Page 1"
     transform="matrix(1.3333333,0,0,-1.3333333,0,666.66667)">
    <g
       id="g2560"
       style="display:inline">
      <g
         id="g2562"
         clip-path="url(#clipPath2566)">
        <g
           id="g2568"
           transform="translate(289.1251,180.1855)"
           style="display:inline">
          <path
             d="M 0,0 C 0.01,0.366 -0.027,0.759 -0.097,1.163 0.362,1.66 0.831,2.126 1.27,2.539 0.849,1.7 0.44,0.855 0,0 m -325.641,44.342 c 1.526,-2.752 3.948,-5.137 4.066,-7.959 0.029,-0.855 -8.459,-70.066 -11.102,-102.527 110.079,2.545 651.91,-13.529 651.858,-13.529 -1.505,11.586 -3.01,62.923 -4.515,74.51 -0.957,2.101 1.646,5.408 3.298,7.326 -1.945,-0.932 -3.754,-2.299 -5.231,-3.497 -0.278,1.396 -0.132,2.854 -0.696,4.232 -0.292,-1.427 -1.024,-2.805 -1.684,-4.18 -0.326,1.728 -0.46,3.615 -2.804,4.934 0.091,-1.108 0.334,-2.285 -0.153,-3.388 -0.568,0.934 -1.555,1.81 -3.01,2.437 0.553,-1.346 1.026,-2.619 1.014,-4.032 -0.98,1.805 -3.84,3.732 -6.59,4.929 1.669,-1.66 2.668,-3.615 3.156,-5.521 -0.829,0.775 -2.064,1.379 -3.299,1.985 0.289,-1.209 0.668,-2.457 0.945,-3.687 -1.879,1.126 -2.203,3.241 -1.854,4.531 -0.767,-1.154 -1.019,-2.429 -1.862,-3.586 -0.43,1.019 -0.307,2.176 -0.523,3.206 -0.937,-0.976 -1.47,-2.302 -2.562,-3.211 -0.477,1.872 -0.327,3.884 -0.087,5.753 -1.109,-1.799 -1.921,-3.696 -2.235,-5.568 -1.235,1.648 -2.385,3.228 -3.899,4.865 0.594,-2.237 1.189,-4.474 1.497,-6.725 -0.503,1.052 -1.149,2.099 -1.865,3.143 -0.356,-1.056 -0.129,-2.197 -0.64,-3.186 -1.632,2.486 -1.668,5.419 -1.092,8.007 -0.942,-2.011 -1.877,-4.096 -2.519,-6.242 -0.165,1.217 -0.473,2.43 -0.988,3.595 -0.195,-0.677 -0.609,-1.327 -0.662,-1.997 -0.157,1.699 -2.784,3.144 -4.057,4.648 0.163,-2.293 2.376,-5.465 0.305,-7.671 -0.351,2.101 -3.467,5.085 -6.371,6.528 2.065,-1.587 3.396,-3.536 3.283,-5.397 -0.02,-0.304 -0.036,-0.651 -0.06,-1.021 -0.473,0.659 -0.847,1.342 -1.287,2.005 -0.446,-0.426 -0.811,-0.926 -1.109,-1.383 -0.654,1.162 -0.546,2.539 -0.273,3.738 -0.643,-1.102 -1.355,-2.245 -1.926,-3.345 -0.71,1.607 -1.078,3.335 -3.249,4.663 0.584,-1.76 1.006,-3.377 0.594,-5.175 -0.624,1.498 -1.539,3.057 -3.477,4.246 0.9,-1.45 1.274,-3.256 0.674,-4.727 -0.73,1.793 -2.412,3.771 -5.063,4.973 1.237,-1.328 1.927,-3.381 1.539,-4.844 -1.101,0.777 -1.382,1.88 -1.503,2.841 -0.837,-0.735 -1.276,-1.79 -1.029,-2.635 -1.968,1.452 -0.981,3.863 -0.763,5.541 -0.948,-1.556 -1.612,-3.101 -2.423,-4.65 -0.615,1.5 -0.569,2.876 -0.473,4.4 -1.1,-1.486 -1.503,-2.873 -2.027,-4.412 -1.193,2.151 -1.292,4.708 -1.139,6.94 C 250,2.982 249.478,2 249.182,0.914 c -0.248,-0.898 -0.349,-1.83 -0.383,-2.723 -1.475,1.55 -2.183,3.27 -3.72,4.782 0.725,-1.87 1.312,-3.782 1.972,-5.691 0.173,-0.525 0.366,-1.06 0.541,-1.6 -0.435,0.43 -0.865,0.88 -1.358,1.277 -0.072,-0.596 -0.21,-1.231 -0.205,-1.861 -1.115,0.928 -1.571,2.362 -1.846,3.466 -0.266,-1.343 -0.664,-2.802 -1.152,-4.117 -2.015,3.131 -1.076,6.649 -1.46,9.866 -0.183,-2.047 -1.269,-4.306 -2.25,-6.301 -0.587,1.356 -0.824,2.76 -1.623,4.111 0.095,-0.814 0.119,-1.632 0.073,-2.448 -0.914,1.719 -1.54,3.407 -3.495,4.913 0.672,-1.503 1.99,-3.016 0.298,-5.622 -1.18,1.564 -1.081,0.071 -2.543,1.628 -1.307,1.451 -2.886,2.819 -4.873,4.032 1.769,-2.442 3.972,-4.873 4.704,-7.524 -1.489,1.779 -4.458,3.447 -8.091,4.105 1.267,-1.158 2.121,-2.399 2.624,-3.686 -1.186,1.011 -3.258,1.703 -5.175,2.292 1.768,-1.385 3.398,-3.273 4.226,-5.178 -0.597,0.464 -1.154,0.956 -1.674,1.452 0.067,-0.593 0.127,-1.149 0.194,-1.741 -0.827,1.651 -3.07,3.231 -5.474,4.369 1.862,-1.407 1.917,-3.188 2.525,-4.807 -0.485,0.509 -1.175,0.94 -1.859,1.333 0.205,-1.22 0.187,-2.371 0.036,-3.598 -1.402,1.314 -1.755,3.077 -1.66,4.578 -0.152,-1.357 -0.972,-2.796 -1.535,-4.088 -0.43,1.328 -0.792,2.693 -0.726,4.067 -0.58,-1.235 -1.081,-2.544 -1.736,-3.744 -0.875,2.172 -0.539,4.368 -0.634,6.555 -0.142,-1.969 -1.241,-4.365 -2.18,-6.274 -1.033,1.652 -3.185,3.135 -4.207,4.75 0.766,-1.907 0.99,-3.823 1.072,-5.761 -0.987,1.278 -1.488,2.929 -1.621,4.194 -0.342,-0.821 -1.401,-1.617 -2.034,-2.37 -0.923,2.026 -0.129,4.006 -0.054,6.011 -1.433,-1.953 -2.588,-3.899 -2.727,-6.015 -0.619,1.179 -0.601,2.402 -0.794,3.588 -0.58,-0.604 -0.574,-1.345 -0.795,-1.979 -0.593,1.625 -1.62,3.317 -3.535,4.702 0.904,-2.623 1.118,-5.439 0.234,-8.009 -1.249,1.096 -1.739,2.425 -2.572,3.64 -0.926,1.436 -2.681,2.641 -4.021,4 1.406,-2.026 2.182,-4.095 2.393,-6.245 -1.327,1.173 -1.604,2.543 -1.874,3.839 -0.189,-0.967 -0.305,-1.969 -0.422,-2.935 -0.995,1.437 -2.382,3.241 -4.546,4.335 0.679,-1.182 1.48,-2.844 1.169,-4.035 -1.095,1.03 -2.545,2.056 -3.634,3.05 0.712,-1.257 1.302,-2.811 1.571,-4.323 -0.392,0.578 -0.865,1.152 -1.253,1.729 -0.026,-0.483 -0.045,-1.039 -0.425,-1.525 -0.231,1.668 -2.567,3.802 -5.214,4.789 1.69,-1.362 1.577,-3.181 1.722,-4.739 -0.73,0.961 -1.167,1.81 -1.26,2.812 -0.573,-0.708 -1.055,-1.637 -1.053,-2.417 -1.15,1.626 -0.952,3.37 -0.681,5.042 -0.907,-1.712 -2.317,-3.386 -2.724,-5.169 -0.555,1.407 -0.322,2.743 -0.233,4.116 -0.893,-1.116 -1.563,-2.342 -2.458,-3.458 -0.55,2.149 -0.465,4.376 -0.159,6.491 -1.391,-1.896 -2.325,-4.122 -3.145,-6.128 -0.593,1.89 -1.886,3.67 -2.901,5.524 0.311,-2.416 0.96,-4.815 1.125,-7.207 -1.042,1.043 -1.291,2.761 -1.317,3.756 -0.63,-0.928 -1.188,-1.855 -1.314,-2.856 -1.766,2.337 -1.563,5.751 -0.924,8.161 -1.366,-2.226 -2.167,-4.45 -3.176,-6.749 -0.048,1.372 -0.763,3.081 -1.513,4.417 -0.072,-0.816 -0.07,-1.67 -0.357,-2.486 -0.653,1.857 -1.997,3.492 -3.556,5.203 0.392,-2.489 0.889,-4.921 0.887,-7.395 -0.163,-0.108 -0.322,-0.216 -0.479,-0.324 -0.363,0.681 -0.71,1.421 -1.098,2.171 -0.045,0.478 -0.119,0.956 -0.278,1.429 -0.052,-0.196 -0.114,-0.39 -0.183,-0.584 -0.971,1.699 -2.281,3.359 -4.63,4.434 1.88,-2.113 2.844,-4.373 3.61,-6.616 -0.107,-0.196 -0.215,-0.391 -0.325,-0.585 -0.178,0.169 -0.361,0.336 -0.552,0.503 -0.193,1.371 -0.6,2.749 -2.325,3.871 0.011,-0.711 0.082,-1.453 -0.01,-2.175 -0.871,0.512 -1.852,0.961 -2.968,1.292 -0.074,0.04 -0.144,0.084 -0.222,0.124 0.007,-0.024 0.015,-0.047 0.023,-0.069 -0.139,0.038 -0.275,0.078 -0.418,0.113 0.194,-0.231 0.395,-0.455 0.602,-0.677 0.363,-1.147 0.526,-0.966 0.442,-2.156 -0.859,1.859 -3.477,2.657 -6.13,4.018 1.553,-1.758 2.42,-3.767 2.784,-5.701 -0.772,0.824 -1.962,1.5 -3.148,2.179 0.211,-1.224 0.509,-2.49 0.704,-3.735 -1.793,1.237 -1.98,3.366 -1.553,4.633 -0.837,-1.104 -1.165,-2.364 -2.074,-3.467 -0.364,1.043 -0.169,2.191 -0.318,3.231 -0.995,-0.919 -1.606,-2.21 -2.748,-3.051 -0.354,1.897 -0.079,3.896 0.275,5.748 -1.213,-1.73 -2.138,-3.575 -2.568,-5.424 -1.122,1.72 -2.164,3.365 -3.564,5.089 0.447,-2.268 0.898,-4.537 1.063,-6.802 -0.435,1.082 -1.008,2.166 -1.656,3.25 -0.421,-1.033 -0.265,-2.184 -0.837,-3.142 -1.461,2.579 -1.316,5.509 -0.58,8.059 -1.061,-1.952 -2.12,-3.976 -2.892,-6.079 -0.089,1.225 -0.316,2.453 -0.755,3.647 -0.237,-0.664 -0.688,-1.288 -0.784,-1.954 -0.048,1.707 -2.568,3.307 -3.736,4.884 0.016,-2.3 2.016,-5.599 -0.179,-7.676 -0.217,2.119 -3.126,5.284 -5.916,6.898 1.949,-1.708 3.15,-3.732 2.921,-5.583 -0.039,-0.303 -0.077,-0.649 -0.124,-1.015 -0.428,0.685 -0.758,1.388 -1.154,2.078 -0.469,-0.4 -0.863,-0.875 -1.187,-1.315 -0.576,1.199 -0.382,2.569 -0.036,3.749 -0.708,-1.062 -1.485,-2.16 -2.124,-3.222 -0.604,1.643 -0.86,3.393 -2.934,4.846 0.471,-1.791 0.789,-3.43 0.266,-5.2 -0.526,1.533 -1.336,3.146 -3.187,4.448 0.803,-1.503 1.063,-3.326 0.372,-4.757 -0.611,1.831 -2.158,3.905 -4.716,5.266 1.148,-1.4 1.702,-3.492 1.226,-4.927 -1.044,0.841 -1.253,1.96 -1.314,2.925 -0.877,-0.684 -1.382,-1.711 -1.187,-2.569 -1.864,1.567 -0.733,3.915 -0.412,5.576 -1.036,-1.495 -1.797,-2.997 -2.696,-4.495 -0.517,1.533 -0.386,2.904 -0.195,4.42 -1.185,-1.418 -1.67,-2.777 -2.292,-4.281 C 91.153,-1.399 91.218,1.16 91.51,3.379 90.946,2.17 90.365,1.221 90.002,0.154 c -0.301,-0.882 -0.46,-1.804 -0.55,-2.694 -1.367,1.636 -1.961,3.395 -3.392,4.996 0.603,-1.912 1.065,-3.854 1.599,-5.799 0.14,-0.535 0.295,-1.08 0.436,-1.629 -0.403,0.455 -0.803,0.932 -1.268,1.357 -0.108,-0.592 -0.286,-1.217 -0.321,-1.848 -1.048,0.996 -1.41,2.455 -1.615,3.573 -0.351,-1.326 -0.837,-2.758 -1.403,-4.041 -1.806,3.246 -0.65,6.701 -0.829,9.934 -0.312,-2.031 -1.533,-4.221 -2.63,-6.153 -0.498,1.387 -0.645,2.802 -1.355,4.199 0.044,-0.82 0.017,-1.634 -0.081,-2.446 -0.8,1.769 -1.315,3.492 -3.162,5.112 0.571,-1.54 1.954,-6.299 0.105,-8.801 -1.074,1.633 -1.232,3.307 -2.587,4.949 -1.206,1.527 -2.69,2.988 -4.586,4.318 1.604,-2.545 3.638,-5.102 4.2,-7.793 -1.367,1.864 -4.213,3.706 -7.78,4.582 1.187,-1.233 1.955,-2.523 2.373,-3.836 -1.112,1.08 -3.128,1.895 -4.995,2.598 1.67,-1.489 3.169,-3.47 3.873,-5.421 -0.565,0.498 -1.086,1.021 -1.572,1.547 0.028,-0.594 0.055,-1.152 0.083,-1.748 -0.718,1.699 -2.846,3.411 -5.164,4.689 1.764,-1.516 1.706,-3.296 2.207,-4.948 -0.45,0.536 -1.108,1.007 -1.762,1.441 0.127,-1.23 0.036,-2.377 -0.19,-3.593 -1.311,1.395 -1.553,3.174 -1.361,4.668 -0.238,-1.346 -1.143,-2.732 -1.783,-3.987 -0.344,1.35 -0.617,2.735 -0.467,4.102 -0.652,-1.199 -1.233,-2.474 -1.959,-3.632 -0.733,2.221 -0.261,4.391 -0.215,6.58 -0.268,-1.956 -1.509,-4.283 -2.563,-6.132 -0.922,1.709 -2.966,3.32 -3.88,4.993 0.642,-1.949 0.743,-3.876 0.702,-5.814 -0.899,1.334 -1.295,3.012 -1.346,4.284 -0.391,-0.8 -1.492,-1.532 -2.169,-2.244 -0.79,2.078 0.123,4.004 0.325,6.001 -1.546,-1.862 -2.816,-3.736 -3.088,-5.839 -0.54,1.212 -0.447,2.433 -0.563,3.628 -0.613,-0.567 -0.656,-1.308 -0.915,-1.927 -0.486,1.657 -1.398,3.407 -3.215,4.904 0.731,-2.671 0.768,-5.495 -0.271,-8.009 -1.174,1.17 -1.577,2.527 -2.327,3.788 -0.829,1.489 -2.497,2.796 -3.743,4.234 1.269,-2.107 1.907,-4.218 1.984,-6.376 -1.246,1.249 -1.434,2.633 -1.62,3.943 -0.249,-0.953 -0.426,-1.948 -0.605,-2.903 -0.9,1.492 -2.161,3.375 -4.245,4.597 0.603,-1.219 1.295,-2.926 0.91,-4.096 -1.025,1.094 -2.401,2.205 -3.42,3.262 0.631,-1.296 1.115,-2.885 1.289,-4.41 -0.355,0.6 -0.787,1.202 -1.137,1.8 -0.056,-0.479 -0.108,-1.033 -0.517,-1.495 -0.124,1.678 -2.31,3.947 -4.878,5.09 1.592,-1.46 1.363,-3.269 1.411,-4.831 -0.665,1.001 -1.043,1.877 -1.074,2.882 -0.613,-0.673 -1.152,-1.572 -1.201,-2.35 -1.036,1.693 -0.732,3.422 -0.357,5.073 -1.008,-1.654 -2.514,-3.242 -3.031,-4.996 -0.463,1.438 -0.146,2.758 0.026,4.122 -0.956,-1.061 -1.7,-2.244 -2.659,-3.304 C 11.264,0.482 11.488,2.7 11.925,4.794 10.424,2.983 9.354,0.816 8.415,-1.136 7.943,0.786 6.771,2.639 5.88,4.55 6.035,2.12 6.53,-0.312 6.543,-2.71 5.572,-1.605 5.432,0.123 5.47,1.118 4.786,0.229 4.173,-0.662 3.985,-1.653 2.376,0.783 2.794,4.18 3.583,6.547 2.734,5.334 2.066,4.11 1.437,2.871 0.843,2.651 0.255,2.4 -0.317,2.124 -0.547,2.945 -0.875,3.772 -1.224,4.498 -1.348,3.689 -1.4,2.838 -1.736,2.041 -2.269,3.932 -3.5,5.644 -4.941,7.446 -4.806,6.002 -4.637,4.574 -4.547,3.151 -4.879,2.504 -5.273,1.87 -5.676,1.244 -5.907,1.789 -6.149,2.351 -6.427,2.907 -6.655,3.873 -7.15,4.82 -8.293,5.682 -8.936,6.367 -9.717,6.994 -10.705,7.522 -9.69,6.225 -8.993,4.895 -8.461,3.559 -8.539,3.143 -8.669,2.734 -8.897,2.351 c -0.443,0.998 -1.307,1.986 -2.661,2.784 0.216,-0.8 0.403,-1.573 0.493,-2.35 -0.63,0.393 -1.326,0.746 -2.092,1.051 -1.086,1.05 -2.435,2.055 -3.782,2.852 1.439,-1.849 2.176,-3.913 2.418,-5.867 -0.718,0.868 -1.861,1.617 -3,2.366 0.134,-1.237 0.351,-2.523 0.469,-3.781 -1.71,1.345 -1.764,3.487 -1.259,4.729 -0.901,-1.056 -1.307,-2.296 -2.282,-3.347 -0.297,1.066 -0.03,2.202 -0.114,3.251 -1.046,-0.858 -1.736,-2.114 -2.927,-2.889 -0.235,1.919 0.165,3.904 0.634,5.735 -1.318,-1.659 -2.354,-3.449 -2.899,-5.276 -1.008,1.787 -1.944,3.495 -3.229,5.305 0.303,-2.297 0.609,-4.594 0.633,-6.87 -0.366,1.107 -0.871,2.226 -1.445,3.349 -0.486,-1.008 -0.404,-2.17 -1.029,-3.094 -1.298,2.668 -0.968,5.591 -0.075,8.097 -1.181,-1.888 -2.363,-3.853 -3.264,-5.913 -0.011,1.233 -0.16,2.475 -0.523,3.696 -0.276,-0.652 -0.766,-1.248 -0.902,-1.909 0.056,1.71 -2.35,3.459 -3.415,5.108 -0.13,-2.303 1.658,-5.722 -0.661,-7.671 -0.082,2.133 -2.782,5.474 -5.462,7.253 1.837,-1.824 2.905,-3.922 2.561,-5.761 -0.056,-0.3 -0.116,-0.642 -0.185,-1.008 -0.384,0.711 -0.668,1.436 -1.019,2.148 -0.492,-0.373 -0.914,-0.824 -1.264,-1.244 -0.5,1.232 -0.221,2.592 0.196,3.752 -0.769,-1.021 -1.613,-2.073 -2.317,-3.099 -0.496,1.681 -0.643,3.445 -2.617,5.023 0.354,-1.819 0.57,-3.48 -0.063,-5.219 -0.424,1.565 -1.133,3.225 -2.894,4.638 0.704,-1.55 0.848,-3.39 0.073,-4.783 -0.495,1.869 -1.906,4.037 -4.367,5.549 1.053,-1.469 1.475,-3.594 0.909,-5.002 -0.986,0.903 -1.124,2.034 -1.124,3.004 -0.917,-0.632 -1.482,-1.629 -1.344,-2.5 -1.76,1.68 -0.483,3.961 -0.06,5.605 -1.129,-1.437 -1.977,-2.894 -2.969,-4.341 -0.418,1.566 -0.202,2.929 0.084,4.435 -1.271,-1.347 -1.838,-2.679 -2.551,-4.149 -0.906,2.28 -0.682,4.837 -0.251,7.041 -0.638,-1.178 -1.276,-2.093 -1.703,-3.139 -0.355,-0.863 -0.573,-1.779 -0.717,-2.662 -1.258,1.716 -1.74,3.513 -3.068,5.197 0.481,-1.946 0.821,-3.918 1.232,-5.895 0.104,-0.543 0.227,-1.098 0.332,-1.655 -0.374,0.479 -0.741,0.978 -1.18,1.431 -0.145,-0.585 -0.36,-1.2 -0.432,-1.828 -0.982,1.057 -1.255,2.537 -1.387,3.669 -0.432,-1.306 -1.006,-2.71 -1.651,-3.96 -1.596,3.355 -0.228,6.742 -0.204,9.988 -0.438,-2.014 -1.79,-4.133 -3.006,-6.002 -0.41,1.419 -0.466,2.844 -1.085,4.283 -0.009,-0.822 -0.087,-1.637 -0.236,-2.445 -0.686,1.819 -1.09,3.573 -2.828,5.304 0.472,-1.576 1.584,-3.235 -0.413,-5.628 -0.967,1.694 -1.055,0.196 -2.3,1.92 -1.108,1.598 -2.494,3.147 -4.3,4.59 1.438,-2.64 3.305,-5.32 3.695,-8.045 -1.245,1.947 -3.964,3.959 -7.464,5.044 1.106,-1.302 1.791,-2.639 2.124,-3.979 -1.04,1.147 -2.998,2.082 -4.813,2.895 1.57,-1.588 2.941,-3.659 3.519,-5.653 -0.532,0.532 -1.018,1.087 -1.469,1.642 -0.008,-0.598 -0.018,-1.157 -0.027,-1.754 -0.609,1.74 -2.623,3.579 -4.851,4.995 1.662,-1.62 1.492,-3.397 1.889,-5.081 -0.415,0.564 -1.04,1.074 -1.666,1.547 0.048,-1.238 -0.113,-2.382 -0.415,-3.584 -1.219,1.473 -1.346,3.269 -1.063,4.752 -0.321,-1.334 -1.31,-2.669 -2.027,-3.885 -0.257,1.37 -0.442,2.773 -0.207,4.132 -0.724,-1.16 -1.383,-2.403 -2.18,-3.519 -0.591,2.264 0.015,4.41 0.198,6.596 -0.39,-1.942 -1.772,-4.195 -2.937,-5.983 -0.811,1.766 -2.748,3.496 -3.554,5.226 0.518,-1.99 0.497,-3.922 0.335,-5.861 -0.812,1.389 -1.102,3.092 -1.073,4.365 -0.438,-0.776 -1.582,-1.443 -2.302,-2.116 -0.656,2.125 0.374,3.999 0.701,5.986 -1.659,-1.773 -3.041,-3.572 -3.443,-5.661 -0.463,1.245 -0.294,2.462 -0.334,3.663 -0.647,-0.53 -0.737,-1.269 -1.032,-1.873 -0.382,1.687 -1.181,3.491 -2.897,5.097 0.562,-2.716 0.42,-5.544 -0.773,-7.997 -1.096,1.239 -1.412,2.619 -2.081,3.928 -0.733,1.538 -2.312,2.944 -3.464,4.456 1.134,-2.183 1.636,-4.333 1.576,-6.497 -1.161,1.324 -1.262,2.719 -1.366,4.041 -0.306,-0.94 -0.547,-1.923 -0.785,-2.871 -0.802,1.548 -1.941,3.506 -3.94,4.852 0.524,-1.256 1.104,-3.006 0.647,-4.152 -0.951,1.154 -2.253,2.347 -3.202,3.465 0.547,-1.333 0.931,-2.951 1.007,-4.488 -0.314,0.621 -0.708,1.248 -1.019,1.869 -0.084,-0.478 -0.172,-1.029 -0.61,-1.466 -0.018,1.686 -2.054,4.087 -4.543,5.382 1.496,-1.555 1.157,-3.352 1.105,-4.919 -0.601,1.043 -0.922,1.94 -0.888,2.947 -0.655,-0.637 -1.249,-1.504 -1.345,-2.279 -0.928,1.754 -0.515,3.466 -0.039,5.096 -1.108,-1.594 -2.709,-3.095 -3.335,-4.82 -0.37,1.465 0.028,2.768 0.286,4.124 -1.02,-1.006 -1.835,-2.147 -2.858,-3.151 -0.272,2.205 0.09,4.409 0.658,6.477 -1.609,-1.722 -2.812,-3.826 -3.87,-5.724 -0.35,1.952 -1.402,3.875 -2.17,5.839 0.003,-2.44 0.344,-4.903 0.205,-7.303 -0.898,1.163 -0.928,2.901 -0.829,3.894 -0.737,-0.848 -1.405,-1.705 -1.654,-2.687 -1.45,2.534 -0.821,5.906 0.114,8.228 -1.627,-2.052 -2.697,-4.172 -3.983,-6.338 0.127,1.372 -0.363,3.155 -0.937,4.574 -0.174,-0.802 -0.279,-1.652 -0.664,-2.431 -0.411,1.926 -1.532,3.712 -2.855,5.599 0.075,-2.523 0.258,-5.002 -0.054,-7.464 -0.174,-0.088 -0.346,-0.176 -0.513,-0.265 -0.274,0.722 -0.523,1.497 -0.813,2.29 0.019,0.481 0.004,0.964 -0.093,1.456 -0.076,-0.189 -0.162,-0.375 -0.253,-0.56 -0.746,1.804 -1.83,3.612 -4.013,4.96 1.59,-2.326 2.257,-4.688 2.732,-7.009 -0.131,-0.183 -0.262,-0.365 -0.395,-0.545 -0.154,0.188 -0.314,0.377 -0.48,0.566 -0.018,1.386 -0.248,2.805 -1.811,4.126 -0.076,-0.708 -0.1,-1.455 -0.281,-2.162 -0.795,0.611 -1.705,1.176 -2.765,1.638 -0.069,0.047 -0.134,0.097 -0.205,0.148 0.005,-0.024 0.008,-0.048 0.014,-0.072 -0.13,0.055 -0.262,0.111 -0.398,0.162 0.163,-0.252 0.334,-0.499 0.509,-0.743 0.214,-1.186 0.397,-1.024 0.165,-2.199 -0.614,1.953 -3.095,3.057 -5.544,4.723 1.311,-1.932 1.915,-4.034 2.031,-6 -0.657,0.91 -1.747,1.725 -2.834,2.54 0.056,-1.242 0.189,-2.538 0.227,-3.799 -1.615,1.442 -1.533,3.585 -0.951,4.794 -0.964,-1.001 -1.447,-2.213 -2.483,-3.205 -0.228,1.08 0.111,2.2 0.093,3.253 -1.096,-0.797 -1.862,-2.009 -3.097,-2.71 -0.11,1.929 0.413,3.886 0.996,5.686 -1.415,-1.578 -2.563,-3.304 -3.218,-5.093 -0.89,1.845 -1.713,3.605 -2.877,5.486 0.158,-2.308 0.316,-4.62 0.195,-6.893 -0.294,1.127 -0.726,2.273 -1.227,3.429 -0.543,-0.978 -0.538,-2.142 -1.22,-3.027 -1.12,2.74 -0.607,5.636 0.439,8.087 -1.291,-1.816 -2.592,-3.706 -3.62,-5.705 0.069,1.229 -10e-4,2.477 -0.285,3.717 -0.315,-0.633 -0.842,-1.199 -1.018,-1.851 0.165,1.704 -2.118,3.593 -3.075,5.303 -0.274,-2.292 1.285,-5.811 -1.142,-7.617 0.051,2.133 -2.422,5.628 -4.975,7.564 1.712,-1.93 2.642,-4.088 2.182,-5.901 -0.075,-0.297 -0.156,-0.638 -0.248,-0.997 -0.338,0.734 -0.574,1.474 -0.877,2.204 -0.515,-0.341 -0.963,-0.767 -1.338,-1.165 -0.419,1.26 -0.054,2.601 0.435,3.733 -0.832,-0.973 -1.737,-1.973 -2.501,-2.954 -0.388,1.706 -0.423,3.477 -2.287,5.168 0.239,-1.836 0.347,-3.506 -0.393,-5.205 -0.324,1.587 -0.922,3.287 -2.585,4.804 0.604,-1.59 0.629,-3.436 -0.231,-4.778 -0.374,1.894 -1.64,4.141 -3.994,5.797 0.956,-1.527 1.242,-3.675 0.589,-5.047 -0.925,0.959 -0.989,2.098 -0.927,3.066 -0.953,-0.576 -1.579,-1.537 -1.496,-2.414 -1.644,1.779 -0.232,3.981 0.296,5.596 -1.214,-1.365 -2.151,-2.771 -3.231,-4.154 -0.316,1.588 -0.015,2.935 0.367,4.42 -1.349,-1.268 -2.001,-2.564 -2.802,-3.987 -0.756,2.329 -0.371,4.868 0.197,7.042 -0.709,-1.138 -1.402,-2.014 -1.894,-3.031 -0.407,-0.842 -0.681,-1.742 -0.882,-2.616 -1.146,1.788 -1.509,3.61 -2.722,5.372 0.354,-1.971 0.568,-3.961 0.85,-5.958 0.07,-0.549 0.155,-1.11 0.224,-1.672 -0.339,0.5 -0.675,1.02 -1.082,1.499 -0.181,-0.576 -0.434,-1.177 -0.549,-1.8 -0.907,1.115 -1.083,2.609 -1.144,3.746 -0.512,-1.277 -1.174,-2.647 -1.894,-3.855 -1.375,3.444 0.201,6.745 0.433,9.983 -0.563,-1.985 -2.046,-4.02 -3.372,-5.812 -0.319,1.442 -0.285,2.867 -0.809,4.339 -0.06,-0.819 -0.191,-1.628 -0.39,-2.426 -0.567,1.856 -0.857,3.632 -2.476,5.462 0.37,-1.6 1.135,-6.499 -1.008,-8.768 -0.854,1.75 -0.799,3.436 -1.93,5.23 -0.997,1.661 -2.281,3.29 -3.987,4.839 1.266,-2.723 2.951,-5.507 3.166,-8.252 -1.114,2.017 -3.691,4.189 -7.105,5.481 1.018,-1.367 1.613,-2.741 1.86,-4.097 -0.963,1.205 -2.85,2.255 -4.606,3.176 1.461,-1.68 2.693,-3.828 3.142,-5.854 -0.495,0.564 -0.943,1.147 -1.357,1.729 -0.047,-0.597 -0.091,-1.155 -0.14,-1.75 -0.493,1.773 -2.38,3.729 -4.508,5.275 1.55,-1.718 1.27,-3.48 1.555,-5.184 -0.376,0.587 -0.968,1.134 -1.559,1.642 -0.03,-1.238 -0.263,-2.369 -0.639,-3.552 -1.119,1.543 -1.133,3.343 -0.756,4.805 -0.405,-1.311 -1.473,-2.584 -2.266,-3.756 -0.169,1.385 -0.264,2.793 0.058,4.137 -0.796,-1.115 -1.53,-2.317 -2.394,-3.383 -0.446,2.297 0.296,4.401 0.618,6.573 -0.513,-1.915 -2.032,-4.082 -3.305,-5.799 -0.695,1.811 -2.511,3.656 -3.204,5.429 0.389,-2.015 0.246,-3.944 -0.04,-5.869 -0.72,1.434 -0.899,3.152 -0.789,4.423 -0.486,-0.751 -1.667,-1.349 -2.426,-1.977 -0.519,2.161 0.626,3.97 1.078,5.933 -1.762,-1.67 -3.254,-3.383 -3.788,-5.443 -0.381,1.269 -0.134,2.472 -0.098,3.674 -0.678,-0.49 -0.812,-1.221 -1.147,-1.807 -0.27,1.706 -0.952,3.554 -2.56,5.261 0.388,-2.747 0.067,-5.56 -1.277,-7.938 -1.012,1.303 -1.239,2.7 -1.82,4.045 -0.632,1.579 -2.115,3.077 -3.164,4.654 0.987,-2.246 1.351,-4.423 1.154,-6.579 -1.073,1.393 -1.082,2.791 -1.101,4.115 -0.367,-0.919 -0.668,-1.886 -0.965,-2.817 -0.7,1.592 -1.71,3.615 -3.614,5.077 0.442,-1.283 0.91,-3.064 0.381,-4.181 -0.874,1.208 -2.094,2.476 -2.968,3.648 0.46,-1.363 0.739,-3.002 0.718,-4.539 -0.273,0.639 -0.627,1.289 -0.897,1.926 -0.115,-0.471 -0.237,-1.018 -0.699,-1.427 0.091,1.684 -1.785,4.2 -4.179,5.642 1.389,-1.642 0.936,-3.414 0.784,-4.974 -0.53,1.075 -0.792,1.99 -0.696,2.994 -0.692,-0.597 -1.339,-1.429 -1.482,-2.196 -0.811,1.805 -0.293,3.491 0.286,5.09 -1.207,-1.528 -2.894,-2.928 -3.627,-4.612 -0.276,1.486 0.203,2.761 0.548,4.098 -1.08,-0.942 -1.965,-2.032 -3.048,-2.973 -0.128,2.216 0.373,4.396 1.069,6.426 -1.712,-1.623 -3.043,-3.653 -4.219,-5.483 -0.221,1.968 -1.146,3.95 -1.786,5.957 -0.153,-2.436 0.028,-4.913 -0.262,-7.301 -0.819,1.212 -0.74,2.95 -0.576,3.935 -0.789,-0.802 -1.506,-1.618 -1.82,-2.584 -1.281,2.617 -0.44,5.946 0.639,8.208 -1.75,-1.952 -2.95,-4.002 -4.369,-6.088 0.214,1.36 -0.159,3.169 -0.64,4.62 -0.226,-0.79 -0.385,-1.632 -0.817,-2.385 -0.287,1.945 -1.288,3.793 -2.484,5.757 -0.1,-2.896 -0.051,-5.744 -0.773,-8.526 -1.045,2.768 -1.193,6.656 -4.915,9.284 1.723,-2.898 2.118,-5.773 2.451,-8.562 -1.273,1.94 -3.072,4.207 -6.224,5.636"
             style="fill:#009973;fill-opacity:1;fill-rule:nonzero;stroke:none"
             id="path2570" />
        </g>
      </g>
    </g>
  </g>
</svg>
