<?xml version="1.0" encoding="UTF-8" standalone="no"?>
<!-- Created with Inkscape (http://www.inkscape.org/) -->

<svg
   version="1.1"
   id="svg2"
   width="1000"
   height="666.66669"
   viewBox="0 0 1000 666.66669"
   sodipodi:docname="20008383_6221764.ai"
   inkscape:export-filename="bushRight.svg"
   inkscape:export-xdpi="96"
   inkscape:export-ydpi="96"
   xmlns:inkscape="http://www.inkscape.org/namespaces/inkscape"
   xmlns:sodipodi="http://sodipodi.sourceforge.net/DTD/sodipodi-0.dtd"
   xmlns="http://www.w3.org/2000/svg"
   xmlns:svg="http://www.w3.org/2000/svg">
  <defs
     id="defs6">
    <clipPath
       clipPathUnits="userSpaceOnUse"
       id="clipPath3112">
      <path
         d="M 0,0 H 749.999 V 500 H 0 Z"
         id="path3110" />
    </clipPath>
  </defs>
  <sodipodi:namedview
     id="namedview4"
     pagecolor="#ffffff"
     bordercolor="#000000"
     borderopacity="0.25"
     inkscape:showpageshadow="2"
     inkscape:pageopacity="0.0"
     inkscape:pagecheckerboard="0"
     inkscape:deskcolor="#d1d1d1"
     showgrid="false" />
  <g
     id="g10"
     inkscape:groupmode="layer"
     inkscape:label="Page 1"
     transform="matrix(1.3333333,0,0,-1.3333333,0,666.66667)">
    <g
       id="g3106"
       style="display:inline">
      <g
         id="g3108"
         clip-path="url(#clipPath3112)"
         style="display:inline">
        <g
           id="g3186"
           transform="translate(343.8502,155.6308)"
           style="display:inline">
          <path
             d="M 0,0 C 0.56,-0.544 1.159,-1.156 1.744,-1.811 1.655,-2.342 1.607,-2.858 1.621,-3.34 1.059,-2.215 0.537,-1.104 0,0 m 409.444,47.563 c 0.426,3.667 0.93,7.449 3.131,11.259 -4.754,-3.456 -4.944,-8.568 -6.276,-12.209 -0.922,3.658 -0.859,7.405 -0.988,11.212 -1.527,-2.582 -2.805,-5.012 -3.172,-7.57 -0.551,0.99 -0.754,2.097 -1.041,3.136 -0.615,-1.909 -1.092,-4.287 -0.818,-6.077 -1.811,2.745 -3.344,5.441 -5.578,8.008 1.377,-2.975 2.451,-7.353 0.814,-10.794 -0.398,1.27 -1.314,2.342 -2.322,3.398 0.209,-1.296 0.31,-3.581 -0.736,-5.175 -0.37,3.14 -0.139,6.398 -0.334,9.601 -0.817,-2.639 -1.999,-5.246 -2.282,-7.834 -1.5,2.407 -3.199,5.077 -5.384,7.211 0.888,-2.67 1.527,-5.537 1.363,-8.451 -1.381,1.238 -2.512,2.67 -3.891,3.91 0.44,-1.758 1.053,-3.436 0.699,-5.389 -0.935,2.214 -3.089,4.056 -4.63,6.064 0.74,-2.102 1.4,-4.319 0.365,-6.693 -0.184,1.01 -1.01,2.103 -1.893,2.888 0.125,-1.32 -0.213,-2.524 -0.888,-3.937 -0.194,2.052 -0.772,4.381 1.001,6.541 -3.056,-1.896 -5.451,-5.206 -5.335,-7.42 -0.59,0.538 -0.747,1.257 -0.893,1.876 -0.346,-0.837 -0.797,-1.692 -1.145,-2.532 -0.027,2.021 0.329,4.176 0.916,5.97 -1.117,-1.541 -2.673,-3.21 -3.789,-4.799 -0.675,1.47 -0.078,3.811 0.487,5.5 -2.432,-1.923 -3.721,-4.584 -4.614,-6.678 -0.38,1.225 -0.765,2.497 -1.232,3.706 -0.023,-1.742 -0.037,-3.581 -1.406,-5.412 -0.252,2.835 0.213,5.698 1.472,8.651 -1.339,-2.073 -3.232,-4.044 -4.039,-6.12 -0.742,-1.768 -1.033,-3.606 -2.324,-5.32 -1.715,3.128 -2.125,6.828 -1.631,10.438 -2.052,-2.244 -2.922,-4.674 -3.267,-6.918 -0.428,0.771 -0.6,1.733 -1.465,2.377 0.047,-1.58 0.361,-3.163 -0.125,-4.833 -0.682,2.711 -2.586,4.963 -4.836,7.16 0.576,-2.581 2.039,-4.96 1.377,-7.802 -0.971,0.826 -2.477,1.611 -3.098,2.598 0.141,-1.67 -0.09,-3.93 -1.01,-5.815 -0.363,2.53 -0.544,5.067 -0.05,7.718 -0.883,-2.332 -3.203,-4.758 -4.088,-7.139 -1.627,2.257 -3.567,5.108 -4.221,7.625 0.41,-2.855 1.357,-5.623 0.789,-8.643 -1.103,1.402 -2.041,2.981 -3.058,4.448 0.412,-1.767 0.291,-3.619 0.074,-5.441 -1.01,1.541 -2.375,3.217 -2.893,4.94 0.483,-1.923 0.465,-4.289 -0.963,-6.318 -0.482,1.554 -0.779,3.042 -0.818,4.67 -0.756,-0.668 -1.51,-1.386 -1.99,-2.16 0.365,2.241 0.006,4.56 1.986,6.819 -2.717,-2.034 -5.127,-4.606 -5.758,-6.938 -0.06,0.783 -0.117,1.517 -0.176,2.301 -0.529,-0.766 -1.103,-1.532 -1.734,-2.273 0.574,2.664 2.147,5.489 4.012,7.698 -2.242,-1.211 -4.651,-2.592 -5.881,-4.177 0.314,1.784 1.076,3.591 2.375,5.389 -4.358,-1.7 -7.65,-4.556 -9.072,-7.208 0.275,3.61 2.427,7.271 4.043,10.852 -2.178,-2.037 -3.817,-4.18 -5.092,-6.363 -1.442,-2.36 -1.373,-4.578 -2.463,-6.879 -2.736,2.984 -1.76,9.427 -1.285,11.531 -2.069,-2.407 -2.44,-4.742 -3.164,-7.182 -0.254,1.048 -0.42,2.112 -0.496,3.19 -0.67,-1.937 -0.627,-3.811 -1.034,-5.707 -1.693,2.356 -3.586,5.033 -4.304,7.644 0.295,-4.26 2.306,-8.6 0.551,-13.129 -0.918,1.589 -1.764,3.389 -2.418,5.069 -0.077,-1.495 -0.303,-3.46 -1.461,-4.926 -0.147,0.819 -0.469,1.611 -0.702,2.366 -0.517,-0.629 -0.947,-1.313 -1.38,-1.971 0.087,0.74 0.197,1.477 0.287,2.2 0.361,2.626 0.632,5.242 1.084,7.836 -1.547,-2.318 -2.012,-4.714 -3.475,-7.066 -0.256,1.15 -0.605,2.332 -1.127,3.44 -0.627,1.339 -1.512,2.49 -2.418,3.986 0.727,-2.858 1.219,-6.197 0.252,-9.261 -1.023,1.872 -1.853,3.577 -3.576,5.245 0.486,-1.954 0.871,-3.725 0.467,-5.814 -1.377,1.819 -2.575,3.669 -4.125,5.463 0.674,-2.123 2.478,-5.02 0.379,-7.359 0.105,1.153 -0.694,2.417 -1.911,3.174 0.081,-1.272 -0.003,-2.769 -1.183,-4.033 -0.834,1.806 -0.469,4.63 0.75,6.639 -3.004,-2.178 -4.621,-5.133 -5.098,-7.624 -1.097,1.766 -1.064,4.192 -0.295,6.283 -2.123,-1.994 -2.886,-4.23 -3.3,-6.317 -0.946,2.235 -0.807,4.431 -0.502,6.845 -2.381,-2.224 -2.424,-4.552 -2.92,-6.796 -0.977,1.29 -2.131,2.605 -3.194,3.885 0.625,-1.49 1.09,-3.253 0.555,-4.91 -0.479,0.524 -1.051,1.084 -1.707,1.532 -0.389,-0.96 -0.69,-1.933 -1.121,-2.898 -0.117,0.473 -0.221,0.92 -0.317,1.31 -0.586,2.386 0.602,5.223 2.786,7.761 -3.26,-2.546 -6.416,-7.142 -6.35,-9.947 -3.1,2.376 -1.109,7.003 -1.459,10.017 -1.221,-2.249 -4.137,-4.732 -3.926,-6.974 -0.224,0.857 -0.896,1.601 -1.301,2.434 -0.361,-1.63 -0.451,-3.272 -0.363,-4.888 -1.312,2.63 -2.973,5.114 -4.623,7.503 1.336,-3.223 1.992,-7.032 0.563,-10.635 -0.871,1.163 -0.864,2.694 -1.559,3.979 -0.641,-1.519 -1.191,-3.026 -1.566,-4.508 -0.155,2.99 0.046,6.029 0.25,9.066 -1.489,-2.476 -2.538,-4.79 -3.674,-7.216 -0.838,2.354 -2.303,4.622 -4.11,6.699 0.746,-2.369 1.414,-4.942 1.272,-7.478 -1.576,0.921 -2.555,2.516 -3.953,3.563 -0.024,-1.385 0.41,-2.857 0.119,-4.277 -1.324,1.303 -1.942,2.898 -3.17,4.213 0.742,-1.59 0.846,-4.407 -1.217,-6.305 0.049,1.66 0.221,3.365 0.291,4.998 -1.388,-1.072 -2.777,-2.144 -3.619,-3.34 0.15,2.585 0.92,5.349 2.596,7.89 -3.129,-2.191 -6.297,-3.643 -7.08,-6.212 -0.297,1.547 -0.063,1.333 0.211,2.892 0.224,0.322 0.441,0.646 0.648,0.978 -0.172,-0.067 -0.34,-0.141 -0.508,-0.214 0.008,0.033 0.012,0.063 0.02,0.095 -0.092,-0.066 -0.174,-0.133 -0.262,-0.195 -1.353,-0.608 -2.516,-1.35 -3.529,-2.153 -0.233,0.929 -0.264,1.912 -0.362,2.843 -1.996,-1.737 -2.287,-3.603 -2.31,-5.426 -0.213,-0.249 -0.418,-0.497 -0.613,-0.746 -0.17,0.239 -0.338,0.478 -0.504,0.717 0.605,3.053 1.457,6.16 3.486,9.218 -2.787,-1.772 -4.17,-4.149 -5.123,-6.523 -0.117,0.244 -0.227,0.488 -0.322,0.737 -0.125,-0.647 -0.145,-1.282 -0.121,-1.915 -0.37,-1.042 -0.688,-2.063 -1.036,-3.011 -0.214,0.116 -0.433,0.233 -0.656,0.348 -0.398,3.237 -0.164,6.498 -0.068,9.816 -1.69,-2.482 -3.121,-4.831 -3.647,-7.363 -0.49,1.024 -0.625,2.141 -0.847,3.196 -0.733,-1.865 -1.358,-4.21 -1.196,-6.014 -1.642,2.849 -3.009,5.636 -5.086,8.335 1.194,-3.054 1.999,-7.489 0.147,-10.821 -0.318,1.291 -1.172,2.418 -2.111,3.534 0.125,-1.306 0.086,-3.592 -1.059,-5.122 -0.178,3.157 0.258,6.396 0.26,9.606 -0.981,-2.584 -2.322,-5.114 -2.77,-7.681 -1.351,2.497 -2.886,5.265 -4.941,7.529 0.724,-2.72 1.187,-5.619 0.84,-8.518 -1.307,1.32 -2.348,2.821 -3.649,4.143 0.328,-1.783 0.838,-3.497 0.365,-5.422 -0.798,2.267 -2.843,4.241 -4.259,6.338 0.609,-2.143 1.134,-4.396 -0.047,-6.703 -0.125,1.02 -0.881,2.161 -1.719,2.998 0.043,-1.324 -0.367,-2.504 -1.133,-3.876 -0.066,2.062 -0.5,4.424 1.408,6.469 -3.175,-1.703 -5.775,-4.859 -5.798,-7.077 -0.559,0.575 -0.672,1.3 -0.78,1.927 -0.396,-0.815 -0.898,-1.64 -1.3,-2.456 0.097,2.02 0.587,4.147 1.285,5.901 -1.211,-1.471 -2.873,-3.039 -4.088,-4.557 -0.584,1.508 0.158,3.809 0.828,5.461 -2.553,-1.77 -4.008,-4.345 -5.031,-6.382 -0.305,1.247 -0.612,2.541 -1.004,3.776 -0.131,-1.737 -0.26,-3.573 -1.744,-5.315 -0.076,2.846 0.566,5.674 2.013,8.545 -1.47,-1.988 -3.488,-3.838 -4.423,-5.86 -0.854,-1.721 -1.258,-3.536 -2.657,-5.166 -1.523,3.227 -1.705,6.945 -0.986,10.518 -2.191,-2.113 -3.211,-4.486 -3.699,-6.704 -0.379,0.794 -0.492,1.767 -1.319,2.464 -0.05,-1.58 0.166,-3.18 -0.425,-4.818 -0.514,2.748 -2.28,5.113 -4.397,7.444 0.418,-2.612 1.733,-5.076 0.897,-7.871 -0.92,0.885 -2.381,1.762 -2.942,2.783 0.037,-1.675 -0.332,-3.915 -1.369,-5.741 -0.207,2.549 -0.232,5.091 0.428,7.707 -1.03,-2.274 -3.502,-4.551 -4.537,-6.872 -1.489,2.352 -3.252,5.315 -3.75,7.868 0.234,-2.875 1.007,-5.696 0.252,-8.675 -1.018,1.468 -1.858,3.103 -2.784,4.628 0.301,-1.787 0.065,-3.631 -0.263,-5.433 -0.916,1.599 -2.18,3.355 -2.588,5.109 0.361,-1.951 0.197,-4.312 -1.358,-6.25 -0.386,1.582 -0.591,3.085 -0.529,4.714 -0.799,-0.622 -1.598,-1.293 -2.127,-2.034 0.506,2.214 0.289,4.552 2.41,6.683 -2.843,-1.863 -5.416,-4.282 -6.193,-6.57 -0.012,0.784 -0.023,1.521 -0.033,2.307 -0.578,-0.73 -1.197,-1.461 -1.877,-2.16 0.738,2.622 2.488,5.346 4.494,7.434 -2.318,-1.069 -4.818,-2.3 -6.147,-3.806 0.426,1.761 1.301,3.519 2.713,5.232 -4.468,-1.428 -7.941,-4.073 -9.529,-6.634 0.498,3.585 2.881,7.109 4.717,10.58 -2.305,-1.897 -4.076,-3.935 -5.49,-6.036 -1.59,-2.266 -1.702,-0.297 -2.936,-2.525 -2.551,3.146 -1.133,5.329 -0.527,7.401 -2.219,-2.275 -2.737,-4.583 -3.612,-6.974 -0.189,1.062 -0.291,2.133 -0.3,3.213 C 99.579,11.175 99.506,9.302 98.983,7.436 97.432,9.893 95.706,12.68 95.147,15.329 95.176,11.06 96.922,6.604 94.885,2.192 94.063,3.837 93.329,5.684 92.778,7.401 92.608,5.912 92.26,3.965 91.008,2.575 90.915,3.401 90.639,4.21 90.454,4.979 89.895,4.384 89.426,3.728 88.948,3.097 c 0.135,0.733 0.291,1.463 0.424,2.176 0.525,2.602 0.961,5.195 1.572,7.754 C 89.25,10.812 88.635,8.449 87.028,6.192 86.842,7.354 86.567,8.558 86.112,9.693 85.567,11.068 84.752,12.271 83.938,13.82 84.489,10.923 84.774,7.561 83.616,4.562 82.708,6.494 81.983,8.246 80.36,10.018 80.725,8.038 81,6.245 80.467,4.186 79.202,6.088 78.118,8.005 76.676,9.895 77.217,7.732 78.846,4.731 76.6,2.523 76.778,3.668 76.055,4.98 74.883,5.811 74.885,4.535 74.708,3.048 73.45,1.86 72.727,3.713 73.266,6.507 74.61,8.438 71.467,6.45 69.667,3.6 69.034,1.142 68.045,2.973 68.229,5.393 69.127,7.432 66.879,5.573 65.973,3.39 65.432,1.331 64.624,3.619 64.899,5.803 65.352,8.194 62.833,6.12 62.645,3.8 62.01,1.589 61.112,2.939 60.036,4.322 59.053,5.665 59.586,4.139 59.942,2.351 59.303,0.73 58.856,1.282 58.317,1.876 57.688,2.366 57.241,1.431 56.879,0.478 56.389,-0.458 c -0.09,0.48 -0.166,0.932 -0.238,1.326 -0.44,2.418 0.926,5.176 3.271,7.575 C 55.999,6.104 52.553,1.71 52.448,-1.095 49.487,1.469 51.768,5.965 51.604,8.993 50.245,6.825 47.17,4.525 47.243,2.275 47.071,3.145 46.444,3.929 46.092,4.786 45.629,3.181 45.438,1.547 45.424,-0.073 c -1.15,2.708 -2.66,5.292 -4.166,7.775 1.139,-3.297 1.561,-7.14 -0.095,-10.649 -0.799,1.216 -0.696,2.743 -1.315,4.069 -0.734,-1.477 -1.379,-2.947 -1.846,-4.404 0.03,2.994 0.42,6.014 0.809,9.035 -1.641,-2.38 -2.836,-4.626 -4.123,-6.977 -0.695,2.403 -2.02,4.756 -3.702,6.938 0.6,-2.407 1.11,-5.018 0.81,-7.541 -1.52,1.018 -2.401,2.67 -3.736,3.8 -0.109,-1.38 0.232,-2.875 -0.146,-4.276 C 26.668,-0.921 26.15,0.71 25,2.098 c 0.644,-1.633 0.574,-4.451 -1.608,-6.218 0.151,1.653 0.427,3.345 0.599,4.971 -1.456,-0.985 -2.913,-1.969 -3.831,-3.111 0.311,2.571 1.252,5.284 3.088,7.716 -1.72,-1.049 -3.441,-2.371 -4.829,-3.751 -0.98,-0.4 -1.866,-0.866 -2.671,-1.382 0.115,1.022 0.355,2.038 0.629,3.09 -1.729,-1.05 -2.832,-2.35 -3.397,-3.661 -0.291,0.505 -0.457,1.041 -0.555,1.588 0.677,1.757 1.567,3.506 2.862,5.213 C 14.027,5.858 13.029,5.033 12.209,4.132 10.748,2.999 10.117,1.754 9.826,0.483 9.472,-0.249 9.162,-0.986 8.867,-1.704 8.353,-0.88 7.851,-0.047 7.426,0.805 7.541,2.676 7.757,4.554 7.928,6.453 6.09,4.082 4.517,1.831 3.837,-0.655 3.408,0.393 3.342,1.512 3.184,2.576 2.738,1.622 2.318,0.534 2.025,-0.546 1.294,-0.183 0.545,0.147 -0.215,0.436 -1.018,2.065 -1.87,3.675 -2.953,5.27 c 1.006,-3.113 1.539,-7.58 -0.514,-10.785 -0.241,1.304 -1.023,2.477 -1.896,3.646 0.048,-1.309 -0.131,-3.582 -1.37,-5.034 0.016,3.154 0.647,6.351 0.846,9.547 -1.138,-2.513 -2.634,-4.95 -3.236,-7.478 -1.199,2.567 -2.566,5.418 -4.482,7.799 0.558,-2.754 0.843,-5.67 0.32,-8.534 -1.224,1.394 -2.174,2.95 -3.397,4.345 0.223,-1.794 0.627,-3.53 0.036,-5.421 -0.66,2.307 -2.583,4.395 -3.871,6.571 0.479,-2.172 0.867,-4.447 -0.456,-6.671 -0.061,1.021 -0.75,2.205 -1.534,3.09 -0.038,-1.322 -0.52,-2.474 -1.37,-3.79 0.061,2.054 -0.23,4.432 1.803,6.353 -3.28,-1.503 -6.072,-4.488 -6.23,-6.694 -0.522,0.607 -0.589,1.336 -0.659,1.967 -0.447,-0.787 -1,-1.578 -1.453,-2.368 0.223,2.005 0.842,4.094 1.646,5.799 -1.302,-1.389 -3.058,-2.851 -4.366,-4.29 -0.491,1.538 0.391,3.783 1.161,5.387 -2.66,-1.606 -4.271,-4.083 -5.419,-6.046 -0.227,1.257 -0.456,2.566 -0.773,3.819 -0.237,-1.723 -0.478,-3.544 -2.066,-5.186 0.096,2.838 0.911,5.615 2.532,8.385 -1.592,-1.89 -3.721,-3.61 -4.779,-5.568 -0.959,-1.659 -1.472,-3.442 -2.971,-4.981 -1.326,3.306 -1.28,7.019 -0.346,10.532 -2.319,-1.969 -3.485,-4.27 -4.105,-6.449 -0.332,0.814 -0.386,1.788 -1.168,2.534 -0.149,-1.571 -0.029,-3.178 -0.719,-4.771 -0.348,2.766 -1.969,5.23 -3.943,7.678 0.257,-2.625 1.423,-5.159 0.416,-7.891 -0.866,0.936 -2.272,1.899 -2.771,2.95 -0.065,-1.672 -0.571,-3.879 -1.72,-5.634 -0.05,2.55 0.078,5.084 0.898,7.647 -1.168,-2.201 -3.779,-4.319 -4.954,-6.567 -1.345,2.433 -2.93,5.492 -3.272,8.065 0.059,-2.878 0.661,-5.733 -0.275,-8.655 -0.928,1.524 -1.668,3.201 -2.502,4.779 0.191,-1.799 -0.156,-3.62 -0.595,-5.396 -0.817,1.65 -1.973,3.475 -2.277,5.243 0.243,-1.964 -0.064,-4.304 -1.737,-6.137 -0.29,1.598 -0.404,3.106 -0.242,4.724 -0.837,-0.57 -1.676,-1.19 -2.251,-1.895 0.64,2.173 0.567,4.513 2.818,6.507 -2.958,-1.681 -5.677,-3.933 -6.593,-6.167 0.036,0.784 0.07,1.517 0.106,2.3 -0.62,-0.692 -1.286,-1.381 -2.006,-2.036 0.898,2.566 2.812,5.172 4.944,7.13 -2.384,-0.924 -4.958,-1.997 -6.378,-3.417 0.533,1.728 1.514,3.424 3.03,5.045 -4.553,-1.152 -8.188,-3.574 -9.933,-6.026 0.717,3.539 3.315,6.902 5.363,10.249 -2.421,-1.749 -4.317,-3.671 -5.857,-5.678 -1.729,-2.16 -1.931,-4.362 -3.302,-6.509 -2.362,3.29 -0.596,9.549 0.134,11.573 -2.358,-2.13 -3.015,-4.395 -4.038,-6.722 -0.125,1.068 -0.159,2.139 -0.104,3.216 -0.904,-1.835 -1.092,-3.697 -1.729,-5.522 -1.401,2.542 -2.961,5.422 -3.358,8.093 -0.229,-4.253 1.247,-8.795 -1.06,-13.064 -0.722,1.686 -1.343,3.571 -1.791,5.315 -0.259,-1.472 -0.724,-3.39 -2.06,-4.699 -0.045,0.829 -0.272,1.651 -0.41,2.428 -0.594,-0.558 -1.105,-1.184 -1.619,-1.783 0.179,0.722 0.377,1.439 0.556,2.142 0.682,2.557 1.274,5.112 2.041,7.626 -1.826,-2.105 -2.585,-4.419 -4.33,-6.57 -0.115,1.169 -0.318,2.384 -0.703,3.543 -0.463,1.403 -1.204,2.651 -1.924,4.241 0.374,-2.918 0.455,-6.284 -0.885,-9.199 -0.791,1.979 -1.41,3.767 -2.925,5.631 0.246,-1.993 0.412,-3.796 -0.246,-5.812 -1.151,1.969 -2.12,3.945 -3.446,5.911 0.411,-2.185 1.858,-5.272 -0.524,-7.333 0.247,1.129 -0.396,2.478 -1.516,3.379 -0.076,-1.271 -0.345,-2.742 -1.677,-3.848 -0.609,1.888 0.1,4.639 1.563,6.48 -3.264,-1.79 -5.238,-4.518 -6.02,-6.925 -0.879,1.883 -0.549,4.279 0.475,6.256 -2.362,-1.713 -3.398,-3.833 -4.068,-5.85 -0.667,2.327 -0.261,4.484 0.338,6.839 -2.647,-1.911 -2.975,-4.212 -3.745,-6.374 -0.816,1.397 -1.808,2.842 -2.711,4.238 0.442,-1.553 0.688,-3.354 -0.046,-4.93 -0.414,0.579 -0.917,1.203 -1.518,1.729 -0.504,-0.906 -0.924,-1.831 -1.472,-2.733 -0.06,0.482 -0.109,0.936 -0.157,1.335 -0.293,2.434 1.24,5.097 3.731,7.342 -3.565,-2.122 -7.278,-6.285 -7.555,-9.072 -2.803,2.732 -0.25,7.07 -0.231,10.096 -1.491,-2.076 -4.707,-4.179 -4.769,-6.424 -0.121,0.876 -0.698,1.697 -1,2.57 -0.561,-1.57 -0.852,-3.185 -0.963,-4.797 -0.987,2.767 -2.339,5.428 -3.694,7.995 0.938,-3.353 1.126,-7.206 -0.742,-10.598 -0.728,1.26 -0.531,2.773 -1.068,4.132 -0.826,-1.426 -1.558,-2.851 -2.114,-4.274 0.212,2.98 0.786,5.963 1.358,8.946 -1.788,-2.268 -3.118,-4.431 -4.549,-6.694 -0.55,2.433 -1.732,4.859 -3.282,7.134 0.454,-2.436 0.806,-5.065 0.353,-7.559 -1.459,1.106 -2.241,2.804 -3.51,4.012 -0.189,-1.368 0.059,-2.878 -0.403,-4.249 -1.161,1.451 -1.581,3.107 -2.649,4.561 0.544,-1.667 0.306,-4.467 -1.985,-6.095 0.252,1.638 0.631,3.304 0.9,4.913 -1.514,-0.893 -3.033,-1.783 -4.021,-2.865 0.467,2.542 1.574,5.184 3.556,7.496 -3.388,-1.789 -6.729,-2.838 -7.826,-5.283 -0.107,1.565 0.1,1.326 0.565,2.835 0.261,0.292 0.519,0.586 0.767,0.89 -0.181,-0.047 -0.356,-0.098 -0.533,-0.149 0.01,0.029 0.02,0.059 0.029,0.091 -0.098,-0.053 -0.189,-0.111 -0.283,-0.164 -1.428,-0.435 -2.677,-1.025 -3.789,-1.699 -0.118,0.95 -0.027,1.926 -0.012,2.861 -2.204,-1.476 -2.723,-3.288 -2.97,-5.091 -0.244,-0.22 -0.477,-0.44 -0.704,-0.661 -0.14,0.256 -0.28,0.512 -0.415,0.769 0.977,2.949 2.207,5.922 4.609,8.7 -2.998,-1.413 -4.671,-3.596 -5.912,-5.83 -0.088,0.254 -0.168,0.51 -0.235,0.768 -0.203,-0.622 -0.298,-1.25 -0.352,-1.88 -0.497,-0.986 -0.939,-1.959 -1.403,-2.854 -0.201,0.141 -0.405,0.283 -0.612,0.425 -0.003,3.253 0.631,6.452 1.133,9.727 -1.991,-2.252 -3.706,-4.402 -4.542,-6.843 -0.364,1.072 -0.362,2.195 -0.454,3.268 -0.959,-1.757 -1.871,-4.004 -1.931,-5.809 -1.29,3.024 -2.313,5.949 -4.056,8.876 0.817,-3.17 1.077,-7.659 -1.179,-10.732 -0.161,1.316 -0.874,2.536 -1.678,3.756 -0.032,-1.309 -0.351,-3.568 -1.683,-4.94 0.211,3.146 1.041,6.301 1.437,9.479 -1.295,-2.44 -2.946,-4.779 -3.705,-7.265 -1.044,2.637 -2.24,5.565 -4.014,8.058 0.391,-2.781 0.497,-5.709 -0.205,-8.537 -1.14,1.468 -1.998,3.081 -3.136,4.548 0.112,-1.804 0.41,-3.562 -0.299,-5.412 -0.518,2.344 -2.32,4.547 -3.477,6.798 0.346,-2.198 0.596,-4.492 -0.868,-6.631 0.001,1.025 -0.615,2.247 -1.348,3.179 -0.118,-1.318 -0.673,-2.436 -1.606,-3.698 0.185,2.048 0.041,4.44 2.197,6.231 -3.38,-1.298 -6.362,-4.103 -6.657,-6.297 -0.485,0.639 -0.509,1.37 -0.541,2.005 -0.496,-0.759 -1.099,-1.514 -1.601,-2.273 0.345,1.987 1.096,4.032 2.007,5.685 -1.389,-1.307 -3.242,-2.657 -4.641,-4.011 -0.399,1.565 0.625,3.751 1.495,5.306 -2.765,-1.439 -4.534,-3.811 -5.805,-5.701 -0.151,1.27 -0.3,2.589 -0.541,3.859 -0.345,-1.703 -0.698,-3.506 -2.392,-5.048 0.272,2.827 1.26,5.548 3.056,8.213 -1.712,-1.788 -3.952,-3.372 -5.135,-5.26 -1.063,-1.598 -1.688,-3.345 -3.284,-4.789 -1.128,3.381 -0.854,7.085 0.3,10.535 -2.446,-1.823 -3.757,-4.047 -4.515,-6.184 -0.281,0.833 -0.275,1.809 -1.013,2.602 -0.247,-1.559 -0.225,-3.168 -1.016,-4.719 -0.178,2.784 -1.651,5.343 -3.48,7.91 0.096,-2.637 1.109,-5.239 -0.069,-7.904 -0.81,0.99 -2.16,2.037 -2.598,3.117 -0.167,-1.664 -0.809,-3.835 -2.069,-5.517 0.105,2.55 0.391,5.07 1.369,7.578 -1.305,-2.125 -4.053,-4.075 -5.372,-6.247 -1.198,2.511 -2.6,5.662 -2.783,8.25 -0.12,-2.876 0.309,-5.763 -0.809,-8.62 -0.837,1.578 -1.478,3.299 -2.218,4.924 0.084,-1.807 -0.377,-3.602 -0.926,-5.349 -0.72,1.699 -1.766,3.592 -1.961,5.376 0.122,-1.974 -0.328,-4.293 -2.119,-6.02 -0.194,1.614 -0.215,3.128 0.048,4.731 -0.875,-0.517 -1.755,-1.083 -2.374,-1.752 0.775,2.129 0.844,4.471 3.224,6.321 -3.069,-1.495 -5.935,-3.574 -6.991,-5.745 0.085,0.779 0.164,1.509 0.248,2.289 -0.664,-0.653 -1.374,-1.3 -2.138,-1.91 1.059,2.506 3.139,4.989 5.397,6.811 -2.447,-0.775 -5.094,-1.686 -6.606,-3.016 0.641,1.694 1.73,3.326 3.35,4.848 -4.639,-0.865 -8.432,-3.059 -10.332,-5.398 0.936,3.487 3.748,6.683 6.007,9.895 -2.536,-1.595 -4.554,-3.394 -6.224,-5.303 -1.867,-2.046 -1.738,-0.084 -3.244,-2.14 -2.162,3.428 -0.478,5.416 0.379,7.392 -2.496,-1.979 -3.295,-4.2 -4.462,-6.461 -0.06,1.075 -0.028,2.149 0.094,3.22 -1.023,-1.776 -1.323,-3.623 -2.074,-5.407 -1.249,2.624 -2.638,5.595 -2.871,8.288 -0.49,-4.231 0.709,-8.857 -1.866,-12.975 -0.622,1.728 -1.129,3.647 -1.469,5.414 -0.352,-1.452 -0.935,-3.337 -2.357,-4.559 0.005,0.829 -0.171,1.665 -0.262,2.448 -0.63,-0.521 -1.18,-1.113 -1.734,-1.68 0.224,0.71 0.469,1.414 0.69,2.105 0.843,2.511 1.592,5.024 2.517,7.483 -1.962,-1.987 -2.866,-4.25 -4.749,-6.287 -0.043,1.174 -0.172,2.399 -0.487,3.58 -0.378,1.429 -1.046,2.72 -1.669,4.352 0.196,-2.936 0.072,-6.299 -1.452,-9.127 -0.672,2.024 -1.184,3.849 -2.589,5.803 0.124,-2.005 0.18,-3.815 -0.605,-5.787 -1.033,2.037 -1.882,4.069 -3.092,6.116 0.278,-2.208 1.539,-5.378 -0.976,-7.287 0.317,1.11 -0.245,2.498 -1.314,3.464 -0.153,-1.263 -0.512,-2.714 -1.917,-3.735 -0.496,1.923 0.384,4.623 1.965,6.37 -3.385,-1.582 -5.532,-4.182 -6.465,-6.54 -0.765,1.935 -0.287,4.309 0.861,6.216 -2.474,-1.563 -3.644,-3.614 -4.439,-5.584 -0.527,2.364 0.014,4.491 0.759,6.805 -2.773,-1.744 -3.242,-4.019 -4.148,-6.131 -0.732,1.446 -1.64,2.949 -2.459,4.399 0.346,-1.577 0.484,-3.388 -0.35,-4.917 -0.382,0.602 -0.847,1.259 -1.416,1.82 -0.562,-0.873 -1.04,-1.771 -1.645,-2.637 -0.03,0.486 -0.051,0.942 -0.075,1.343 -0.144,2.447 1.556,5.01 4.192,7.096 -3.705,-1.896 -7.685,-5.821 -8.134,-8.585 -2.646,2.902 0.183,7.074 0.388,10.09 -1.624,-1.978 -4.979,-3.879 -5.179,-6.113 -0.068,0.881 -0.597,1.735 -0.846,2.626 -0.658,-1.532 -1.051,-3.127 -1.261,-4.728 -0.819,2.822 -2.013,5.564 -3.215,8.208 0.735,-3.403 0.688,-7.259 -1.395,-10.53 -0.652,1.301 -0.361,2.801 -0.818,4.192 -0.914,-1.374 -1.739,-2.75 -2.382,-4.135 0.394,2.96 1.154,5.902 1.911,8.845 -1.933,-2.154 -3.399,-4.231 -4.975,-6.399 -0.402,2.462 -1.439,4.956 -2.855,7.323 0.307,-2.458 0.498,-5.105 -0.109,-7.565 -1.396,1.194 -2.076,2.938 -3.274,4.223 -0.276,-1.355 -0.118,-2.877 -0.667,-4.217 -1.076,1.521 -1.396,3.198 -2.377,4.716 0.444,-1.697 0.031,-4.478 -2.366,-5.958 0.353,1.618 0.836,3.257 1.204,4.847 -1.574,-0.796 -3.152,-1.592 -4.211,-2.609 0.625,2.507 1.898,5.077 4.029,7.26 -3.509,-1.574 -7.163,-4.109 -8.414,-6.482 -0.015,1.858 0.587,3.533 1.294,5.303 -1.857,-0.825 -3.118,-1.977 -3.841,-3.206 -0.622,1.451 -0.311,2.999 -0.197,4.457 -2.993,-1.735 -3.164,-4.217 -3.579,-6.49 -0.843,1.808 -1.777,3.621 -2.149,5.499 -0.719,-1.815 -0.534,-3.732 -0.89,-5.567 -1.885,1.575 -4.195,3.374 -6.677,4.599 2.109,-2.523 5.433,-6.871 4.209,-9.635 -1.921,-15.238 -3.842,-82.751 -5.765,-97.988 -0.065,0 691.732,21.139 832.278,17.792 -3.376,42.69 -14.212,133.71 -14.175,134.834 0.15,3.712 3.244,6.847 5.191,10.467 -4.025,-1.879 -6.32,-4.86 -7.947,-7.412"
             style="fill:#82be5a;fill-opacity:1;fill-rule:nonzero;stroke:none"
             id="path3188" />
        </g>
      </g>
    </g>
  </g>
</svg>
