<?xml version="1.0" encoding="UTF-8" standalone="no"?>
<!-- Created with Inkscape (http://www.inkscape.org/) -->

<svg
   version="1.1"
   id="svg2"
   width="1000"
   height="666.66669"
   viewBox="0 0 1000 666.66669"
   sodipodi:docname="20008383_6221764.ai"
   inkscape:export-filename="grassTop.svg"
   inkscape:export-xdpi="96"
   inkscape:export-ydpi="96"
   xmlns:inkscape="http://www.inkscape.org/namespaces/inkscape"
   xmlns:sodipodi="http://sodipodi.sourceforge.net/DTD/sodipodi-0.dtd"
   xmlns="http://www.w3.org/2000/svg"
   xmlns:svg="http://www.w3.org/2000/svg">
  <defs
     id="defs6">
    <clipPath
       clipPathUnits="userSpaceOnUse"
       id="clipPath3112">
      <path
         d="M 0,0 H 749.999 V 500 H 0 Z"
         id="path3110" />
    </clipPath>
  </defs>
  <sodipodi:namedview
     id="namedview4"
     pagecolor="#ffffff"
     bordercolor="#000000"
     borderopacity="0.25"
     inkscape:showpageshadow="2"
     inkscape:pageopacity="0.0"
     inkscape:pagecheckerboard="0"
     inkscape:deskcolor="#d1d1d1"
     showgrid="false" />
  <g
     id="g10"
     inkscape:groupmode="layer"
     inkscape:label="Page 1"
     transform="matrix(1.3333333,0,0,-1.3333333,0,666.66667)">
    <g
       id="g3106"
       style="display:inline">
      <g
         id="g3108"
         clip-path="url(#clipPath3112)"
         style="display:inline">
        <g
           id="g3190"
           transform="translate(-54.7524,70.2441)"
           style="display:inline">
          <path
             d="m 0,0 1.758,-103.637 h 902.367 c 2.251,95.728 3.191,103.354 3.533,105.82 1.197,8.137 8.775,13.746 13.959,20.895 -9.371,-2.419 -15.155,-8.029 -19.342,-12.977 1.795,7.919 3.789,16.055 9.572,23.535 C 900.48,28.026 898.884,16.81 895.093,9.33 c -1.195,8.47 -0.199,16.717 0.401,25.184 -3.989,-5.058 -7.379,-9.898 -8.776,-15.396 -0.996,2.42 -1.195,4.949 -1.595,7.368 -1.795,-3.959 -3.389,-9.017 -3.19,-13.087 -3.391,6.819 -6.182,13.417 -10.568,20.016 2.392,-7.148 3.787,-17.267 -0.6,-24.194 -0.598,2.968 -2.392,5.717 -4.387,8.467 0.174,-2.951 -0.107,-8.042 -2.773,-11.139 -0.131,7.094 1.102,14.204 1.377,21.366 -2.395,-5.497 -5.582,-10.776 -6.779,-16.384 -2.793,5.938 -5.983,12.536 -10.371,18.146 1.398,-6.27 2.193,-12.867 1.197,-19.246 -2.791,3.299 -4.987,6.927 -7.778,10.228 0.598,-4.069 1.594,-8.029 0.399,-12.209 -1.596,5.28 -5.983,10.229 -8.973,15.288 1.196,-4.95 2.194,-10.118 -0.599,-14.957 -0.2,2.31 -1.795,5.06 -3.588,7.149 0,-2.969 -0.998,-5.499 -2.793,-8.359 0,4.618 -0.797,10.008 3.59,14.076 -7.18,-2.968 -13.162,-9.347 -13.364,-14.295 -1.195,1.429 -1.392,3.079 -1.593,4.508 -0.934,-1.716 -2.104,-3.434 -3.049,-5.154 0.349,4.488 1.58,9.114 3.25,12.853 -2.793,-2.969 -6.582,-6.049 -9.373,-9.128 -1.198,3.519 0.597,8.467 2.193,11.987 -5.783,-3.3 -9.176,-8.688 -11.568,-12.978 -0.598,2.86 -1.196,5.831 -1.992,8.688 -0.401,-3.847 -0.799,-7.917 -4.188,-11.437 0,6.378 1.594,12.538 4.984,18.585 -3.39,-4.068 -7.976,-7.697 -10.17,-11.986 -1.994,-3.629 -2.992,-7.589 -6.183,-10.887 -3.19,7.588 -3.389,15.946 -1.594,23.753 -4.986,-4.178 -7.379,-9.236 -8.574,-14.077 -0.799,1.871 -0.998,4.069 -2.793,5.831 -0.199,-3.52 0.199,-7.15 -1.197,-10.669 -0.996,6.269 -4.787,11.988 -9.371,17.705 0.796,-5.938 3.589,-11.766 1.593,-17.815 -1.992,2.2 -5.185,4.51 -6.382,6.93 0,-3.757 -0.922,-8.678 -3.305,-12.514 -0.338,5.747 -0.276,11.439 1.312,17.132 -2.394,-4.838 -7.976,-9.349 -10.371,-14.297 -3.189,5.609 -6.978,12.647 -7.974,18.475 0.398,-6.488 1.994,-12.976 0.199,-19.464 -2.194,3.518 -3.988,7.367 -5.985,10.997 0.598,-4.07 0,-8.138 -0.796,-12.097 -1.965,3.792 -4.694,8.009 -5.538,12.022 0.729,-4.448 0.276,-9.691 -3.238,-13.672 -0.795,3.629 -1.197,7.039 -0.996,10.668 -1.795,-1.21 -3.59,-2.53 -4.787,-4.07 1.197,4.838 0.799,10.117 5.586,14.406 C 707.64,18.128 701.857,13.289 700.062,8.34 v 5.17 c -1.299,-1.505 -2.701,-3.002 -4.225,-4.416 1.719,5.703 5.684,11.412 10.207,15.635 -5.183,-1.872 -10.769,-4.07 -13.759,-7.151 0.998,3.85 2.99,7.588 6.181,11.109 -9.97,-2.201 -17.748,-7.37 -21.338,-12.758 1.196,7.918 6.582,15.287 10.77,22.655 -5.186,-3.739 -9.174,-7.918 -12.363,-12.317 -3.59,-4.729 -3.791,-9.677 -6.582,-14.407 -5.584,7.588 -2.393,21.555 -0.996,26.064 -4.987,-4.618 -6.184,-9.677 -8.178,-14.846 -0.399,2.419 -0.598,4.837 -0.598,7.258 -1.795,-4.069 -1.992,-8.248 -3.189,-12.316 -3.391,5.827 -7.18,12.424 -8.377,18.474 0,-9.567 3.789,-19.904 -0.797,-29.363 -1.795,3.848 -3.391,8.138 -4.588,12.098 -0.398,-3.3 -1.195,-7.588 -3.988,-10.448 -0.2,1.87 -0.797,3.739 -1.196,5.498 -1.246,-1.219 -2.296,-2.594 -3.357,-3.913 0.303,1.616 0.658,3.22 0.965,4.793 1.195,5.719 2.193,11.438 3.588,17.047 -3.787,-4.619 -5.184,-9.788 -8.774,-14.518 -0.398,2.64 -0.998,5.39 -1.994,8.03 -1.195,3.187 -2.994,6.047 -4.785,9.677 1.195,-6.6 1.795,-14.187 -0.799,-20.675 -1.996,4.509 -3.59,8.578 -7.178,12.867 0.797,-4.509 1.395,-8.579 0.2,-13.087 -2.795,4.508 -5.188,9.018 -8.375,13.526 1.195,-4.948 4.785,-11.987 -0.202,-16.495 0.399,2.53 -1.197,5.608 -3.789,7.698 0,-2.86 -0.398,-6.16 -3.191,-8.578 -1.596,4.287 -0.398,10.448 2.592,14.515 -6.979,-3.849 -10.967,-9.897 -12.364,-15.285 -2.193,4.289 -1.794,9.678 0.2,14.076 -4.985,-3.739 -6.979,-8.468 -8.176,-12.978 -1.793,5.28 -1.195,10.12 -0.199,15.398 -5.582,-4.18 -5.983,-9.348 -7.377,-14.188 -1.996,3.19 -4.389,6.49 -6.582,9.678 1.197,-3.518 1.994,-7.588 0.599,-11.107 -0.998,1.319 -2.193,2.75 -3.591,3.96 -0.983,-2.017 -1.776,-4.085 -2.852,-6.095 -0.203,1.09 -0.377,2.116 -0.539,3.016 -0.996,5.498 1.994,11.437 7.18,16.385 -7.579,-4.619 -15.157,-13.856 -15.356,-20.125 -6.58,6.269 -1.596,15.947 -1.994,22.765 -2.99,-4.619 -9.771,-9.238 -9.572,-14.297 -0.399,1.98 -1.795,3.849 -2.592,5.828 -0.998,-3.518 -1.397,-7.148 -1.397,-10.776 -2.593,6.267 -5.982,12.317 -9.371,18.145 2.59,-7.588 3.59,-16.276 0,-23.865 -1.795,2.861 -1.597,6.27 -2.992,9.348 -1.597,-3.189 -2.99,-6.377 -3.99,-9.568 0,6.708 0.799,13.417 1.598,20.126 -3.59,-5.058 -6.184,-9.897 -8.975,-14.956 -1.596,5.497 -4.586,10.996 -8.377,16.166 1.397,-5.5 2.594,-11.438 1.996,-17.046 -3.391,2.529 -5.387,6.377 -8.377,9.127 -0.199,-3.079 0.598,-6.488 -0.199,-9.567 -2.793,3.299 -3.99,7.038 -6.58,10.338 1.474,-3.768 1.404,-10.076 -3.361,-13.696 0.281,3.685 0.837,7.435 1.168,11.056 -3.192,-1.98 -6.383,-3.96 -8.375,-6.378 0.597,5.718 2.589,11.657 6.58,16.825 -7.18,-3.958 -14.36,-6.274 -16.354,-11.772 -0.506,3.535 -0.01,2.988 0.756,6.383 0.529,0.655 1.047,1.317 1.541,1.996 -0.393,-0.102 -0.77,-0.216 -1.148,-0.328 l 0.046,0.202 c -0.209,-0.116 -0.396,-0.24 -0.597,-0.36 -3.069,-0.96 -5.721,-2.275 -8.053,-3.776 -0.424,2.144 -0.395,4.339 -0.521,6.446 -4.604,-3.299 -5.426,-7.38 -5.655,-11.439 -0.498,-0.494 -0.972,-0.99 -1.433,-1.486 -0.354,0.579 -0.704,1.159 -1.049,1.741 1.633,6.638 3.818,13.326 8.637,19.558 -6.374,-3.145 -9.674,-8.053 -12.012,-13.077 -0.237,0.574 -0.459,1.151 -0.653,1.734 -0.335,-1.402 -0.435,-2.818 -0.441,-4.236 -0.92,-2.219 -1.719,-4.409 -2.582,-6.423 -0.465,0.32 -0.939,0.641 -1.42,0.962 -0.586,7.334 0.234,14.543 0.756,21.92 -3.988,-5.06 -7.379,-9.899 -8.773,-15.398 -0.999,2.421 -1.198,4.95 -1.596,7.369 -1.795,-3.959 -3.391,-9.017 -3.192,-13.087 -3.39,6.819 -6.182,13.416 -10.567,20.016 2.392,-7.148 3.787,-17.267 -0.599,-24.194 -0.599,2.969 -2.394,5.718 -4.388,8.467 0.172,-2.951 -0.108,-8.042 -2.773,-11.139 -0.131,7.092 1.101,14.204 1.377,21.367 -2.395,-5.498 -5.584,-10.777 -6.78,-16.386 -2.793,5.939 -5.982,12.537 -10.371,18.145 1.397,-6.268 2.194,-12.867 1.198,-19.245 -2.791,3.299 -4.987,6.928 -7.778,10.227 0.598,-4.068 1.596,-8.027 0.399,-12.206 -1.596,5.278 -5.983,10.228 -8.975,15.286 1.197,-4.949 2.195,-10.118 -0.598,-14.957 -0.199,2.31 -1.795,5.06 -3.589,7.15 0,-2.971 -0.997,-5.5 -2.791,-8.36 0,4.62 -0.799,10.009 3.588,14.076 -7.178,-2.967 -13.161,-9.345 -13.361,-14.295 -1.196,1.429 -1.395,3.079 -1.595,4.508 -0.934,-1.717 -2.103,-3.434 -3.049,-5.153 0.351,4.488 1.582,9.113 3.249,12.852 -2.791,-2.969 -6.58,-6.048 -9.372,-9.128 -1.197,3.519 0.598,8.469 2.193,11.988 -5.782,-3.301 -9.174,-8.689 -11.567,-12.978 -0.598,2.861 -1.196,5.829 -1.993,8.688 -0.4,-3.849 -0.799,-7.918 -4.187,-11.438 0,6.379 1.594,12.537 4.984,18.587 -3.39,-4.069 -7.976,-7.698 -10.17,-11.987 -1.994,-3.629 -2.992,-7.588 -6.181,-10.887 -3.192,7.587 -3.392,15.945 -1.597,23.754 -4.985,-4.18 -7.378,-9.238 -8.573,-14.078 -0.799,1.87 -0.998,4.069 -2.793,5.83 -0.199,-3.519 0.199,-7.148 -1.198,-10.668 -0.997,6.269 -4.787,11.986 -9.372,17.706 0.798,-5.939 3.589,-11.767 1.595,-17.816 -1.994,2.2 -5.185,4.509 -6.381,6.928 0,-3.756 -0.925,-8.677 -3.306,-12.512 -0.34,5.747 -0.277,11.44 1.312,17.132 -2.393,-4.839 -7.978,-9.349 -10.371,-14.297 -3.189,5.608 -6.979,12.646 -7.976,18.474 0.398,-6.488 1.994,-12.976 0.199,-19.465 -2.194,3.52 -3.989,7.37 -5.983,10.999 0.598,-4.071 0,-8.139 -0.797,-12.098 -1.964,3.792 -4.693,8.009 -5.537,12.024 0.729,-4.449 0.275,-9.692 -3.238,-13.674 -0.797,3.63 -1.196,7.038 -0.997,10.667 -1.795,-1.21 -3.589,-2.529 -4.786,-4.068 1.197,4.838 0.799,10.117 5.584,14.405 -6.381,-3.518 -12.164,-8.357 -13.959,-13.305 v 5.169 c -1.301,-1.506 -2.701,-3.003 -4.225,-4.417 1.717,5.705 5.684,11.413 10.207,15.633 -5.185,-1.87 -10.768,-4.069 -13.761,-7.149 0.998,3.851 2.993,7.59 6.183,11.107 -9.971,-2.198 -17.749,-7.367 -21.338,-12.755 1.196,7.918 6.581,15.286 10.769,22.655 -5.185,-3.74 -9.173,-7.919 -12.365,-12.317 -3.589,-4.729 -3.789,-0.297 -6.58,-5.025 -5.585,7.588 -2.392,12.173 -0.997,16.682 -4.986,-4.618 -6.182,-9.678 -8.176,-14.847 -0.399,2.419 -0.599,4.839 -0.599,7.258 -1.794,-4.068 -1.993,-8.247 -3.19,-12.317 -3.391,5.829 -7.179,12.427 -8.375,18.476 0,-9.568 3.788,-19.906 -0.799,-29.363 -1.794,3.849 -3.389,8.137 -4.586,12.096 -0.399,-3.298 -1.197,-7.588 -3.989,-10.447 -0.199,1.87 -0.796,3.74 -1.197,5.499 -1.244,-1.22 -2.296,-2.596 -3.357,-3.913 0.304,1.616 0.66,3.22 0.966,4.793 1.196,5.719 2.192,11.438 3.589,17.046 -3.79,-4.619 -5.186,-9.787 -8.776,-14.517 -0.398,2.639 -0.996,5.389 -1.992,8.028 -1.197,3.19 -2.992,6.049 -4.787,9.678 1.197,-6.599 1.795,-14.186 -0.797,-20.674 -1.996,4.507 -3.59,8.577 -7.18,12.866 0.798,-4.509 1.397,-8.578 0.199,-13.086 -2.792,4.508 -5.185,9.016 -8.375,13.526 1.197,-4.949 4.787,-11.987 -0.199,-16.496 0.398,2.529 -1.197,5.609 -3.79,7.697 0,-2.859 -0.398,-6.158 -3.19,-8.577 -1.596,4.289 -0.399,10.448 2.592,14.517 -6.979,-3.85 -10.967,-9.899 -12.364,-15.287 -2.193,4.289 -1.795,9.677 0.2,14.077 -4.986,-3.739 -6.981,-8.468 -8.176,-12.977 -1.795,5.278 -1.198,10.118 -0.2,15.396 -5.583,-4.179 -5.982,-9.348 -7.378,-14.186 -1.996,3.189 -4.388,6.489 -6.581,9.676 1.196,-3.518 1.995,-7.587 0.598,-11.105 -0.996,1.318 -2.193,2.749 -3.59,3.959 -0.984,-2.016 -1.776,-4.086 -2.853,-6.096 -0.202,1.091 -0.375,2.117 -0.537,3.016 -0.998,5.499 1.994,11.437 7.178,16.386 -7.577,-4.619 -15.155,-13.857 -15.354,-20.125 -6.581,6.268 -1.596,15.947 -1.994,22.764 -2.992,-4.619 -9.772,-9.237 -9.572,-14.297 -0.399,1.98 -1.795,3.85 -2.592,5.829 -0.998,-3.518 -1.397,-7.147 -1.397,-10.777 -2.594,6.268 -5.982,12.317 -9.373,18.145 2.592,-7.588 3.59,-16.275 0,-23.863 -1.795,2.859 -1.596,6.268 -2.991,9.348 -1.597,-3.191 -2.991,-6.379 -3.989,-9.568 0,6.708 0.799,13.417 1.596,20.124 -3.589,-5.058 -6.182,-9.897 -8.973,-14.956 -1.597,5.498 -4.588,10.996 -8.377,16.166 1.396,-5.499 2.592,-11.437 1.994,-17.046 -3.39,2.531 -5.385,6.378 -8.375,9.129 -0.199,-3.08 0.598,-6.49 -0.199,-9.568 -2.793,3.299 -3.99,7.037 -6.581,10.337 1.477,-3.767 1.405,-10.075 -3.361,-13.696 0.282,3.685 0.839,7.435 1.168,11.056 -3.191,-1.978 -6.383,-3.959 -8.377,-6.378 0.599,5.718 2.592,11.657 6.582,16.826 -7.179,-3.96 -14.359,-10.118 -16.353,-15.617 -0.599,4.18 0.199,8.029 1.196,12.098 -3.789,-2.091 -6.182,-4.84 -7.378,-7.699 -1.795,3.19 -1.595,6.709 -1.795,10.009 C 10.171,22.983 10.57,17.374 10.371,12.206 7.979,16.165 5.385,20.123 3.99,24.303 2.992,20.123 3.99,15.836 3.791,11.656 -0.797,14.955 -6.381,18.694 -12.163,21.114 -6.779,15.726 1.795,6.378 0,0"
             style="fill:#a3cb60;fill-opacity:1;fill-rule:nonzero;stroke:none"
             id="path3192" />
        </g>
      </g>
    </g>
  </g>
</svg>
