<?xml version="1.0" encoding="UTF-8" standalone="no"?>
<!-- Created with Inkscape (http://www.inkscape.org/) -->

<svg
   version="1.1"
   id="svg2"
   width="1000"
   height="666.66669"
   viewBox="0 0 1000 666.66669"
   sodipodi:docname="20008383_6221764.ai"
   inkscape:export-filename="sun.svg"
   inkscape:export-xdpi="96"
   inkscape:export-ydpi="96"
   xmlns:inkscape="http://www.inkscape.org/namespaces/inkscape"
   xmlns:sodipodi="http://sodipodi.sourceforge.net/DTD/sodipodi-0.dtd"
   xmlns="http://www.w3.org/2000/svg"
   xmlns:svg="http://www.w3.org/2000/svg">
  <defs
     id="defs6">
    <clipPath
       clipPathUnits="userSpaceOnUse"
       id="clipPath42">
      <path
         d="M 0,0 H 749.999 V 500 H 0 Z"
         id="path40" />
    </clipPath>
    <clipPath
       clipPathUnits="userSpaceOnUse"
       id="clipPath74">
      <path
         d="M -71.2417,406.858 H 834.35 V 168.055 H -71.2417 Z"
         id="path72" />
    </clipPath>
  </defs>
  <sodipodi:namedview
     id="namedview4"
     pagecolor="#ffffff"
     bordercolor="#000000"
     borderopacity="0.25"
     inkscape:showpageshadow="2"
     inkscape:pageopacity="0.0"
     inkscape:pagecheckerboard="0"
     inkscape:deskcolor="#d1d1d1"
     showgrid="false" />
  <g
     id="g10"
     inkscape:groupmode="layer"
     inkscape:label="Page 1"
     transform="matrix(1.3333333,0,0,-1.3333333,0,666.66667)">
    <g
       id="g36"
       style="display:inline">
      <g
         id="g38"
         clip-path="url(#clipPath42)"
         style="display:inline">
        <g
           id="g68"
           style="display:inline">
          <g
             id="g98"
             style="display:inline">
            <g
               clip-path="url(#clipPath74)"
               opacity="0.5"
               id="g96">
              <g
                 transform="translate(767.0596,189.5918)"
                 id="g94"
                 style="display:inline">
                <path
                   d="m 0,0 c -17.623,-7.666 -37.289,-11.544 -56.037,-14.752 -58.922,-10.084 -119.42,-6.597 -178.934,-4.207 -128.365,5.153 -254.789,24.121 -382.362,37.268 -59.031,6.084 -117.691,6.605 -176.921,6.023 -7.655,-0.076 -22.631,-2.425 -29.145,2.397 -10.426,7.719 -4.685,33.993 -4.082,45.831 1.438,28.295 6.67,59.947 -10.82,120.242 17.597,0 36.574,-10.103 53.791,-4.387 9.853,3.271 16.334,7.58 26.886,5.037 12.727,-3.066 19.358,-1.994 31.618,3.09 8.679,3.6 19.675,11.199 29.369,11.207 11.767,0.01 23.961,-11.119 34.539,-15.596 17.014,-7.201 32.861,-4.575 50.592,-6.631 21.41,-2.482 39.017,-8.359 58.535,-15.984 6.551,-2.56 13.785,-3.403 20.683,-4.857 10.434,-2.2 20.43,-5.782 30.762,-8.267 10.174,-2.448 14.647,0.741 24.289,3.339 10.305,2.776 21.383,2.753 31.637,-0.257 7.35,-2.159 14.225,0.311 21.539,0.965 8.346,0.746 13.205,-4.464 21.236,-5.907 8.602,-1.545 17.237,1.689 25.585,4.269 5.213,1.611 10.785,2.99 16.072,1.643 2.707,-0.689 5.184,-2.059 7.799,-3.036 7.515,-2.807 15.408,-1.05 23.117,-1.21 6.039,-0.126 16.713,-1.675 21.627,2.682 2.301,2.041 4.084,5.379 7.162,5.388 2.109,0.006 4.092,-1.696 6.141,-1.191 1.273,0.314 2.179,1.399 3.047,2.382 7.722,8.755 12.879,7.812 23.406,9.19 9.08,1.188 15.736,8.273 23.021,13.11 5.994,3.982 12.362,10.972 20.032,10.156 5.841,-0.623 10.947,-4.03 15.966,-7.08 7.655,-4.649 15.688,-8.675 23.995,-12.025 4.519,-1.823 9.189,-3.461 14.05,-3.81 8.633,-0.619 16.971,2.845 25.491,4.364 10.943,1.951 22.451,0.621 32.662,-3.777 4.058,-1.748 7.961,-3.983 12.271,-4.961 8.041,-1.826 16.318,0.917 24.512,1.839 8.205,0.924 16.613,-0.016 24.41,-2.727 4.574,-1.591 8.988,-3.793 13.773,-4.534 7.354,-1.138 14.745,1.279 22.163,1.879 8.49,0.687 17.162,-1.074 24.712,-5.015 2.991,-1.561 5.905,-3.556 7.61,-6.468 3.471,-5.922 0.978,-13.349 0.506,-20.197 -0.604,-8.789 2.318,-17.377 4.224,-25.978 1.908,-8.6 2.68,-18.136 -1.775,-25.735 -0.266,0.735 -2.07,1.018 -2.098,0.236 C 16.055,66.484 18.873,49.501 18.82,32.153 18.775,17.827 13.766,5.99 0,0"
                   style="fill:#69add9;fill-opacity:1;fill-rule:nonzero;stroke:none"
                   id="path92" />
              </g>
            </g>
          </g>
        </g>
      </g>
    </g>
  </g>
</svg>
