<?xml version="1.0" encoding="UTF-8" standalone="no"?>
<!-- Created with Inkscape (http://www.inkscape.org/) -->

<svg
   version="1.1"
   id="svg2"
   width="1000"
   height="666.66669"
   viewBox="0 0 1000 666.66669"
   sodipodi:docname="20008383_6221764.ai"
   inkscape:export-filename="mountainMiddle.svg"
   inkscape:export-xdpi="96"
   inkscape:export-ydpi="96"
   xmlns:inkscape="http://www.inkscape.org/namespaces/inkscape"
   xmlns:sodipodi="http://sodipodi.sourceforge.net/DTD/sodipodi-0.dtd"
   xmlns="http://www.w3.org/2000/svg"
   xmlns:svg="http://www.w3.org/2000/svg">
  <defs
     id="defs6">
    <clipPath
       clipPathUnits="userSpaceOnUse"
       id="clipPath42">
      <path
         d="M 0,0 H 749.999 V 500 H 0 Z"
         id="path40" />
    </clipPath>
    <clipPath
       clipPathUnits="userSpaceOnUse"
       id="clipPath74">
      <path
         d="M -71.2417,406.858 H 834.35 V 168.055 H -71.2417 Z"
         id="path72" />
    </clipPath>
    <clipPath
       clipPathUnits="userSpaceOnUse"
       id="clipPath78">
      <path
         d="M 18.1099,406.858 H 834.35 V 198.119 H 18.1099 Z"
         id="path76" />
    </clipPath>
  </defs>
  <sodipodi:namedview
     id="namedview4"
     pagecolor="#ffffff"
     bordercolor="#000000"
     borderopacity="0.25"
     inkscape:showpageshadow="2"
     inkscape:pageopacity="0.0"
     inkscape:pagecheckerboard="0"
     inkscape:deskcolor="#d1d1d1"
     showgrid="false" />
  <g
     id="g10"
     inkscape:groupmode="layer"
     inkscape:label="Page 1"
     transform="matrix(1.3333333,0,0,-1.3333333,0,666.66667)">
    <g
       id="g36"
       style="display:inline">
      <g
         id="g38"
         clip-path="url(#clipPath42)"
         style="display:inline">
        <g
           id="g68"
           style="display:inline">
          <g
             id="g98"
             style="display:inline">
            <g
               clip-path="url(#clipPath74)"
               opacity="0.5"
               id="g96">
              <g
                 id="g90"
                 style="display:inline">
                <g
                   id="g80" />
                <g
                   id="g88">
                  <g
                     clip-path="url(#clipPath78)"
                     opacity="0.5"
                     id="g86">
                    <g
                       transform="translate(30.4605,204.3555)"
                       id="g84">
                      <path
                         d="m 0,0 c 3.053,-3.297 6.09,-4.923 10.204,-5.68 6.896,-1.269 15.976,0.01 22.741,0.161 18.442,0.413 36.89,0.747 55.326,1.468 55.889,2.19 111.809,3.125 167.734,3.618 66.105,0.583 132.104,2.652 198.18,4.54 52.135,1.491 104.332,0.597 156.441,2.906 43.926,1.946 87.631,7.844 131.5,10.919 18.946,1.328 38.307,1.687 57.073,5.01 9.365,1.66 1.931,46.775 1.244,52.591 -1.738,14.671 -4.002,29.26 -6.52,43.798 -1.213,7.012 -0.465,10.379 0.621,16.926 1.243,7.5 -1.359,13.963 -4.644,20.508 -5.713,11.375 -12.904,23.966 -24.695,26.345 -3.459,0.698 -7.036,0.414 -10.508,1.04 -12.483,2.253 -21.44,15.671 -33.992,17.42 -5.741,0.8 -11.493,-0.98 -17.264,-1.391 -8.912,-0.634 -17.744,2.001 -26.67,2.295 -16.617,0.549 -32.402,-6.941 -48.211,-12.495 -11.728,-4.121 -24.519,-7.302 -36.883,-5.096 -11.806,2.107 -20.24,4.824 -31.812,-1.935 -2.651,-1.549 -5.155,-3.456 -8.012,-4.497 -10.344,-3.771 -20.662,3.258 -30.406,-3.329 -8.715,-5.889 -18.362,-9.318 -27.487,-14.777 -3.003,-1.797 -5.988,-3.824 -9.367,-4.491 -2.635,-0.521 -5.342,-0.177 -8.01,0.074 -8.65,0.812 -17.412,0.614 -25.955,-1.055 -10.795,-2.109 -21.353,-6.611 -32.412,-6.921 -9.396,-0.264 -16.845,4.884 -25.879,7.065 -7.168,1.73 -13.441,-0.331 -20.382,0.461 -12.784,1.459 -23.157,11.09 -35.729,13.345 -11.591,2.079 -20.04,-2.548 -30.419,6.873 -2.432,2.207 -4.668,4.898 -7.698,5.931 -2.644,0.902 -5.498,0.397 -8.27,0.311 -9.253,-0.287 -17.974,4.147 -26.669,7.567 -7.422,2.918 -10.76,0.614 -17.53,-0.625 -6.468,-1.184 -12.549,3.662 -19.008,2.079 -2.251,-0.552 -4.24,-1.921 -6.202,-3.229 -10.137,-6.765 -19.085,-9.861 -30.76,-10.496 -12.018,-0.652 -25.395,-0.489 -36.996,-4.184 -4.588,-1.462 -8.959,-3.679 -13.602,-4.927 -12.343,-3.319 -23.269,0.678 -35.201,2.656 -12.945,2.146 -26.646,0.975 -39.766,0.976 -29.685,0.003 -49.884,20.179 -76.456,30.542 0,0 6.996,-196.518 12.351,-202.297"
                         style="fill:#69add9;fill-opacity:1;fill-rule:nonzero;stroke:none"
                         id="path82" />
                    </g>
                  </g>
                </g>
              </g>
            </g>
          </g>
        </g>
      </g>
    </g>
  </g>
</svg>
