<?xml version="1.0" encoding="UTF-8" standalone="no"?>
<!-- Created with Inkscape (http://www.inkscape.org/) -->

<svg
   version="1.1"
   id="svg2"
   width="1000"
   height="666.66669"
   viewBox="0 0 1000 666.66669"
   sodipodi:docname="20008383_6221764.ai"
   inkscape:export-filename="grassBottom.svg"
   inkscape:export-xdpi="96"
   inkscape:export-ydpi="96"
   xmlns:inkscape="http://www.inkscape.org/namespaces/inkscape"
   xmlns:sodipodi="http://sodipodi.sourceforge.net/DTD/sodipodi-0.dtd"
   xmlns="http://www.w3.org/2000/svg"
   xmlns:svg="http://www.w3.org/2000/svg">
  <defs
     id="defs6">
    <clipPath
       clipPathUnits="userSpaceOnUse"
       id="clipPath3220">
      <path
         d="M 0,489.352 V 0 h 21.228 c -4.329,36.807 -2.972,73.616 -2.273,110.429 v 0 c 0.55,16.316 0.468,32.53 0.117,48.726 v 0 c 0.182,0.605 0.366,1.227 0.535,1.769 v 0 c 1.284,4.556 2.57,8.265 6.418,11.117 v 0 c 3.562,2.422 7.984,6.838 12.11,7.841 v 0 c 1.079,0.228 2.197,0.167 3.312,0.107 v 0 c 0.951,-0.051 1.9,-0.102 2.822,0.025 v 0 c 2.562,0.291 4.414,1.004 6.693,2 v 0 c 4.136,1.85 8.549,2.845 12.684,4.846 v 0 c 8.98,4.566 16.537,11.266 24.799,16.962 v 0 c 4.418,3.136 8.266,6.555 11.402,10.838 v 0 c 2.996,3.988 7.267,5.696 10.838,8.971 v 0 c -1.713,0.858 -4.564,0.284 -6.277,0.997 v 0 c -0.142,-0.139 -0.287,-0.574 -0.426,-0.713 v 0 c -1.994,-1.147 -3.848,-3.849 -5.845,-5.413 v 0 c -2.564,-1.855 -4.845,-3.993 -7.409,-5.696 v 0 C 85.454,209.09 80.322,205.527 74.906,201.968 v 0 c -2.56,-1.716 -5.125,-2.857 -7.838,-4.132 v 0 c -2.709,-1.287 -3.99,-3.709 -6.274,-5.274 v 0 c -2.422,-1.565 -9.402,-4.845 -12.393,-4.415 v 0 c 3.133,7.841 12.11,11.821 17.958,17.246 v 0 c 3.132,2.845 6.125,7.262 8.547,10.687 v 0 c 2.284,3.558 5.845,5.552 8.265,8.832 v 0 c -0.833,-0.191 -1.839,0.021 -2.863,0.234 v 0 c -1.252,0.259 -2.529,0.518 -3.543,0.043 v 0 c -2.142,-0.984 -4.419,-4.833 -6.133,-6.541 v 0 C 65.93,214.08 61.795,208.951 56.521,205.096 v 0 c -3.99,-2.838 -7.98,-5.834 -11.832,-8.686 v 0 c -3.987,-2.706 -7.122,-6.271 -10.97,-8.971 v 0 c -3.852,-2.719 -7.412,-5.002 -12.258,-3.709 v 0 c -1.247,0.38 -2.268,1.117 -3.15,2.03 v 0 c -0.579,17.421 -1.235,34.869 -1.537,52.442 v 0 c -0.012,1.709 -0.057,3.413 -0.073,5.11 v 0 c 3.072,4.948 6.655,10.687 10.24,14.499 v 0 c 2.54,2.549 6.536,6.181 9.802,7.986 v 0 c 3.993,1.824 7.254,0.725 11.25,1.45 v 0 c 7.262,1.812 11.983,10.167 19.972,13.072 v 0 c 5.081,1.813 6.172,1.457 9.799,5.444 v 0 c 2.902,3.63 5.083,6.904 9.076,9.442 v 0 c 6.9,4.35 14.885,6.53 22.513,9.799 v 0 c -10.533,1.449 -19.972,-2.537 -28.687,-8.706 v 0 c -5.083,-3.631 -8.346,-7.636 -13.791,-10.535 v 0 c -4.359,-2.181 -9.804,-7.992 -14.16,-8.349 v 0 c 0.365,6.537 7.261,13.073 11.254,17.791 v 0 c 4.355,5.436 7.627,11.979 13.073,16.7 v 0 c -12.71,2.903 -10.533,-7.632 -21.059,-14.157 v 0 c -1.8,-1.123 -8.714,-23.608 -17.788,-22.509 v 0 c -3.009,0.362 -6.632,-2.87 -10.433,-6.101 v 0 c -3.746,-3.186 -7.667,-6.372 -11.344,-6.114 v 0 c -0.269,16.118 -0.604,32.217 -1.064,48.319 v 0 c 0.565,3.622 1.472,7.162 3.114,10.602 v 0 c 3.392,6.289 8.96,11.369 13.798,16.459 v 0 c 4.842,4.839 9.925,9.928 15.003,14.523 v 0 c 5.084,4.359 10.408,6.294 14.526,11.865 v 0 c 3.869,5.315 8.228,10.152 12.342,15.477 v 0 c 2.657,3.388 8.71,14.035 12.825,14.522 v 0 c -4.836,0.972 -6.537,3.873 -10.403,-0.487 v 0 c -3.393,-4.107 -6.778,-8.469 -10.168,-12.586 v 0 c -3.627,-4.594 -7.744,-8.224 -11.857,-12.342 v 0 c -2.181,-2.177 -6.296,-9.925 -9.682,-9.188 v 0 c 0.97,5.072 1.692,10.156 2.658,15.242 v 0 c 0.97,5.57 3.395,12.341 2.906,17.911 v 0 c -2.658,-1.694 -4.116,-3.389 -5.083,-6.533 v 0 c -1.937,-6.539 -3.628,-13.556 -5.078,-20.331 v 0 c -1.45,-7.256 -3.392,-11.128 -8.23,-16.695 v 0 C 29.985,347.535 19.897,335.215 14.59,336.719 v 0 c -1.021,28.937 -2.346,57.836 -4.032,86.682 v 0 c 2.911,3.214 5.521,8.359 7.488,11.384 v 0 c 2.905,4.363 5.086,8.177 9.073,11.261 v 0 c 8.899,6.531 18.516,11.796 27.957,17.419 v 0 c 4.9,2.909 11.978,5.628 15.974,9.442 v 0 c -0.909,0.728 -1.635,1.634 -2.359,2.541 v 0 c -3.269,-1.994 -6.9,-3.084 -10.168,-4.897 v 0 c -3.447,-1.818 -6.717,-3.63 -9.982,-5.448 v 0 C 41.645,461.659 35.654,455.66 28.579,452.76 v 0 c 4.533,7.983 9.07,16.876 14.153,24.681 v 0 l -12.526,-8.164 c -1.996,-3.815 -4.177,-8.167 -6.171,-12.163 v 0 C 20.939,450.767 16.668,441.355 9.657,438.048 v 0 c -1.135,18.12 -2.367,36.221 -3.769,54.281 v 0 C 3.361,491.399 1.443,490.42 0,489.352"
         id="path3218" />
    </clipPath>
    <clipPath
       clipPathUnits="userSpaceOnUse"
       id="clipPath3228">
      <path
         d="M -9.81783,265.629 H 61.6373 V -60.0615 H -9.81783 Z"
         id="path3226" />
    </clipPath>
    <clipPath
       clipPathUnits="userSpaceOnUse"
       id="clipPath3244">
      <path
         d="M -7.32178,385.98 H 20.1892 V 361.328 H -7.32178 Z"
         id="path3242" />
    </clipPath>
    <clipPath
       clipPathUnits="userSpaceOnUse"
       id="clipPath3260">
      <path
         d="M -9.94208,470.696 H 11.9996 V 450.58 H -9.94208 Z"
         id="path3258" />
    </clipPath>
    <clipPath
       clipPathUnits="userSpaceOnUse"
       id="clipPath3276">
      <path
         d="M 0,0 H 749.999 V 500 H 0 Z"
         id="path3274" />
    </clipPath>
    <clipPath
       clipPathUnits="userSpaceOnUse"
       id="clipPath3288">
      <path
         d="m 85.267,246.677 c -4.601,2.658 -5.325,8.47 -12.342,6.778 v 0 c -5.566,-1.214 -7.986,-6.778 -7.017,-11.864 v 0 c -4.841,4.114 -10.653,4.603 -9.925,-3.148 v 0 c -4.598,8.47 -16.214,1.457 -10.65,-6.052 v 0 c -1.008,-0.041 -2.097,-0.027 -3.221,-0.015 v 0 c -5.618,0.068 -12.109,0.134 -13.721,-6.51 v 0 c -2.175,-8.953 8.593,-6.657 14.761,-1.213 v 0 c -6.893,-7.74 3.148,-13.303 8.959,-6.29 v 0 c -2.906,-4.603 1.695,-7.013 6.05,-6.778 v 0 c 4.842,0.242 7.503,2.664 10.65,6.054 v 0 c -2.178,-4.598 1.453,-7.751 5.812,-7.987 v 0 c 4.591,-0.242 7.983,2.9 9.675,6.777 v 0 c -0.487,-5.328 7.985,-0.488 9.68,1.451 v 0 c -5.809,-10.173 13.559,-11.623 15.972,-1.697 v 0 c 0,-6.295 11.618,-1.45 13.56,1.456 v 0 c -0.487,-9.932 14.03,-10.651 14.277,-1.456 v 0 c 0.967,-3.872 9.682,-4.833 9.682,0 v 0 c 0.963,-5.323 13.069,-2.423 13.069,2.905 v 0 c 0,7.007 -9.442,5.565 -13.801,5.087 v 0 c 5.325,7.503 -5.325,15.005 -11.127,7.974 v 0 c 3.943,7.659 -9.679,10.657 -12.949,4.072 v 0 c 1.105,3.307 -0.228,6.424 -3.993,7.309 v 0 c -3.503,0.874 -5.816,-1.021 -8.017,-3.348 v 0 c 5.355,6.502 -5.262,14.095 -9.414,6.25 v 0 l 0.002,0.003 c 0.248,4.598 -3.144,9.201 -6.288,10.651 v 0 c -1.157,0.532 -2.16,0.769 -3.033,0.769 v 0 c -4.645,10e-4 -5.631,-6.693 -6.651,-11.178"
         id="path3286" />
    </clipPath>
    <clipPath
       clipPathUnits="userSpaceOnUse"
       id="clipPath3296">
      <path
         d="M 34.5485,235.929 H 157.66 V 199.918 H 34.5485 Z"
         id="path3294" />
    </clipPath>
    <clipPath
       clipPathUnits="userSpaceOnUse"
       id="clipPath3312">
      <path
         d="M 0,0 H 749.999 V 500 H 0 Z"
         id="path3310" />
    </clipPath>
    <clipPath
       clipPathUnits="userSpaceOnUse"
       id="clipPath3324">
      <path
         d="m 63.244,348.088 c -4.841,-1.936 -1.697,-8.234 0.239,-10.891 v 0 c -1.936,2.657 -9.439,6.046 -12.345,3.388 v 0 c -2.947,-2.737 -0.212,-8.232 2.62,-10.887 v 0 c -2.162,1.384 -5.646,2.487 -7.214,0.717 v 0 c -2.368,-2.792 0.804,-6.541 2.901,-8.704 v 0 c -2.236,2.061 -6.338,4.305 -8.709,1.929 v 0 c -1.404,-1.561 -0.696,-3.524 0.309,-5.306 v 0 c -2.621,2.974 -7.484,5.462 -10.474,4.342 v 0 c -7.747,-2.667 -0.724,-9.206 2.906,-11.378 v 0 c -3.63,-0.486 -14.284,-1.694 -10.412,-7.992 v 0 c 3.632,-5.806 13.315,0.495 16.704,3.631 v 0 c -2.181,-3.136 -4.601,-6.766 1.211,-6.525 v 0 c 3.866,0.229 7.497,3.142 9.433,6.283 v 0 c -5.652,-9.434 7.059,-9.678 11.521,-3.865 v 0 c -1.953,-3.186 4.326,-3.627 6.635,-3.396 v 0 c 3.646,0.467 5.576,2.851 7.002,5.974 v 0 c -2.235,-5.863 9.17,-5.56 11.154,0.493 v 0 c -1.148,-7.064 10.025,-3.141 12.34,0.794 v 0 c -0.487,-4.114 -0.97,-7.261 3.863,-8.705 v 0 c 3.286,-1.17 7.249,0.151 7.713,3.974 v 0 c -0.337,-5.789 7.634,-8.516 11.896,-5.424 v 0 c 1.621,1.297 2.806,4.755 2.109,6.974 v 0 c 3.995,-2.065 9.854,-1.941 12.172,1.731 v 0 c 5.086,7.748 -6.537,7.748 -10.651,9.439 v 0 c 7.745,5.811 -6.288,8.715 -10.891,5.567 v 0 c 7.747,5.57 0.241,13.559 -7.262,9.2 v 0 c 7.92,7.695 -3.351,13.397 -8.561,8.197 v 0 c 2.169,4.077 -0.737,7.541 -6.2,7.541 v 0 c -5.812,0 -6.05,-5.091 -7.986,-7.513 v 0 l -0.728,0.486 c 0.728,8.232 -12.103,13.07 -11.128,2.909 v 0 c -1.269,2.744 -4.566,7.331 -8.437,7.331 v 0 c -0.566,0 -1.144,-0.098 -1.73,-0.314"
         id="path3322" />
    </clipPath>
    <clipPath
       clipPathUnits="userSpaceOnUse"
       id="clipPath3332">
      <path
         d="M 28.6888,328.226 H 136.308 V 287.412 H 28.6888 Z"
         id="path3330" />
    </clipPath>
    <clipPath
       clipPathUnits="userSpaceOnUse"
       id="clipPath3348">
      <path
         d="M 0,0 H 749.999 V 500 H 0 Z"
         id="path3346" />
    </clipPath>
    <clipPath
       clipPathUnits="userSpaceOnUse"
       id="clipPath3360">
      <path
         d="m 0.56,303.554 c 0.102,1.266 -0.115,2.468 -0.56,3.523 v 0 -55.13 c 3.711,0.361 7.212,2.573 8.54,7.562 v 0 c 2.181,-3.873 4.458,-6.954 9.059,-6.954 v 0 c 3.633,0 8.856,2.109 8.372,6.954 v 0 c 2.903,-6.054 18.393,-7.02 13.064,0.719 v 0 c 3.882,-4.592 7.748,-6.289 13.798,-4.592 v 0 c 1.939,0.719 5.57,1.692 5.808,4.114 v 0 c 0.176,1.541 -0.993,2.694 -2.371,3.081 v 0 c 4.784,-0.036 14.115,0.792 13.259,5.872 v 0 c -0.797,4.802 -8.532,3.974 -12.972,2.181 v 0 c 2.785,1.945 4.963,5.292 0.393,7.019 v 0 c -2.654,0.883 -8.132,-1.267 -10.723,-3.115 v 0 c 5.969,4.931 3.67,10.021 -4.286,6.746 v 0 c -2.018,-0.839 -3.918,-2.084 -5.796,-3.358 v 0 c 1.19,2.657 -0.022,5.78 -3.396,6.257 v 0 c -3.147,0.49 -5.083,-2.657 -7.744,-3.629 v 0 c 2.661,2.664 5.321,5.569 2.42,9.441 v 0 c -3.145,3.872 -7.021,1.208 -10.406,-1.208 v 0 c 1.936,3.141 4.11,6.772 1.688,10.397 v 0 c -1.45,2.429 -6.536,3.147 -8.463,0.253 v 0 c 2.413,3.867 5.564,11.611 -0.49,13.547 v 0 c -0.686,0.219 -1.323,0.32 -1.913,0.32 v 0 c -4.614,0 -6.424,-6.144 -7.281,-10"
         id="path3358" />
    </clipPath>
    <clipPath
       clipPathUnits="userSpaceOnUse"
       id="clipPath3368">
      <path
         d="M -171.204,304.9 H 61.6453 V 240.493 H -171.204 Z"
         id="path3366" />
    </clipPath>
    <clipPath
       clipPathUnits="userSpaceOnUse"
       id="clipPath3384">
      <path
         d="M 0,0 H 749.999 V 500 H 0 Z"
         id="path3382" />
    </clipPath>
    <clipPath
       clipPathUnits="userSpaceOnUse"
       id="clipPath3396">
      <path
         d="m 59.614,421.54 c -3.631,6.171 -14.882,0.36 -8.349,-6.538 v 0 c -5.877,5.254 -9.906,0.247 -9.852,-5.391 v 0 c -1.454,3.344 -5.979,5.65 -9.392,3.94 v 0 c -3.264,-2.181 -3.63,-7.629 -3.63,-10.888 v 0 h -1.09 c -6.897,9.442 -17.426,6.526 -14.152,-5.806 v 0 C 7.703,405.922 -5.369,398.3 2.982,391.776 v 0 C 1.899,392.51 0.902,392.997 0,393.282 v 0 -8.14 c 0.524,-0.017 1.086,0.005 1.686,0.071 v 0 C 1.073,385.125 0.506,384.9 0,384.574 v 0 -8.785 c 3.603,-1.635 8.575,2.691 10.966,5.095 v 0 c -6.146,-6.515 7.16,-9.066 10.492,0.254 v 0 c -1.331,-3.916 3.696,-5.705 6.933,-5.343 v 0 c 3.996,0.365 5.445,2.909 7.263,5.811 v 0 c -3.267,-6.904 9.8,-6.533 12.339,-0.365 v 0 c -0.364,-9.442 13.074,-4.718 11.621,2.181 v 0 c 1.627,-4.23 10.255,-4.667 10.458,-0.007 v 0 c 1.936,-5.82 12.887,-7.128 13.119,-2.993 v 0 c 3.16,-5.856 14.976,-4.769 12.528,1.847 v 0 c 3.034,-1.866 10.581,0.224 11.449,3.696 v 0 c -1.733,-7.301 11.808,-12.267 10.446,-3.155 v 0 c 2.109,-4.961 15.237,-7.247 9.885,2.79 v 0 c 4.035,-6.828 13.636,-3.052 11.812,1.818 v 0 c 3.602,-2.745 10.669,-3.875 13.238,-0.731 v 0 c 5.446,7.267 -6.537,8.346 -10.167,9.804 v 0 c 6.306,4.556 -2.594,9.783 -7.143,5.904 v 0 c 6.931,7.08 -6.378,13.489 -10.645,3.898 v 0 c 2.332,6.983 -8.455,10.616 -11.392,5.03 v 0 c 1.728,7.649 -9.493,9.626 -12.201,1.497 v 0 c 0,0.372 0.365,1.091 0.365,1.825 v 0 c -3.271,1.807 -6.902,2.537 -10.17,-0.371 v 0 c 6.258,8.35 -4.138,14.364 -9.812,7.516 v 0 c 3.21,5.484 -9.392,8.018 -11.565,0.971 v 0 c 1.567,5.365 -1.504,7.694 -4.821,7.694 v 0 c -3.997,0 -8.351,-3.382 -5.384,-8.915"
         id="path3394" />
    </clipPath>
    <clipPath
       clipPathUnits="userSpaceOnUse"
       id="clipPath3404">
      <path
         d="M 4.86092,408.915 H 152.173 V 363.719 H 4.86092 Z"
         id="path3402" />
    </clipPath>
    <clipPath
       clipPathUnits="userSpaceOnUse"
       id="clipPath3420">
      <path
         d="M 0,0 H 749.999 V 500 H 0 Z"
         id="path3418" />
    </clipPath>
    <clipPath
       clipPathUnits="userSpaceOnUse"
       id="clipPath3432">
      <path
         d="m 0,500 v -41.505 c 0.664,-0.014 1.413,0.047 2.257,0.192 v 0 c 5.805,0.973 8.222,6.775 9.675,11.864 v 0 c -1.833,-11.016 11.318,-9.403 12.073,0.281 v 0 c 0.861,-6.986 15.555,-7.771 16.005,2.13 v 0 c 0.97,-3.383 0.484,-8.705 5.323,-8.464 v 0 c 1.023,0.058 1.918,0.381 2.706,0.867 v 0 c 0.317,-0.945 0.698,-1.83 1.163,-2.562 v 0 c 1.914,-2.876 8.094,-4.565 8.232,0.547 v 0 c -0.026,-8.771 14.026,-8.293 14.102,-2.803 v 0 c 3.171,-6.548 13.671,-4.37 13.873,-0.408 v 0 c 1.743,-2.697 4.615,-5.624 7.119,-5.811 v 0 c 3.873,-0.241 5.809,4.118 3.631,7.268 v 0 c 3.144,-3.15 8.714,-6.295 13.067,-4.359 v 0 c 5.566,2.658 2.419,6.289 -1.689,8.47 v 0 c 2.652,-0.481 10.644,0 9.917,4.116 v 0 c -0.967,4.591 -9.198,3.631 -12.097,2.897 v 0 c 2.413,1.462 11.616,5.326 4.832,8.965 v 0 c -2.012,1.079 -6.309,-0.224 -9.14,-2.259 v 0 c 1.495,2.96 1.754,6.135 -2.471,6.135 v 0 c -3.235,0 -8.113,-3.057 -9.647,-6.459 v 0 c 0.969,6.253 -7.234,4.169 -11.653,3.057 v 0 c 2.178,1.695 8.472,4.117 4.597,7.506 v 0 c -1.692,1.701 -8.95,0.728 -11.134,-0.245 v 0 c 2.184,1.46 10.895,5.812 6.301,8.479 v 0 c -2.905,1.692 -9.683,-1.939 -12.589,-2.426 v 0 c 1.671,0.837 3.874,2.676 5.008,4.527 v 0 z"
         id="path3430" />
    </clipPath>
    <clipPath
       clipPathUnits="userSpaceOnUse"
       id="clipPath3440">
      <path
         d="M -92.0439,499.533 H 120.153 V 441.939 H -92.0439 Z"
         id="path3438" />
    </clipPath>
  </defs>
  <sodipodi:namedview
     id="namedview4"
     pagecolor="#ffffff"
     bordercolor="#000000"
     borderopacity="0.25"
     inkscape:showpageshadow="2"
     inkscape:pageopacity="0.0"
     inkscape:pagecheckerboard="0"
     inkscape:deskcolor="#d1d1d1"
     showgrid="false" />
  <g
     id="g10"
     inkscape:groupmode="layer"
     inkscape:label="Page 1"
     transform="matrix(1.3333333,0,0,-1.3333333,0,666.66667)">
    <g
       id="g18592"
       style="display:inline"
       inkscape:label="treeLeft">
      <g
         id="g18507"
         inkscape:label="treeLeft"
         style="display:inline">
        <g
           id="g3210"
           transform="translate(104.4078,224.6279)"
           style="display:inline">
          <path
             d="m 0,0 c -0.142,-0.139 -0.287,-0.574 -0.426,-0.713 -1.993,-1.147 -3.848,-3.849 -5.845,-5.413 -2.564,-1.854 -4.844,-3.993 -7.409,-5.696 -5.274,-3.716 -10.405,-7.28 -15.821,-10.838 -2.562,-1.716 -5.126,-2.858 -7.838,-4.132 -2.71,-1.287 -3.991,-3.709 -6.274,-5.273 -2.423,-1.566 -9.403,-4.846 -12.393,-4.416 3.132,7.84 12.109,11.822 17.957,17.247 3.132,2.844 6.125,7.26 8.548,10.686 2.283,3.558 5.844,5.552 8.264,8.832 -1.848,-0.423 -4.561,1.142 -6.407,0.278 -2.141,-0.985 -4.419,-4.833 -6.131,-6.542 -4.703,-4.568 -8.838,-9.697 -14.112,-13.551 -3.99,-2.839 -7.98,-5.835 -11.831,-8.687 -3.988,-2.706 -7.123,-6.27 -10.971,-8.97 -3.851,-2.719 -7.412,-5.002 -12.257,-3.709 -1.247,0.379 -2.268,1.117 -3.151,2.029 -0.579,17.422 -1.235,34.869 -1.537,52.442 -0.012,1.709 -0.057,3.413 -0.073,5.111 3.072,4.947 6.655,10.686 10.24,14.498 2.54,2.549 6.536,6.18 9.801,7.986 3.994,1.825 7.256,0.725 11.252,1.45 7.261,1.813 11.982,10.167 19.972,13.073 5.08,1.812 6.171,1.456 9.798,5.443 2.903,3.631 5.083,6.905 9.077,9.442 6.899,4.35 14.885,6.53 22.512,9.799 -10.533,1.449 -19.972,-2.538 -28.686,-8.706 -5.084,-3.63 -8.346,-7.635 -13.792,-10.535 -4.359,-2.181 -9.804,-7.992 -14.16,-8.349 0.365,6.537 7.261,13.073 11.255,17.791 4.355,5.437 7.626,11.979 13.072,16.7 -12.71,2.903 -10.532,-7.632 -21.059,-14.157 -1.8,-1.123 -8.714,-23.608 -17.787,-22.509 -5.978,0.719 -14.369,-12.734 -21.778,-12.215 -0.269,16.118 -0.604,32.217 -1.064,48.32 0.565,3.621 1.471,7.161 3.115,10.601 3.392,6.289 8.959,11.37 13.797,16.459 4.842,4.839 9.926,9.929 15.003,14.523 5.084,4.359 10.409,6.295 14.526,11.865 3.869,5.316 8.228,10.151 12.342,15.477 2.658,3.389 8.71,14.036 12.825,14.522 -4.836,0.973 -6.537,3.873 -10.403,-0.486 -3.392,-4.108 -6.778,-8.469 -10.167,-12.587 -3.628,-4.594 -7.745,-8.224 -11.859,-12.341 -2.18,-2.178 -6.294,-9.926 -9.68,-9.189 0.969,5.072 1.691,10.155 2.658,15.242 0.969,5.57 3.395,12.342 2.905,17.911 -2.657,-1.694 -4.116,-3.389 -5.083,-6.533 -1.936,-6.539 -3.628,-13.556 -5.077,-20.331 -1.451,-7.255 -3.392,-11.128 -8.231,-16.694 -2.039,-2.248 -12.128,-14.568 -17.435,-13.064 -1.021,28.936 -2.347,57.837 -4.032,86.682 2.912,3.214 5.521,8.358 7.488,11.385 2.905,4.362 5.086,8.176 9.073,11.26 8.899,6.531 18.516,11.795 27.958,17.419 4.899,2.909 11.977,5.628 15.973,9.442 -0.91,0.728 -1.635,1.635 -2.359,2.541 -3.269,-1.994 -6.899,-3.084 -10.167,-4.897 -3.447,-1.818 -6.718,-3.63 -9.983,-5.448 -6.896,-3.444 -12.886,-9.443 -19.963,-12.342 4.534,7.983 9.071,16.875 14.154,24.68 l -12.526,-8.164 c -1.996,-3.815 -4.177,-8.168 -6.171,-12.164 -3.096,-6.346 -7.367,-15.757 -14.377,-19.065 -1.136,18.12 -2.368,36.222 -3.77,54.281 -13.801,-5.08 -9.442,-11.619 -8.717,-26.136 0.725,-13.073 1.456,-26.14 1.456,-39.931 v -2.305 c -1.35,1.039 -2.785,1.984 -3.818,2.839 -4.353,3.456 -9.07,7.63 -11.976,12.167 -1.45,2.362 -1.994,5.449 -2.906,7.805 -1.269,2.721 -2.906,5.449 -3.99,7.989 -2.181,4.722 -4.177,9.068 -6.718,13.614 -0.546,0.906 -1.09,2.18 -1.453,3.259 -3.084,-1.994 -2.362,-2.169 -0.909,-5.437 1.088,-2.54 2.178,-4.721 3.268,-7.077 2.178,-4.543 4.54,-8.892 7.083,-13.07 -5.448,1.625 -9.988,7.621 -13.435,11.795 -4.174,4.906 -9.442,9.442 -13.073,14.523 -0.543,-0.187 -1.631,-0.909 -2.171,-1.45 7.617,-7.089 11.613,-16.703 20.144,-23.056 3.449,-2.54 7.623,-5.624 10.164,-9.254 2.724,-4.178 5.989,-8.177 9.442,-11.808 2.881,-3.114 6.868,-5.693 10.348,-8.65 v -74.069 c -4.688,3.525 -9.563,7.019 -14.039,10.786 -5.087,4.359 -9.681,8.947 -14.275,13.559 -4.604,4.099 -12.104,8.46 -15.009,13.783 -1.453,-0.722 -3.392,-1.45 -4.839,-2.178 3.15,-3.876 6.533,-7.506 10.164,-11.137 3.386,-3.144 9.436,-8.46 9.436,-8.46 -4.839,-1.208 -15.003,3.624 -19.356,6.047 -5.086,2.658 -10.891,7.503 -15.975,8.953 -0.244,-4.836 10.164,-10.17 13.795,-12.348 4.594,-2.652 10.405,-5.552 15.486,-7.011 12.348,-3.866 22.509,-11.378 31.223,-21.297 1.054,-1.145 2.235,-2.483 3.392,-3.912 0.033,-45.003 0.275,-89.996 -0.07,-134.814 -8.076,2.036 -21.793,16.522 -25.348,20.382 -7.261,7.986 -8.714,11.973 -6.533,22.509 2.178,9.436 3.993,19.597 4.718,29.396 0,2.549 1.091,5.086 -2.54,5.805 -4.359,-11.973 -5.446,-25.046 -9.439,-36.651 -6.171,6.525 -10.533,17.779 -15.973,25.409 -3.63,4.349 -6.536,9.067 -9.801,13.423 -3.272,5.08 -4.721,4.724 -10.533,3.999 2.54,-8.711 10.892,-15.248 15.613,-22.509 4.721,-6.892 10.527,-14.885 13.067,-22.502 -3.996,-1.469 -14.157,0.713 -18.513,1.443 -8.351,1.45 -19.238,3.631 -26.14,7.624 -7.985,4.361 -15.247,11.623 -22.502,17.434 -5.446,4.712 -7.989,9.436 -15.616,6.525 8.714,-4.719 16.196,-16.444 24.185,-22.256 -6.174,-1.081 -12.315,-5.406 -18.851,-4.319 1.115,-6.651 15.196,0.242 19.183,0.61 7.624,0.725 15.417,-4.881 23.041,-8.887 7.623,-3.629 15.25,-3.629 23.599,-4.711 3.63,-0.369 9.074,0 12.339,-1.819 3.63,-2.18 5.446,-7.623 8.717,-10.891 9.801,-8.717 18.147,-19.235 26.862,-29.408 4.482,-5.377 7.312,-11.599 10.182,-17.785 -0.239,-17.579 -0.59,-35.122 -1.106,-52.641 -0.725,-34.851 -3.631,-69.702 -5.084,-104.546 -0.724,-17.434 -0.724,-31.22 -11.617,-45.018 -4.352,-4.361 -8.71,-9.441 -12.341,-13.791 l 74.053,-0.731 c -18.147,6.53 -19.596,33.394 -20.327,42.837 -5.081,38.481 -3.631,76.962 -2.9,115.45 0.55,16.316 0.468,32.53 0.118,48.726 0.181,0.605 0.365,1.227 0.534,1.77 1.284,4.556 2.571,8.265 6.419,11.116 3.561,2.422 7.983,6.838 12.109,7.841 2,0.423 4.132,-0.145 6.135,0.133 2.561,0.29 4.413,1.003 6.693,2 4.135,1.848 8.548,2.844 12.683,4.844 8.98,4.568 16.537,11.267 24.799,16.963 4.419,3.136 8.267,6.555 11.402,10.838 2.997,3.988 7.268,5.697 10.838,8.971 C 4.564,-0.139 1.713,-0.713 0,0"
             style="display:inline;fill:#524236;fill-opacity:1;fill-rule:nonzero;stroke:none"
             id="path3212" />
        </g>
        <g
           id="g3214"
           style="display:inline">
          <g
             id="g3216"
             clip-path="url(#clipPath3220)">
            <g
               id="g3222">
              <g
                 id="g3224" />
              <g
                 id="g3236">
                <g
                   clip-path="url(#clipPath3228)"
                   opacity="0.5"
                   id="g3234">
                  <g
                     transform="translate(38.4068,-60.0615)"
                     id="g3232">
                    <path
                       d="m 0,0 c -37.032,7.262 -34.851,47.199 -34.851,76.238 0,37.762 0.725,74.787 2.175,111.082 1.456,34.857 3.634,73.332 0,107.464 -17.425,-0.725 -21.056,19.597 -6.536,26.858 9.442,5.812 29.77,7.261 30.498,-8.711 0.728,-8.705 -5.084,-6.525 -7.265,-13.785 -1.449,-5.087 -3.138,-15.979 -2.419,-21.059 2.181,-11.623 0,-32.67 0,-43.563 7.261,0 5.325,2.417 22.753,6.284 7.633,1.691 2.903,-10.639 -2.902,-12.82 -10.167,-5.08 -7.99,-10.891 -7.99,-22.514 C -5.812,164.817 -7.261,119.812 -0.728,79.138 4.355,50.093 13.066,27.59 23.23,0 Z"
                       style="fill:#524236;fill-opacity:1;fill-rule:nonzero;stroke:none"
                       id="path3230" />
                  </g>
                </g>
              </g>
            </g>
            <g
               id="g3238">
              <g
                 id="g3240" />
              <g
                 id="g3252">
                <g
                   clip-path="url(#clipPath3244)"
                   opacity="0.5"
                   id="g3250">
                  <g
                     transform="translate(1.6202,385.9805)"
                     id="g3248">
                    <path
                       d="m 0,0 c -10.167,-3.386 -12.583,-19.353 -2.426,-23.711 14.04,-5.811 29.046,16.936 15.979,23.225 z"
                       style="fill:#524236;fill-opacity:1;fill-rule:nonzero;stroke:none"
                       id="path3246" />
                  </g>
                </g>
              </g>
            </g>
            <g
               id="g3254">
              <g
                 id="g3256" />
              <g
                 id="g3268">
                <g
                   clip-path="url(#clipPath3260)"
                   opacity="0.5"
                   id="g3266">
                  <g
                     transform="translate(-2.7387,470.21)"
                     id="g3264">
                    <path
                       d="m 0,0 c -9.684,-1.458 -9.684,-16.942 0.483,-19.364 13.559,-2.9 21.778,18.878 4.356,19.85 z"
                       style="fill:#524236;fill-opacity:1;fill-rule:nonzero;stroke:none"
                       id="path3262" />
                  </g>
                </g>
              </g>
            </g>
          </g>
        </g>
      </g>
      <g
         id="g3270">
        <g
           id="g3272"
           clip-path="url(#clipPath3276)">
          <g
             id="g3278"
             transform="translate(101.2393,246.4355)">
            <path
               d="m 0,0 c 0.248,4.598 -3.145,9.201 -6.289,10.65 -7.306,3.366 -8.472,-5.08 -9.684,-10.408 -4.6,2.658 -5.324,8.469 -12.341,6.778 -5.567,-1.214 -7.986,-6.778 -7.017,-11.865 -4.842,4.115 -10.653,4.604 -9.925,-3.147 -4.598,8.47 -16.214,1.456 -10.651,-6.053 -6.047,-0.242 -15.006,1.449 -16.942,-6.524 -2.174,-8.953 8.594,-6.658 14.762,-1.214 -6.893,-7.739 3.147,-13.303 8.959,-6.289 -2.906,-4.604 1.694,-7.014 6.049,-6.779 4.842,0.243 7.503,2.664 10.651,6.054 -2.178,-4.598 1.453,-7.751 5.811,-7.986 4.592,-0.242 7.984,2.899 9.675,6.777 -0.486,-5.328 7.986,-0.489 9.681,1.45 -5.809,-10.173 13.559,-11.623 15.972,-1.697 0,-6.295 11.617,-1.45 13.559,1.456 -0.486,-9.932 14.03,-10.65 14.278,-1.456 0.967,-3.872 9.681,-4.833 9.681,0 0.963,-5.322 13.07,-2.423 13.07,2.905 0,7.008 -9.443,5.565 -13.801,5.087 5.325,7.503 -5.325,15.006 -11.127,7.974 4.113,7.992 -10.895,10.91 -13.315,3.16 1.694,3.63 0.483,7.255 -3.628,8.222 -3.875,0.967 -6.294,-1.456 -8.717,-4.103 7.023,6.767 -4.833,15.478 -8.95,6.525 z"
               style="fill:#4c886d;fill-opacity:1;fill-rule:nonzero;stroke:none"
               id="path3280" />
          </g>
        </g>
      </g>
      <g
         id="g3282">
        <g
           id="g3284"
           clip-path="url(#clipPath3288)">
          <g
             id="g3290">
            <g
               id="g3292" />
            <g
               id="g3304">
              <g
                 clip-path="url(#clipPath3296)"
                 opacity="0.649994"
                 id="g3302">
                <g
                   transform="translate(37.1983,216.5752)"
                   id="g3300">
                  <path
                     d="m 0,0 c -9.442,8.953 9.198,16.697 11.617,8.222 -0.483,5.08 5.319,13.073 10.644,7.992 0.728,2.664 4.842,3.631 7.265,2.899 3.144,-1.208 3.63,-4.113 3.386,-7.26 1.939,4.844 9.442,2.421 9.677,-2.175 0,2.416 3.395,3.866 5.573,3.388 2.661,-0.483 3.628,-3.153 4.353,-5.563 -0.487,2.658 -1.211,8.222 1.453,10.161 2.422,1.933 7.744,0.731 8.469,-2.181 0,5.086 8.231,5.316 8.231,-0.242 2.661,6.784 10.406,0.242 9.925,-4.839 1.93,5.571 7.742,0.243 8.953,-2.664 1.208,6.536 10.647,5.087 10.647,-1.208 4.118,4.356 8.225,-1.939 5.567,-5.811 3.148,4.361 13.067,5.563 14.52,-0.967 1.698,-7.261 -8.956,-9.441 -13.55,-11.616 -7.745,-3.39 -17.184,-3.879 -25.656,-4.598 -9.195,-0.73 -18.637,0.719 -27.59,2.175 -16.217,2.905 -32.189,-2.175 -48.162,0 z"
                     style="fill:#4c886d;fill-opacity:1;fill-rule:nonzero;stroke:none"
                     id="path3298" />
                </g>
              </g>
            </g>
          </g>
        </g>
      </g>
      <g
         id="g3306">
        <g
           id="g3308"
           clip-path="url(#clipPath3312)">
          <g
             id="g3314"
             transform="translate(84.5391,338.1626)">
            <path
               d="m 0,0 c 0.728,8.231 -12.104,13.07 -11.128,2.909 -1.455,3.144 -5.573,8.711 -10.167,7.016 -4.842,-1.936 -1.697,-8.234 0.239,-10.891 -1.936,2.657 -9.439,6.047 -12.345,3.388 -3.386,-3.144 0.728,-9.928 3.872,-11.864 -1.691,1.694 -6.533,3.875 -8.466,1.694 -2.667,-3.144 1.694,-7.502 3.63,-9.442 -1.936,2.181 -6.778,5.335 -9.439,2.668 -2.177,-2.423 0.728,-5.812 1.94,-7.99 -1.212,3.872 -8.231,8.476 -12.104,7.026 -7.747,-2.667 -0.724,-9.207 2.906,-11.378 -3.63,-0.487 -14.284,-1.695 -10.412,-7.992 3.631,-5.806 13.315,0.495 16.704,3.63 -2.181,-3.135 -4.601,-6.766 1.211,-6.524 3.866,0.229 7.497,3.141 9.433,6.282 -5.802,-9.683 7.748,-9.683 11.858,-3.388 -2.899,-3.619 3.879,-4.115 6.298,-3.873 3.866,0.496 5.803,3.147 7.256,6.548 -3.39,-6.79 10.167,-6.294 11.136,0.955 -2.422,-8.458 9.684,-4.356 12.103,-0.242 -0.486,-4.114 -0.969,-7.261 3.864,-8.705 3.395,-1.208 7.512,0.242 7.747,4.362 -0.725,-6.053 7.506,-8.971 11.862,-5.812 2.422,1.939 3.872,8.706 -0.483,8.947 3.385,-3.872 11.858,-4.845 14.764,-0.241 5.086,7.747 -6.537,7.747 -10.651,9.438 7.745,5.812 -6.288,8.715 -10.892,5.567 7.748,5.57 0.242,13.559 -7.261,9.201 8.714,8.466 -5.805,14.52 -9.919,6.294 4.356,4.839 1.456,9.443 -4.842,9.443 -5.812,0 -6.05,-5.09 -7.986,-7.512 z"
               style="fill:#4c886d;fill-opacity:1;fill-rule:nonzero;stroke:none"
               id="path3316" />
          </g>
        </g>
      </g>
      <g
         id="g3318">
        <g
           id="g3320"
           clip-path="url(#clipPath3324)">
          <g
             id="g3326">
            <g
               id="g3328" />
            <g
               id="g3340">
              <g
                 clip-path="url(#clipPath3332)"
                 opacity="0.649994"
                 id="g3338">
                <g
                   transform="translate(30.9009,299.3428)"
                   id="g3336">
                  <path
                     d="m 0,0 c -1.937,0.49 -2.661,2.894 -1.937,4.585 0.97,3.649 6.779,5.344 9.926,5.57 -3.147,0.728 -3.389,5.09 -0.725,6.54 2.42,1.45 7.261,-1.199 7.261,-4.117 -0.486,5.08 7.984,10.405 10.164,5.08 -0.244,4.117 -2.425,7.506 2.417,9.684 4.117,1.695 7.261,-1.45 6.781,-5.567 1.205,10.17 14.764,9.198 15.247,-1.45 3.87,4.839 9.678,0.242 9.436,-4.603 0.967,6.539 10.164,5.331 13.07,0.728 -0.48,9.442 12.103,11.136 11.862,0.245 2.899,1.936 5.563,2.902 7.499,-0.487 1.212,-2.407 1.212,-6.053 -0.969,-7.744 4.356,2.914 13.798,1.22 15.251,-4.833 1.452,-6.772 -10.164,-12.1 -15.006,-14.046 -14.761,-5.557 -30.74,5.812 -45.256,7.751 -7.503,1.214 -19.365,1.214 -26.382,-1.697 z"
                     style="fill:#4c886d;fill-opacity:1;fill-rule:nonzero;stroke:none"
                     id="path3334" />
                </g>
              </g>
            </g>
          </g>
        </g>
      </g>
      <g
         id="g3342">
        <g
           id="g3344"
           clip-path="url(#clipPath3348)">
          <g
             id="g3350"
             transform="translate(69.5298,268.7031)">
            <path
               d="m 0,0 c -0.797,4.803 -8.533,3.975 -12.973,2.181 2.785,1.945 4.963,5.292 0.393,7.019 -2.906,0.967 -9.198,-1.703 -11.378,-3.63 6.777,5.08 4.603,10.65 -3.631,7.261 -2.018,-0.84 -3.918,-2.084 -5.796,-3.359 1.19,2.658 -0.022,5.781 -3.396,6.258 -3.147,0.49 -5.083,-2.657 -7.744,-3.63 2.661,2.664 5.322,5.57 2.42,9.442 -3.145,3.873 -7.02,1.208 -10.406,-1.208 1.936,3.141 4.111,6.772 1.688,10.396 -1.45,2.429 -6.536,3.148 -8.463,0.254 2.413,3.867 5.563,11.611 -0.49,13.547 -6.047,1.93 -8.227,-5.331 -9.194,-9.68 0.486,6.044 -6.295,10.644 -10.409,4.59 3.148,3.631 3.389,14.768 -3.872,10.415 7.745,5.809 1.933,16.701 -5.561,10.162 2.414,2.422 5.078,7.747 1.688,10.649 -2.905,2.423 -7.499,0 -8.469,-3.146 1.211,4.603 -1.211,9.2 -6.292,8.233 -4.842,-0.972 -5.808,-5.087 -6.05,-9.439 -1.453,4.836 -4.6,9.198 -9.2,3.386 -1.918,-2.307 -2.471,-5.011 -2.58,-7.844 l -0.081,0.097 c -0.245,2.667 -2.664,4.116 -5.322,4.361 -4.842,0.242 -7.02,-4.361 -7.986,-8.234 -1.454,4.604 -6.054,9.198 -10.896,5.567 -4.11,-3.144 -5.805,-12.342 -3.144,-16.459 -2.981,4.588 -9.282,4.178 -9.436,-2.658 0.242,7.503 -5.328,11.856 -12.345,12.342 -6.536,0.486 -11.861,-4.603 -8.472,-11.134 -2.906,4.117 -8.473,3.145 -7.986,-2.422 -2.659,7.747 -14.52,1.695 -8.712,-6.038 -7.019,5.803 -12.103,-4.857 -8.231,-10.415 -5.567,8.234 -14.278,2.423 -10.647,-6.288 -1.456,3.872 -7.747,7.732 -12.341,6.288 -5.812,-1.933 -2.182,-9.919 0.966,-12.583 -2.178,1.939 -6.533,2.9 -8.953,1.208 -3.631,-2.175 -1.211,-6.289 0.967,-9.2 -6.292,5.092 -18.881,-2.417 -11.375,-10.162 -5.57,0.242 -17.181,-4.844 -6.537,-8.233 6.537,-2.181 12.345,1.697 17.912,3.872 -5.084,-3.872 2.177,-5.564 5.325,-5.322 4.597,0.242 6.778,2.911 9.919,6.053 -4.108,-5.811 12.103,-4.845 14.523,-0.483 -4.6,-5.812 14.042,-11.382 16.939,-0.731 -1.203,-8.712 15.251,-6.531 16.945,0.731 1.211,-5.812 11.614,-2.423 14.519,0 -3.385,-4.362 -2.198,-8.404 3.13,-8.162 4.594,0.248 8.246,3.565 7.76,8.645 5.811,-3.872 12.834,-1.933 15.495,4.356 0.969,-7.262 10.644,-1.94 12.58,1.456 -3.147,-9.443 7.02,-11.623 12.348,-5.323 0.966,-3.878 2.416,-7.273 7.258,-7.509 3.875,-0.241 6.289,2.417 5.812,6.289 2.114,-1.535 3.482,-4.978 7.485,-0.514 0.927,-2.923 3.458,-5.056 4.781,-6.016 5.083,-3.389 14.184,-3.226 16.525,5.57 2.181,-3.873 4.458,-6.954 9.058,-6.954 3.634,0 8.857,2.108 8.373,6.954 2.903,-6.054 18.392,-7.02 13.064,0.718 3.882,-4.591 7.748,-6.288 13.798,-4.591 1.939,0.719 5.57,1.692 5.808,4.114 0.176,1.54 -0.993,2.694 -2.371,3.081 C -8.476,-5.908 0.855,-5.081 0,0"
               style="fill:#4c886d;fill-opacity:1;fill-rule:nonzero;stroke:none"
               id="path3352" />
          </g>
        </g>
      </g>
      <g
         id="g3354">
        <g
           id="g3356"
           clip-path="url(#clipPath3360)">
          <g
             id="g3362">
            <g
               id="g3364" />
            <g
               id="g3376">
              <g
                 clip-path="url(#clipPath3368)"
                 opacity="0.649994"
                 id="g3374">
                <g
                   transform="translate(-168.163,251.4194)"
                   id="g3372">
                  <path
                     d="m 0,0 c -7.98,5.812 1.456,14.167 8.717,13.073 -7.261,3.993 4.719,13.792 9.439,5.08 -5.083,7.618 9.799,16.335 13.067,6.899 -1.087,6.525 12.342,9.436 11.983,1.444 4.721,5.812 11.257,1.45 10.892,-5.074 0,5.074 4.352,15.966 10.885,9.073 -5.445,6.893 5.812,17.066 10.892,9.074 -2.54,12.342 16.341,16.703 14.158,3.993 0,6.899 13.072,9.08 11.982,-0.719 2.54,5.812 9.804,4.718 12.707,0 -0.728,10.524 11.617,15.964 11.976,3.268 2.181,7.98 14.16,10.886 12.345,0.363 5.087,7.617 10.167,-4.724 6.537,-10.536 2.54,4.362 10.529,2.9 9.442,-2.894 -0.369,5.794 2.534,11.605 8.705,11.98 7.267,0.356 7.627,-5.455 7.992,-9.817 1.816,6.543 11.979,-1.45 5.446,-8.711 1.45,1.824 5.446,4.362 7.981,2.918 2.905,-1.468 1.458,-4.362 0.724,-7.63 0.734,2.906 6.177,4.356 9.083,2.906 3.99,-2.549 2.174,-6.537 0.725,-10.167 0,10.529 23.593,5.449 14.16,-1.813 3.99,3.631 14.154,9.431 18.513,3.988 5.805,-7.624 -7.265,-14.886 -12.342,-17.054 -9.077,-4.362 -17.791,-3.631 -27.59,-5.093 -13.435,-1.806 -26.142,-2.543 -39.574,-3.256 -7.987,-0.375 -15.248,-2.544 -23.228,-2.18 -9.442,0.356 -18.881,1.087 -28.323,1.087 -21.419,0 -42.472,3.987 -63.893,3.256 z"
                     style="fill:#4c886d;fill-opacity:1;fill-rule:nonzero;stroke:none"
                     id="path3370" />
                </g>
              </g>
            </g>
          </g>
        </g>
      </g>
      <g
         id="g3378">
        <g
           id="g3380"
           clip-path="url(#clipPath3384)">
          <g
             id="g3386"
             transform="translate(27.3003,402.6626)">
            <path
               d="m 0,0 c -6.896,9.442 -17.425,6.527 -14.151,-5.806 -5.446,9.065 -18.519,1.444 -10.167,-5.08 -10.167,6.887 -12.71,-7.992 -1.091,-6.539 -3.996,-0.366 -6.171,-6.533 -2.54,-9.077 3.631,-2.546 9.077,2.172 11.614,4.724 -6.168,-6.539 7.258,-9.086 10.529,0.357 -1.455,-3.988 3.631,-5.812 6.896,-5.447 3.996,0.366 5.446,2.91 7.264,5.812 -3.268,-6.905 9.799,-6.533 12.339,-0.365 -0.365,-9.443 13.073,-4.719 11.62,2.18 1.816,-4.717 12.342,-4.717 10.167,1.816 0,-8.355 17.06,-9.808 12.702,-2.547 1.09,-9.076 18.884,-7.617 11.982,1.825 0,-5.09 11.614,-2.909 12.704,1.45 -1.812,-7.633 13.07,-12.714 10.164,-1.825 0,-5.808 15.979,-9.439 10.167,1.459 4.721,-7.989 17.063,-1.459 9.805,4.353 1.45,-4.353 11.979,-7.262 15.245,-3.266 5.445,7.268 -6.537,8.346 -10.167,9.805 6.536,4.721 -3.263,10.164 -7.622,5.443 7.99,7.255 -5.808,14.157 -10.167,4.358 2.544,7.619 -10.526,11.249 -11.982,3.272 3.996,9.067 -8.705,11.976 -11.611,3.256 0,0.371 0.366,1.091 0.366,1.824 -3.272,1.807 -6.902,2.538 -10.17,-0.371 6.533,8.717 -5.083,14.888 -10.53,6.539 5.447,6.171 -8.711,9.439 -10.886,1.819 3.631,11.979 -15.616,9.07 -10.167,-1.091 -3.63,6.171 -14.882,0.36 -8.348,-6.539 C 17.063,18.51 12.71,10.529 14.525,3.993 15.25,8.708 9.08,13.073 4.721,10.889 1.456,8.708 1.09,3.259 1.09,0 Z"
               style="fill:#4c886d;fill-opacity:1;fill-rule:nonzero;stroke:none"
               id="path3388" />
          </g>
        </g>
      </g>
      <g
         id="g3390">
        <g
           id="g3392"
           clip-path="url(#clipPath3396)">
          <g
             id="g3398">
            <g
               id="g3400" />
            <g
               id="g3412">
              <g
                 clip-path="url(#clipPath3404)"
                 opacity="0.649994"
                 id="g3410">
                <g
                   transform="translate(7.1866,373.8892)"
                   id="g3408">
                  <path
                     d="m 0,0 c -1.939,1.936 -2.664,5.316 -2.181,8.219 0.725,3.631 7.023,7.503 10.167,3.631 -6.295,6.294 5.564,14.042 11.131,7.744 -2.906,7.261 11.62,7.506 13.795,1.939 0.969,7.745 10.653,2.664 11.13,-3.144 -0.235,2.9 -0.235,6.289 2.181,8.24 2.181,1.679 6.292,2.407 7.748,-0.502 -0.487,12.106 13.794,11.621 13.07,0 1.449,2.423 6.291,5.09 9.191,3.631 3.147,-1.45 2.906,-6.769 2.906,-9.677 3.147,3.388 7.503,0.966 7.989,-3.145 -0.486,2.422 -0.97,7.261 1.208,9.191 3.63,3.151 4.842,-1.208 4.842,-4.107 2.661,5.808 9.197,7.989 11.375,0.241 -0.967,15.487 18.636,4.368 13.311,-3.631 1.209,1.695 4.115,4.359 6.292,3.867 2.664,-0.477 2.178,-2.903 2.664,-5.561 2.175,4.111 11.375,3.876 14.762,1.453 6.777,-4.839 2.18,-10.641 -2.903,-14.046 C 122.702,-6.54 101.405,-5.325 82.771,-6.54 71.635,-7.261 60.262,-8.956 49.129,-10.17 Z"
                     style="fill:#4c886d;fill-opacity:1;fill-rule:nonzero;stroke:none"
                     id="path3406" />
                </g>
              </g>
            </g>
          </g>
        </g>
      </g>
      <g
         id="g3414">
        <g
           id="g3416"
           clip-path="url(#clipPath3420)">
          <g
             id="g3422"
             transform="translate(117.4532,469.8237)">
            <path
               d="m 0,0 c -0.966,4.591 -9.197,3.63 -12.097,2.896 2.413,1.462 11.617,5.326 4.833,8.965 -2.012,1.078 -6.31,-0.223 -9.14,-2.259 1.495,2.96 1.755,6.135 -2.471,6.135 -3.235,0 -8.113,-3.057 -9.647,-6.458 0.969,6.252 -7.234,4.168 -11.654,3.056 2.178,1.695 8.473,4.118 4.598,7.506 -1.692,1.701 -8.95,0.728 -11.134,-0.244 2.184,1.459 10.895,5.811 6.301,8.478 -2.906,1.692 -9.684,-1.939 -12.589,-2.425 3.385,1.694 8.958,7.506 3.385,9.194 -4.111,1.22 -9.436,-1.447 -12.1,-4.116 1.939,2.183 7.506,8.967 2.664,10.169 -4.116,0.967 -8.714,-4.358 -11.378,-6.539 0.97,1.706 4.359,7.506 3.15,9.684 -1.455,2.422 -5.811,-0.242 -7.747,-1.209 -2.036,-1.096 -4.371,-3.295 -6.697,-4.844 3.477,2.28 6.204,7.143 5.733,11.142 -0.969,7.262 -9.68,4.595 -12.586,0 0.97,4.108 4.355,10.161 -0.725,13.306 -5.812,3.63 -8.714,-3.873 -9.198,-8.225 0.239,3.875 -0.73,12.828 -6.053,12.586 -4.31,0 -4.784,-6.258 -4.243,-10.375 -1.351,4.691 -6.174,11.532 -11.001,9.644 -5.431,-2.247 -2.894,-9.109 0.208,-13.344 -2.981,2.434 -7.509,4.778 -9.892,3.425 -4.597,-2.909 0.97,-10.412 3.147,-13.07 -2.177,2.172 -8.469,5.809 -11.372,4.117 -3.733,-2.069 -0.546,-6.44 2.121,-8.572 -2.81,1.782 -7.845,4.087 -10.11,2.033 -3.869,-3.628 2.906,-9.681 4.845,-12.106 -7.023,6.542 -9.442,-2.655 -9.925,-7.981 -0.97,3.389 -5.084,9.198 -8.956,10.159 -5.329,1.461 -5.329,-4.105 -5.329,-7.978 -2.174,3.873 -7.013,9.198 -12.093,7.978 -4.362,-0.961 -5.812,-7.978 -2.668,-11.367 -4.114,2.181 -9.436,6.047 -14.522,4.597 -4.842,-1.453 -4.597,-7.992 -0.967,-10.892 -5.077,0.487 -11.13,2.423 -14.761,-2.667 -3.147,-4.346 0.241,-10.885 5.808,-11.607 -4.597,-0.245 -18.881,-5.567 -14.525,-11.865 4.603,-6.775 13.559,-1.208 17.431,2.667 -6.053,-10.415 7.739,-10.656 9.433,-2.908 -3.144,-11.865 12.348,-8.47 15.009,0 -2.193,-10.739 11.439,-7.972 12.435,-1.795 0.589,-3.355 3.556,-5.76 7.41,-4.739 4.114,1.208 6.05,5.567 7.506,8.956 -0.728,-4.117 3.144,-5.567 6.533,-4.359 3.141,1.45 6.536,6.295 6.772,9.684 1.211,-3.147 2.181,-6.288 6.778,-5.083 4.355,1.208 4.842,5.567 7.748,8.224 -0.97,-5.322 -0.487,-9.916 6.536,-8.711 5.805,0.973 8.222,6.775 9.675,11.865 -1.833,-11.016 11.317,-9.403 12.073,0.281 0.861,-6.987 15.555,-7.772 16.006,2.129 0.969,-3.383 0.483,-8.705 5.321,-8.463 1.024,0.057 1.918,0.38 2.707,0.867 0.317,-0.946 0.698,-1.831 1.163,-2.562 1.936,-2.909 8.234,-4.603 8.234,0.722 -0.215,-8.953 14.024,-8.506 14.1,-2.978 3.171,-6.549 13.67,-4.371 13.873,-0.408 1.743,-2.697 4.615,-5.624 7.119,-5.812 3.872,-0.241 5.808,4.118 3.631,7.268 3.144,-3.15 8.714,-6.295 13.066,-4.358 5.567,2.657 2.42,6.288 -1.688,8.469 2.652,-0.48 10.644,0 9.916,4.117"
               style="fill:#4c886d;fill-opacity:1;fill-rule:nonzero;stroke:none"
               id="path3424" />
          </g>
        </g>
      </g>
      <g
         id="g3426">
        <g
           id="g3428"
           clip-path="url(#clipPath3432)">
          <g
             id="g3434">
            <g
               id="g3436" />
            <g
               id="g3448">
              <g
                 clip-path="url(#clipPath3440)"
                 opacity="0.649994"
                 id="g3446">
                <g
                   transform="translate(-90.1069,450.8457)"
                   id="g3444">
                  <path
                     d="m 0,0 c -6.292,7.5 4.117,14.761 11.614,14.275 -4.353,2.422 -1.93,8.475 1.936,9.683 5.328,1.937 8.959,-1.208 11.862,-5.08 -3.148,3.631 -0.728,7.748 3.389,8.711 5.805,1.695 6.291,-1.936 6.778,-6.53 0,4.836 0.238,10.402 5.56,12.342 6.053,1.936 11.862,-2.903 12.832,-8.712 -0.487,6.531 11.616,7.503 10.647,0.242 0.486,2.658 -0.967,8.712 1.936,10.892 3.631,2.897 9.195,-0.244 10.889,-3.631 -0.97,4.833 -1.447,11.853 3.392,15.248 4.597,3.144 12.583,0 13.07,-5.576 5.808,10.17 19.361,2.667 12.586,-6.285 6.044,1.691 9.195,-1.45 8.95,-7.259 3.147,7.017 12.103,8.231 17.67,2.652 -1.45,4.117 -1.936,9.198 3.147,9.443 5.567,0.241 8.708,-4.592 8.708,-9.443 -0.725,11.623 17.429,3.402 9.204,-4.832 1.205,7.016 16.939,0.972 13.066,-6.289 1.212,1.927 5.564,3.866 7.742,2.171 1.936,-1.694 0.483,-5.325 -0.477,-7.261 0.235,6.298 13.305,6.298 14.03,0 1.939,11.134 32.193,5.09 17.912,-10.158 -5.809,-6.053 -14.281,-8.475 -22.023,-8.72 -9.442,-0.245 -20.328,-0.964 -29.525,0.486 -9.198,1.695 -16.942,6.54 -26.381,6.784 -9.443,0.23 -18.885,1.45 -28.073,0.474 C 82.043,1.933 65.587,-7.748 46.948,-8.47 43.565,-8.711 38.968,-9.439 35.579,-8.225 Z"
                     style="fill:#4c886d;fill-opacity:1;fill-rule:nonzero;stroke:none"
                     id="path3442" />
                </g>
              </g>
            </g>
          </g>
        </g>
      </g>
    </g>
  </g>
</svg>
