<?xml version="1.0" encoding="UTF-8" standalone="no"?>
<!-- Created with Inkscape (http://www.inkscape.org/) -->

<svg
   version="1.1"
   id="svg2"
   width="1000"
   height="666.66669"
   viewBox="0 0 1000 666.66669"
   sodipodi:docname="20008383_6221764.ai"
   inkscape:export-filename="treeLeft.svg"
   inkscape:export-xdpi="96"
   inkscape:export-ydpi="96"
   xmlns:inkscape="http://www.inkscape.org/namespaces/inkscape"
   xmlns:sodipodi="http://sodipodi.sourceforge.net/DTD/sodipodi-0.dtd"
   xmlns="http://www.w3.org/2000/svg"
   xmlns:svg="http://www.w3.org/2000/svg">
  <defs
     id="defs6">
    <clipPath
       clipPathUnits="userSpaceOnUse"
       id="clipPath3456">
      <path
         d="M 0,0 H 749.999 V 500 H 0 Z"
         id="path3454" />
    </clipPath>
    <clipPath
       clipPathUnits="userSpaceOnUse"
       id="clipPath3468">
      <path
         d="m 740.571,500 c -1.256,-4.566 0.409,-10.588 0.844,-19.31 v 0 c 0.774,-13.949 1.553,-27.893 1.553,-42.611 v 0 -2.458 c -1.441,1.108 -2.971,2.117 -4.073,3.029 v 0 c -4.645,3.688 -9.68,8.142 -12.78,12.983 v 0 c -1.548,2.521 -2.128,5.815 -3.101,8.329 v 0 c -1.354,2.904 -3.102,5.815 -4.258,8.526 v 0 c -2.327,5.037 -4.458,9.676 -7.169,14.527 v 0 c -0.582,0.967 -1.164,2.327 -1.55,3.477 v 0 c -3.291,-2.126 -2.521,-2.314 -0.97,-5.802 v 0 c 1.161,-2.71 2.323,-5.037 3.487,-7.551 v 0 c 2.324,-4.848 4.844,-9.489 7.558,-13.947 v 0 c -5.814,1.734 -10.658,8.132 -14.336,12.586 v 0 c -4.455,5.235 -10.076,10.076 -13.95,15.497 v 0 c -0.581,-0.199 -1.741,-0.969 -2.318,-1.546 v 0 c 8.129,-7.565 12.392,-17.824 21.497,-24.603 v 0 c 3.68,-2.71 8.135,-6.001 10.845,-9.876 v 0 c 2.906,-4.458 6.39,-8.725 10.076,-12.6 v 0 c 3.074,-3.323 7.329,-6.076 11.042,-9.231 v 0 -79.04 c -5.002,3.762 -10.204,7.491 -14.981,11.51 v 0 c -5.428,4.651 -10.33,9.547 -15.233,14.469 v 0 c -4.912,4.374 -12.916,9.028 -16.015,14.708 v 0 c -1.551,-0.77 -3.622,-1.547 -5.166,-2.324 v 0 c 3.363,-4.136 6.973,-8.01 10.847,-11.884 v 0 c 3.614,-3.355 10.07,-9.028 10.07,-9.028 v 0 c -5.165,-1.29 -16.011,3.867 -20.655,6.453 v 0 c -5.428,2.836 -11.623,8.006 -17.047,9.553 v 0 c -0.261,-5.16 10.845,-10.852 14.72,-13.176 v 0 c 4.902,-2.83 11.104,-5.924 16.526,-7.481 v 0 c 13.176,-4.126 24.019,-12.142 33.318,-22.727 v 0 c 1.126,-1.221 2.385,-2.65 3.62,-4.175 v 0 c 0.036,-48.022 0.293,-96.035 -0.075,-143.861 v 0 c -8.618,2.173 -23.255,17.631 -27.049,21.751 v 0 c -7.75,8.521 -9.299,12.776 -6.972,24.019 v 0 c 2.324,10.069 4.262,20.912 5.035,31.368 v 0 c 0,2.72 1.164,5.428 -2.711,6.195 v 0 c -4.651,-12.777 -5.811,-26.726 -10.072,-39.11 v 0 c -6.584,6.962 -11.239,18.971 -17.045,27.113 v 0 c -3.874,4.641 -6.974,9.677 -10.459,14.325 v 0 c -3.491,5.421 -5.037,5.04 -11.239,4.267 v 0 c 2.71,-9.297 11.623,-16.272 16.66,-24.02 v 0 c 5.038,-7.355 11.234,-15.884 13.943,-24.013 v 0 c -4.263,-1.567 -15.106,0.761 -19.754,1.54 v 0 c -8.912,1.548 -20.529,3.876 -27.895,8.136 v 0 c -8.521,4.654 -16.27,12.403 -24.011,18.605 v 0 c -5.812,5.028 -8.525,10.069 -16.665,6.962 v 0 c 9.299,-5.035 17.285,-17.547 25.808,-23.75 v 0 c -6.588,-1.152 -13.141,-5.768 -20.114,-4.609 v 0 c 1.187,-7.095 16.214,0.259 20.469,0.653 v 0 c 8.136,0.773 16.452,-5.209 24.586,-9.484 v 0 c 8.135,-3.874 16.275,-3.874 25.183,-5.029 v 0 c 3.876,-0.392 9.684,0 13.167,-1.94 v 0 c 3.875,-2.326 5.812,-8.134 9.304,-11.622 v 0 c 10.458,-9.302 19.364,-20.525 28.665,-31.381 v 0 c 4.783,-5.736 7.803,-12.378 10.863,-18.978 v 0 c -0.253,-18.759 -0.63,-37.48 -1.179,-56.174 v 0 C 740.672,71.492 737.778,35.742 736.177,0 v 0 h 13.822 v 500 z"
         id="path3466" />
    </clipPath>
    <clipPath
       clipPathUnits="userSpaceOnUse"
       id="clipPath3476">
      <path
         d="m 733.957,266.667 h 76.251 V -80.8809 h -76.251 z"
         id="path3474" />
    </clipPath>
    <clipPath
       clipPathUnits="userSpaceOnUse"
       id="clipPath3492">
      <path
         d="m 736.62,395.095 h 29.358 V 368.789 H 736.62 Z"
         id="path3490" />
    </clipPath>
    <clipPath
       clipPathUnits="userSpaceOnUse"
       id="clipPath3508">
      <path
         d="m 733.825,485.496 h 23.414 V 464.03 h -23.414 z"
         id="path3506" />
    </clipPath>
    <clipPath
       clipPathUnits="userSpaceOnUse"
       id="clipPath3524">
      <path
         d="M 0,0 H 749.999 V 500 H 0 Z"
         id="path3522" />
    </clipPath>
    <clipPath
       clipPathUnits="userSpaceOnUse"
       id="clipPath3536">
      <path
         d="m 709.908,350.786 c -5.167,-1.038 -6.198,-5.429 -6.457,-10.073 v 0 c -1.551,5.16 -4.907,9.814 -9.817,3.614 v 0 c -2.047,-2.463 -2.636,-5.348 -2.754,-8.371 v 0 l -0.086,0.102 c -0.261,2.847 -2.843,4.394 -5.68,4.655 v 0 c -5.167,0.257 -7.49,-4.655 -8.521,-8.787 v 0 c -1.551,4.913 -6.46,9.816 -11.626,5.94 v 0 c -4.388,-3.354 -6.196,-13.169 -3.356,-17.562 v 0 c -3.163,4.869 -9.833,4.462 -10.065,-2.72 v 0 c 0.196,7.935 -5.726,12.537 -13.178,13.053 v 0 c -6.975,0.519 -12.657,-4.913 -9.041,-11.88 v 0 c -3.101,4.393 -9.04,3.355 -8.521,-2.585 v 0 c -2.837,8.267 -15.496,1.808 -9.297,-6.444 v 0 c -7.446,6.155 -12.849,-5.046 -8.856,-11.006 v 0 c -5.884,8.544 -14.964,2.56 -11.398,-6.545 v 0 c -1.74,4.037 -8.267,7.944 -13.06,6.438 v 0 c -6.124,-2.037 -2.425,-10.37 0.904,-13.318 v 0 c -2.364,1.995 -6.891,2.951 -9.426,1.179 v 0 c -3.875,-2.321 -1.293,-6.711 1.03,-9.819 v 0 c -6.713,5.435 -20.147,-2.577 -12.138,-10.842 v 0 c -5.943,0.257 -18.334,-5.17 -6.975,-8.787 v 0 c 6.975,-2.327 13.173,1.812 19.113,4.133 v 0 c -5.424,-4.133 2.324,-5.937 5.684,-5.679 v 0 c 4.905,0.258 7.232,3.107 10.585,6.459 v 0 c -4.223,-5.974 11.675,-5.236 15.154,-1.013 v 0 c -3.512,-6.01 15.41,-11.343 18.418,-0.283 v 0 c -1.283,-9.296 16.274,-6.968 18.082,0.781 v 0 c 1.293,-6.202 12.393,-2.586 15.494,0 v 0 c -3.614,-4.655 -2.346,-8.969 3.34,-8.711 v 0 c 4.902,0.266 8.799,3.805 8.279,9.226 v 0 c 6.203,-4.132 13.695,-2.063 16.537,4.647 v 0 c 1.034,-7.748 11.358,-2.069 13.424,1.554 v 0 c -3.359,-10.076 7.491,-12.402 13.176,-5.68 v 0 c 1.032,-4.138 2.578,-7.761 7.745,-8.012 v 0 c 4.136,-0.258 6.712,2.578 6.203,6.711 v 0 c 2.255,-1.638 3.716,-5.313 7.987,-0.548 v 0 c 0.99,-3.12 3.691,-5.396 5.102,-6.421 v 0 c 3.904,-2.603 10.028,-3.242 14.086,0.102 v 0 62.68 c -2.912,-1.896 -4.252,-6.615 -4.967,-9.837 v 0 c 0.498,6.204 -6.181,10.983 -10.596,5.585 v 0 c 2.852,4.413 2.691,14.824 -4.645,10.428 v 0 c 8.265,6.199 2.064,17.82 -5.933,10.843 v 0 c 2.577,2.584 5.418,8.267 1.801,11.364 v 0 c -3.1,2.586 -8.002,0 -9.038,-3.358 v 0 c 1.175,4.465 -0.854,8.925 -5.304,8.925 v 0 c -0.446,0 -0.915,-0.044 -1.409,-0.138"
         id="path3534" />
    </clipPath>
    <clipPath
       clipPathUnits="userSpaceOnUse"
       id="clipPath3544">
      <path
         d="M 561.741,308.573 H 810.217 V 239.844 H 561.741 Z"
         id="path3542" />
    </clipPath>
    <clipPath
       clipPathUnits="userSpaceOnUse"
       id="clipPath3560">
      <path
         d="M 0,0 H 749.999 V 500 H 0 Z"
         id="path3558" />
    </clipPath>
    <clipPath
       clipPathUnits="userSpaceOnUse"
       id="clipPath3572">
      <path
         d="m 747.616,401.28 c -6.199,4.199 -9.741,0.817 -9.328,-2.566 v 0 c 0.306,-2.503 2.779,-5.007 7.945,-4.437 v 0 c -4.123,-0.591 -6.299,-6.993 -2.491,-9.66 v 0 c 1.83,-1.284 4.093,-0.838 6.257,0.278 v 0 26.16 c -4.654,-0.703 -7.903,-5.463 -2.383,-9.775"
         id="path3570" />
    </clipPath>
    <clipPath
       clipPathUnits="userSpaceOnUse"
       id="clipPath3580">
      <path
         d="M 749.621,419.569 H 906.818 V 371.34 H 749.621 Z"
         id="path3578" />
    </clipPath>
    <clipPath
       clipPathUnits="userSpaceOnUse"
       id="clipPath3596">
      <path
         d="M 0,0 H 749.999 V 500 H 0 Z"
         id="path3594" />
    </clipPath>
    <clipPath
       clipPathUnits="userSpaceOnUse"
       id="clipPath3608">
      <path
         d="m 627.329,433.519 c -5.828,-0.951 -3.683,-10.946 -0.973,-16.748 v 0 c -7.557,5.392 -14.449,-2.252 -10.094,-8.642 v 0 c -4.104,3.572 -12.187,0.351 -11.296,-5.97 v 0 c -1.464,7.247 -9.989,7.073 -9.989,-0.879 v 0 c -1.157,10.84 -15.879,12.004 -13.947,-1.167 v 0 c -6.58,1.928 -16.267,-0.399 -10.846,-8.908 v 0 c -6.584,2.326 -13.556,-0.397 -10.46,-8.526 v 0 c -5.81,4.651 -17.427,-0.78 -11.234,-7.748 v 0 c 5.424,-5.819 15.11,0.777 20.147,3.874 v 0 c -6.584,-12.004 10.461,-6.972 15.494,-1.547 v 0 c -3.444,-6.513 9.791,-6.581 11.196,0.541 v 0 c -1.303,-7.881 9.366,-6.315 12.437,-1.322 v 0 c 3.879,-5.421 11.627,-2.324 14.334,2.328 v 0 c -2.327,-9.693 12.783,-6.201 15.11,0.776 v 0 c 2.711,-6.977 12.007,-3.104 13.56,2.708 v 0 c 1.545,-7.739 9.292,-3.104 12.392,0.39 v 0 c -4.57,-9.903 11.446,-9.318 13.101,-0.47 v 0 c -0.932,-7.702 12.51,-8.673 14.791,-1.077 v 0 c 3.102,-5.821 14.724,-3.104 13.173,4.254 v 0 c 0,0.397 0,0.397 0,0 v 0 c 1.164,-3.487 6.198,-2.707 9.299,-1.16 v 0 c -1.55,-8.915 10.07,-6.588 10.463,0.778 v 0 c 3.094,-3.491 11.616,-2.715 9.68,3.873 v 0 c -1.552,4.255 -8.911,3.488 -13.174,3.488 v 0 c 8.376,4.005 -3.436,14.167 -7.783,7.654 v 0 c 4.108,9.519 -9.531,10.629 -15.073,4.349 v 0 c 6.976,10.463 -8.522,10.076 -13.554,3.491 v 0 c 0.775,4.261 1.164,9.299 -3.488,10.84 v 0 c -4.26,1.562 -10.845,-1.928 -11.624,-5.415 v 0 c 1.935,8.525 -5.811,10.849 -10.461,3.874 v 0 c 1.938,11.523 -6.197,13.164 -13.944,6.975 v 0 c 1.549,2.314 2.329,6.968 -1.935,6.582 v 0 c -3.102,-0.393 -4.263,-5.814 -4.263,-5.814 v 0 c 0.353,4.944 -4.931,8.726 -9.686,8.726 v 0 c -0.458,0 -0.91,-0.035 -1.353,-0.108"
         id="path3606" />
    </clipPath>
    <clipPath
       clipPathUnits="userSpaceOnUse"
       id="clipPath3616">
      <path
         d="M 556.13,410.099 H 727.374 V 361.525 H 556.13 Z"
         id="path3614" />
    </clipPath>
    <clipPath
       clipPathUnits="userSpaceOnUse"
       id="clipPath3632">
      <path
         d="M 0,0 H 749.999 V 500 H 0 Z"
         id="path3630" />
    </clipPath>
    <clipPath
       clipPathUnits="userSpaceOnUse"
       id="clipPath3644">
      <path
         d="m 659.951,500 c 0.394,-0.555 0.863,-1.061 1.401,-1.492 v 0 c -5.417,0.519 -11.875,2.586 -15.75,-2.846 v 0 c -3.36,-4.637 0.256,-11.616 6.198,-12.386 v 0 c -4.905,-0.261 -20.149,-5.94 -15.501,-12.661 v 0 c 4.912,-7.23 14.469,-1.289 18.6,2.846 v 0 c -6.344,-10.916 7.743,-11.359 9.959,-3.538 v 0 c -2.866,-12.142 13.319,-8.499 16.125,0.434 v 0 c -2.34,-11.459 12.205,-8.506 13.27,-1.914 v 0 c 0.628,-3.581 3.794,-6.147 7.906,-5.058 v 0 c 4.39,1.289 6.457,5.941 8.01,9.557 v 0 c -0.776,-4.393 3.355,-5.94 6.972,-4.651 v 0 c 3.352,1.548 6.976,6.717 7.226,10.334 v 0 c 1.292,-3.359 2.327,-6.711 7.234,-5.425 v 0 c 4.647,1.289 5.166,5.94 8.266,8.777 v 0 c -1.035,-5.679 -0.518,-10.581 6.975,-9.296 v 0 c 1.177,0.197 2.223,0.58 3.157,1.109 v 0 26.21 z"
         id="path3642" />
    </clipPath>
    <clipPath
       clipPathUnits="userSpaceOnUse"
       id="clipPath3652">
      <path
         d="M 646.213,516.269 H 872.65 v -61.46 H 646.213 Z"
         id="path3650" />
    </clipPath>
  </defs>
  <sodipodi:namedview
     id="namedview4"
     pagecolor="#ffffff"
     bordercolor="#000000"
     borderopacity="0.25"
     inkscape:showpageshadow="2"
     inkscape:pageopacity="0.0"
     inkscape:pagecheckerboard="0"
     inkscape:deskcolor="#d1d1d1"
     showgrid="false" />
  <g
     id="g10"
     inkscape:groupmode="layer"
     inkscape:label="Page 1"
     transform="matrix(1.3333333,0,0,-1.3333333,0,666.66667)">
    <g
       id="g24257"
       style="display:inline">
      <g
         id="g3450">
        <g
           id="g3452"
           clip-path="url(#clipPath3456)">
          <g
             id="g3458"
             transform="translate(855.8477,222.915)">
            <path
               d="m 0,0 c -0.15,-0.148 -0.306,-0.613 -0.454,-0.762 -2.127,-1.224 -4.106,-4.107 -6.235,-5.776 -2.738,-1.98 -5.172,-4.262 -7.908,-6.078 -5.628,-3.965 -11.104,-7.768 -16.883,-11.566 -2.734,-1.831 -5.47,-3.048 -8.364,-4.408 -2.892,-1.375 -4.259,-3.959 -6.696,-5.628 -2.585,-1.671 -10.033,-5.172 -13.224,-4.713 3.343,8.368 12.921,12.617 19.162,18.406 3.343,3.035 6.536,7.748 9.122,11.403 2.437,3.796 6.237,5.924 8.819,9.425 -1.973,-0.451 -4.867,1.218 -6.836,0.296 -2.287,-1.05 -4.717,-5.158 -6.545,-6.981 -5.018,-4.875 -9.431,-10.348 -15.059,-14.461 -4.257,-3.029 -8.515,-6.226 -12.625,-9.269 -4.254,-2.888 -7.599,-6.691 -11.707,-9.573 -4.108,-2.901 -7.909,-5.337 -13.079,-3.958 -1.332,0.406 -2.42,1.193 -3.361,2.166 -0.619,18.59 -1.319,37.208 -1.641,55.961 -0.013,1.825 -0.062,3.643 -0.078,5.453 3.278,5.28 7.101,11.405 10.927,15.472 2.711,2.721 6.976,6.595 10.459,8.523 4.262,1.946 7.742,0.773 12.007,1.547 7.749,1.934 12.786,10.849 21.312,13.95 5.421,1.934 6.584,1.553 10.456,5.808 3.098,3.874 5.424,7.368 9.686,10.076 7.361,4.642 15.884,6.969 24.022,10.456 -11.24,1.547 -21.312,-2.707 -30.61,-9.289 -5.425,-3.875 -8.906,-8.148 -14.718,-11.243 -4.651,-2.327 -10.462,-8.529 -15.11,-8.909 0.39,6.975 7.748,13.95 12.01,18.985 4.648,5.801 8.138,12.783 13.95,17.821 -13.565,3.097 -11.24,-8.145 -22.472,-15.108 -1.922,-1.198 -9.301,-25.192 -18.982,-24.019 -6.379,0.767 -15.332,-13.589 -23.24,-13.034 -0.287,17.199 -0.644,34.379 -1.133,51.562 0.602,3.863 1.568,7.641 3.322,11.313 3.62,6.711 9.56,12.132 14.724,17.563 5.167,5.164 10.59,10.595 16.008,15.497 5.426,4.652 11.108,6.718 15.501,12.661 4.129,5.673 8.781,10.833 13.17,16.516 2.836,3.617 9.296,14.978 13.688,15.497 -5.161,1.038 -6.977,4.133 -11.103,-0.519 -3.618,-4.384 -7.232,-9.038 -10.848,-13.431 -3.872,-4.902 -8.265,-8.777 -12.656,-13.17 -2.326,-2.324 -6.716,-10.591 -10.33,-9.805 1.034,5.412 1.806,10.837 2.838,16.264 1.033,5.944 3.622,13.17 3.1,19.114 -2.836,-1.808 -4.393,-3.617 -5.424,-6.972 -2.066,-6.978 -3.872,-14.465 -5.419,-21.695 -1.547,-7.742 -3.619,-11.875 -8.783,-17.815 -2.176,-2.398 -12.941,-15.545 -18.605,-13.94 -1.089,30.878 -2.504,61.718 -4.302,92.499 3.107,3.43 5.891,8.919 7.991,12.149 3.099,4.655 5.427,8.724 9.681,12.016 9.496,6.969 19.758,12.586 29.834,18.588 5.228,3.104 12.781,6.005 17.045,10.075 -0.971,0.778 -1.745,1.745 -2.517,2.712 -3.489,-2.128 -7.362,-3.292 -10.849,-5.225 -3.679,-1.941 -7.169,-3.874 -10.654,-5.815 -7.359,-3.674 -13.75,-10.076 -21.301,-13.17 4.838,8.518 9.678,18.008 15.103,26.337 l -13.367,-8.712 c -2.13,-4.071 -4.458,-8.716 -6.585,-12.98 -3.304,-6.773 -7.861,-16.816 -15.342,-20.345 -1.211,19.336 -2.527,38.653 -4.023,57.924 -14.726,-5.421 -10.075,-12.399 -9.302,-27.891 0.774,-13.949 1.553,-27.893 1.553,-42.61 v -2.459 c -1.44,1.108 -2.971,2.117 -4.073,3.029 -4.645,3.688 -9.68,8.142 -12.779,12.983 -1.549,2.521 -2.128,5.815 -3.102,8.329 -1.353,2.904 -3.102,5.815 -4.258,8.526 -2.327,5.037 -4.458,9.676 -7.169,14.527 -0.582,0.967 -1.164,2.327 -1.55,3.478 -3.291,-2.128 -2.521,-2.315 -0.97,-5.803 1.161,-2.71 2.323,-5.037 3.488,-7.551 2.323,-4.848 4.844,-9.489 7.558,-13.947 -5.815,1.734 -10.659,8.132 -14.337,12.586 -4.454,5.235 -10.075,10.076 -13.949,15.497 -0.582,-0.199 -1.742,-0.969 -2.319,-1.546 8.129,-7.565 12.393,-17.825 21.497,-24.604 3.68,-2.709 8.135,-6.001 10.846,-9.875 2.906,-4.458 6.39,-8.725 10.075,-12.6 3.074,-3.323 7.329,-6.076 11.042,-9.231 v -79.04 c -5.002,3.762 -10.204,7.491 -14.981,11.51 -5.428,4.652 -10.329,9.547 -15.233,14.469 -4.912,4.374 -12.916,9.029 -16.015,14.708 -1.551,-0.77 -3.621,-1.547 -5.165,-2.324 3.362,-4.136 6.972,-8.01 10.846,-11.884 3.615,-3.355 10.07,-9.028 10.07,-9.028 -5.164,-1.289 -16.01,3.868 -20.655,6.453 -5.427,2.836 -11.623,8.007 -17.048,9.553 -0.259,-5.16 10.847,-10.852 14.721,-13.176 4.903,-2.83 11.105,-5.924 16.527,-7.481 13.175,-4.126 24.018,-12.142 33.317,-22.727 1.126,-1.222 2.385,-2.65 3.62,-4.175 0.036,-48.022 0.293,-96.035 -0.075,-143.861 -8.618,2.173 -23.255,17.632 -27.048,21.751 -7.75,8.52 -9.3,12.776 -6.973,24.019 2.325,10.069 4.262,20.912 5.035,31.368 0,2.72 1.165,5.428 -2.71,6.195 -4.652,-12.777 -5.811,-26.727 -10.073,-39.11 -6.584,6.963 -11.239,18.971 -17.045,27.113 -3.874,4.642 -6.974,9.677 -10.459,14.325 -3.491,5.421 -5.037,5.04 -11.239,4.267 2.711,-9.296 11.623,-16.271 16.66,-24.02 5.038,-7.355 11.235,-15.884 13.944,-24.013 -4.264,-1.567 -15.107,0.761 -19.754,1.541 -8.912,1.547 -20.53,3.875 -27.896,8.135 -8.52,4.655 -16.269,12.403 -24.012,18.605 -5.81,5.028 -8.524,10.069 -16.664,6.962 9.299,-5.035 17.285,-17.547 25.808,-23.749 -6.588,-1.154 -13.141,-5.769 -20.114,-4.61 1.187,-7.095 16.215,0.259 20.47,0.653 8.135,0.773 16.452,-5.209 24.585,-9.484 8.136,-3.874 16.276,-3.874 25.184,-5.028 3.875,-0.393 9.684,0 13.167,-1.941 3.874,-2.327 5.812,-8.134 9.303,-11.622 10.459,-9.302 19.364,-20.525 28.665,-31.38 4.783,-5.738 7.803,-12.378 10.864,-18.979 -0.254,-18.759 -0.63,-37.479 -1.18,-56.175 -0.773,-37.188 -3.874,-74.379 -5.424,-111.561 -0.775,-18.604 -0.775,-33.315 -12.397,-48.039 -4.644,-4.655 -9.296,-10.076 -13.171,-14.717 l 79.025,-0.78 c -19.366,6.968 -20.913,35.635 -21.693,45.711 -5.421,41.064 -3.874,82.128 -3.095,123.199 0.587,17.411 0.5,34.713 0.126,51.996 0.194,0.644 0.391,1.308 0.57,1.888 1.371,4.862 2.743,8.82 6.85,11.862 3.8,2.585 8.519,7.298 12.922,8.367 2.134,0.452 4.409,-0.154 6.546,0.143 2.735,0.309 4.71,1.069 7.143,2.133 4.414,1.973 9.122,3.036 13.534,5.17 9.584,4.874 17.646,12.023 26.464,18.102 4.715,3.346 8.822,6.994 12.167,11.565 3.197,4.255 7.755,6.078 11.565,9.573 C 4.871,-0.148 1.828,-0.762 0,0"
               style="fill:#524236;fill-opacity:1;fill-rule:nonzero;stroke:none"
               id="path3460" />
          </g>
        </g>
      </g>
      <g
         id="g3462">
        <g
           id="g3464"
           clip-path="url(#clipPath3468)">
          <g
             id="g3470">
            <g
               id="g3472" />
            <g
               id="g3484">
              <g
                 clip-path="url(#clipPath3476)"
                 opacity="0.5"
                 id="g3482">
                <g
                   transform="translate(785.419,-80.8809)"
                   id="g3480">
                  <path
                     d="m 0,0 c -39.518,7.75 -37.19,50.367 -37.19,81.355 0,40.296 0.773,79.806 2.321,118.537 1.553,37.195 3.877,78.253 0,114.675 -18.595,-0.774 -22.47,20.912 -6.976,28.661 10.076,6.202 31.768,7.748 32.545,-9.295 0.778,-9.29 -5.425,-6.963 -7.751,-14.711 -1.548,-5.429 -3.349,-17.052 -2.583,-22.472 2.327,-12.404 0,-34.863 0,-46.486 7.749,0 5.684,2.579 24.281,6.705 8.146,1.804 3.097,-11.353 -3.098,-13.68 -10.849,-5.421 -8.526,-11.623 -8.526,-24.026 0.774,-43.384 -0.772,-91.41 6.2,-134.815 C 4.647,53.455 13.943,29.441 24.789,0 Z"
                     style="fill:#524236;fill-opacity:1;fill-rule:nonzero;stroke:none"
                     id="path3478" />
                </g>
              </g>
            </g>
          </g>
          <g
             id="g3486">
            <g
               id="g3488" />
            <g
               id="g3500">
              <g
                 clip-path="url(#clipPath3492)"
                 opacity="0.5"
                 id="g3498">
                <g
                   transform="translate(746.1631,395.0952)"
                   id="g3496">
                  <path
                     d="M 0,0 C -10.851,-3.613 -13.429,-20.651 -2.589,-25.302 12.393,-31.504 28.405,-7.23 14.462,-0.519 Z"
                     style="fill:#524236;fill-opacity:1;fill-rule:nonzero;stroke:none"
                     id="path3494" />
                </g>
              </g>
            </g>
          </g>
          <g
             id="g3502">
            <g
               id="g3504" />
            <g
               id="g3516">
              <g
                 clip-path="url(#clipPath3508)"
                 opacity="0.5"
                 id="g3514">
                <g
                   transform="translate(741.5108,484.9775)"
                   id="g3512">
                  <path
                     d="M 0,0 C -10.333,-1.557 -10.333,-18.079 0.518,-20.664 14.985,-23.759 23.756,-0.519 5.165,0.519 Z"
                     style="fill:#524236;fill-opacity:1;fill-rule:nonzero;stroke:none"
                     id="path3510" />
                </g>
              </g>
            </g>
          </g>
        </g>
      </g>
      <g
         id="g3518">
        <g
           id="g3520"
           clip-path="url(#clipPath3524)">
          <g
             id="g3526"
             transform="translate(818.6309,269.9473)">
            <path
               d="m 0,0 c -0.852,5.125 -9.106,4.242 -13.844,2.327 2.972,2.076 5.295,5.648 0.419,7.491 C -16.526,10.85 -23.24,8 -25.567,5.944 c 7.232,5.421 4.912,11.365 -3.874,7.748 -2.154,-0.896 -4.182,-2.223 -6.186,-3.584 1.271,2.837 -0.022,6.169 -3.623,6.678 -3.357,0.523 -5.425,-2.836 -8.264,-3.873 2.839,2.842 5.68,5.943 2.582,10.075 -3.355,4.132 -7.492,1.289 -11.104,-1.289 2.065,3.352 4.388,7.226 1.802,11.094 -1.548,2.592 -6.975,3.358 -9.033,0.271 2.577,4.125 5.939,12.39 -0.521,14.456 -6.453,2.06 -8.78,-5.689 -9.812,-10.331 0.519,6.45 -6.717,11.359 -11.106,4.899 3.357,3.875 3.616,15.759 -4.134,11.115 8.265,6.198 2.064,17.82 -5.932,10.842 2.576,2.585 5.418,8.268 1.8,11.365 -3.1,2.586 -8.002,0 -9.038,-3.358 1.293,4.912 -1.292,9.818 -6.713,8.786 -5.167,-1.037 -6.198,-5.428 -6.457,-10.072 -1.55,5.16 -4.907,9.815 -9.817,3.613 -2.047,-2.462 -2.636,-5.347 -2.753,-8.371 l -0.087,0.103 c -0.261,2.847 -2.843,4.393 -5.68,4.655 -5.167,0.257 -7.49,-4.655 -8.521,-8.787 -1.551,4.913 -6.46,9.815 -11.626,5.94 -4.388,-3.355 -6.195,-13.169 -3.357,-17.563 -3.179,4.896 -9.904,4.458 -10.068,-2.836 0.258,8.006 -5.685,12.651 -13.174,13.17 -6.974,0.519 -12.657,-4.913 -9.041,-11.881 -3.1,4.394 -9.04,3.356 -8.521,-2.585 -2.837,8.268 -15.495,1.809 -9.297,-6.443 -7.491,6.192 -12.914,-5.183 -8.782,-11.114 -5.941,8.787 -15.236,2.585 -11.362,-6.71 -1.555,4.131 -8.268,8.251 -13.17,6.71 -6.203,-2.063 -2.328,-10.584 1.032,-13.428 -2.325,2.07 -6.973,3.095 -9.554,1.29 -3.875,-2.321 -1.293,-6.711 1.03,-9.819 -6.714,5.436 -20.147,-2.578 -12.137,-10.842 -5.944,0.257 -18.334,-5.17 -6.976,-8.787 6.976,-2.327 13.174,1.812 19.113,4.133 -5.424,-4.133 2.324,-5.938 5.684,-5.679 4.905,0.257 7.232,3.107 10.585,6.459 -4.384,-6.202 12.915,-5.17 15.496,-0.516 -4.908,-6.202 14.985,-12.145 18.076,-0.78 -1.283,-9.296 16.275,-6.969 18.082,0.78 1.293,-6.202 12.393,-2.585 15.494,0 -3.613,-4.654 -2.346,-8.968 3.34,-8.709 4.902,0.265 8.799,3.803 8.279,9.225 6.203,-4.133 13.696,-2.063 16.537,4.647 1.034,-7.748 11.358,-2.069 13.424,1.554 -3.359,-10.076 7.491,-12.403 13.176,-5.679 1.032,-4.139 2.578,-7.762 7.745,-8.013 4.136,-0.257 6.712,2.578 6.203,6.711 2.255,-1.638 3.716,-5.313 7.987,-0.548 0.99,-3.121 3.691,-5.396 5.102,-6.42 5.425,-3.618 15.136,-3.443 17.634,5.943 2.327,-4.133 4.757,-7.42 9.667,-7.42 3.877,0 9.449,2.25 8.935,7.42 3.097,-6.46 19.626,-7.491 13.94,0.767 4.143,-4.9 8.267,-6.71 14.724,-4.9 2.069,0.768 5.942,1.805 6.198,4.39 0.186,1.644 -1.061,2.875 -2.529,3.288 C -9.046,-6.305 0.911,-5.421 0,0"
               style="fill:#4c886d;fill-opacity:1;fill-rule:nonzero;stroke:none"
               id="path3528" />
          </g>
        </g>
      </g>
      <g
         id="g3530">
        <g
           id="g3532"
           clip-path="url(#clipPath3536)">
          <g
             id="g3538">
            <g
               id="g3540" />
            <g
               id="g3552">
              <g
                 clip-path="url(#clipPath3544)"
                 opacity="0.649994"
                 id="g3550">
                <g
                   transform="translate(564.9864,251.5039)"
                   id="g3548">
                  <path
                     d="m 0,0 c -8.518,6.201 1.553,15.117 9.301,13.95 -7.748,4.261 5.036,14.717 10.073,5.422 -5.426,8.129 10.456,17.431 13.943,7.361 -1.16,6.963 13.17,10.07 12.787,1.541 5.038,6.202 12.013,1.547 11.623,-5.414 0,5.414 4.645,17.037 11.617,9.682 -5.812,7.355 6.201,18.211 11.622,9.682 -2.71,13.171 17.439,17.825 15.108,4.261 0,7.362 13.95,9.689 12.786,-0.767 2.71,6.202 10.462,5.035 13.561,0 -0.777,11.23 12.395,17.035 12.779,3.488 2.327,8.515 15.111,11.616 13.173,0.387 5.429,8.128 10.851,-5.042 6.976,-11.243 2.711,4.654 11.236,3.094 10.075,-3.088 -0.393,6.182 2.706,12.384 9.29,12.783 7.755,0.381 8.139,-5.821 8.528,-10.476 1.938,6.982 12.783,-1.546 5.812,-9.295 1.548,1.947 5.811,4.655 8.516,3.114 3.1,-1.567 1.555,-4.655 0.773,-8.142 0.782,3.101 6.592,4.648 9.692,3.101 4.259,-2.721 2.32,-6.975 0.775,-10.849 0,11.235 25.175,5.814 15.109,-1.935 4.258,3.875 15.104,10.063 19.756,4.255 6.195,-8.135 -7.753,-15.884 -13.171,-18.198 -9.686,-4.655 -18.983,-3.874 -29.44,-5.434 -14.337,-1.928 -27.897,-2.714 -42.231,-3.475 -8.522,-0.399 -16.271,-2.714 -24.786,-2.327 -10.077,0.381 -20.149,1.16 -30.225,1.16 -22.856,0 -45.321,4.255 -68.18,3.475 z"
                     style="fill:#4c886d;fill-opacity:1;fill-rule:nonzero;stroke:none"
                     id="path3546" />
                </g>
              </g>
            </g>
          </g>
        </g>
      </g>
      <g
         id="g3554">
        <g
           id="g3556"
           clip-path="url(#clipPath3560)">
          <g
             id="g3562"
             transform="translate(773.5665,412.897)">
            <path
               d="m 0,0 c -7.359,10.076 -18.595,6.965 -15.101,-6.195 -5.811,9.673 -19.762,1.541 -10.85,-5.422 -10.849,7.35 -13.562,-8.528 -1.163,-6.978 -4.264,-0.39 -6.585,-6.971 -2.71,-9.685 3.873,-2.718 9.686,2.317 12.393,5.041 -6.582,-6.979 7.745,-9.696 11.237,0.38 -1.555,-4.255 3.874,-6.202 7.357,-5.812 4.265,0.391 5.813,3.105 7.752,6.202 -3.487,-7.368 10.457,-6.972 13.167,-0.39 -0.391,-10.076 13.95,-5.035 12.4,2.327 1.937,-5.034 13.17,-5.034 10.849,1.937 0,-8.915 18.205,-10.466 13.553,-2.717 1.165,-9.686 20.152,-8.129 12.787,1.947 0,-5.431 12.393,-3.104 13.558,1.547 -1.935,-8.145 13.946,-13.566 10.846,-1.947 0,-6.198 17.051,-10.072 10.848,1.557 5.038,-8.525 18.209,-1.557 10.463,4.645 1.548,-4.645 12.785,-7.749 16.268,-3.485 5.812,7.756 -6.975,8.906 -10.849,10.463 6.975,5.038 -3.481,10.846 -8.133,5.808 8.525,7.742 -6.198,15.108 -10.85,4.651 2.716,8.129 -11.232,12.003 -12.786,3.491 4.265,9.676 -9.289,12.78 -12.39,3.474 0,0.397 0.39,1.164 0.39,1.947 -3.49,1.928 -7.365,2.708 -10.851,-0.396 6.97,9.302 -5.426,15.887 -11.237,6.979 5.811,6.585 -9.296,10.072 -11.617,1.94 3.874,12.783 -16.664,9.679 -10.849,-1.164 -3.874,6.585 -15.881,0.384 -8.91,-6.978 C 18.208,19.752 13.563,11.236 15.499,4.261 16.273,9.292 9.688,13.95 5.038,11.619 1.554,9.292 1.163,3.478 1.163,0 Z"
               style="fill:#4c886d;fill-opacity:1;fill-rule:nonzero;stroke:none"
               id="path3564" />
          </g>
        </g>
      </g>
      <g
         id="g3566">
        <g
           id="g3568"
           clip-path="url(#clipPath3572)">
          <g
             id="g3574">
            <g
               id="g3576" />
            <g
               id="g3588">
              <g
                 clip-path="url(#clipPath3580)"
                 opacity="0.649994"
                 id="g3586">
                <g
                   transform="translate(752.1026,382.1924)"
                   id="g3584">
                  <path
                     d="m 0,0 c -2.069,2.066 -2.843,5.673 -2.327,8.771 0.774,3.874 7.494,8.006 10.849,3.874 -6.716,6.717 5.939,14.984 11.878,8.264 -3.101,7.749 12.4,8.01 14.721,2.07 1.033,8.264 11.367,2.842 11.876,-3.356 -0.251,3.094 -0.251,6.711 2.327,8.793 2.329,1.792 6.715,2.569 8.269,-0.535 -0.519,12.918 14.72,12.4 13.947,0 1.546,2.585 6.713,5.431 9.809,3.875 3.357,-1.548 3.1,-7.224 3.1,-10.328 3.358,3.616 8.006,1.031 8.525,-3.355 -0.519,2.585 -1.035,7.748 1.289,9.808 3.874,3.362 5.167,-1.289 5.167,-4.383 2.84,6.198 9.814,8.525 12.14,0.257 -1.032,16.526 19.885,4.661 14.203,-3.874 1.29,1.808 4.391,4.651 6.714,4.125 2.844,-0.508 2.325,-3.097 2.844,-5.933 2.32,4.386 12.138,4.135 15.75,1.55 7.233,-5.164 2.328,-11.355 -3.097,-14.988 C 130.937,-6.979 108.21,-5.683 88.326,-6.979 76.442,-7.748 64.307,-9.556 52.426,-10.852 Z"
                     style="fill:#4c886d;fill-opacity:1;fill-rule:nonzero;stroke:none"
                     id="path3582" />
                </g>
              </g>
            </g>
          </g>
        </g>
      </g>
      <g
         id="g3590">
        <g
           id="g3592"
           clip-path="url(#clipPath3596)">
          <g
             id="g3598"
             transform="translate(638.3682,424.9004)">
            <path
               d="m 0,0 c 0.387,5.421 -6.001,9.444 -11.039,8.619 -5.828,-0.951 -3.684,-10.947 -0.974,-16.748 -8.13,5.801 -15.491,-3.488 -8.902,-10.07 -3.491,5.802 -13.95,2.318 -12.399,-5.041 -1.165,7.749 -10.078,7.749 -10.078,-0.38 -1.156,10.84 -15.879,12.003 -13.946,-1.167 -6.58,1.927 -16.266,-0.4 -10.846,-8.909 -6.585,2.327 -13.556,-0.396 -10.46,-8.525 -5.81,4.651 -17.427,-0.78 -11.235,-7.749 5.425,-5.818 15.11,0.777 20.148,3.875 -6.584,-12.004 10.46,-6.972 15.494,-1.548 -3.481,-6.582 10.073,-6.582 11.237,0.771 -1.548,-8.139 9.295,-6.592 12.396,-1.551 3.878,-5.421 11.626,-2.324 14.333,2.328 -2.327,-9.693 12.784,-6.201 15.111,0.776 2.711,-6.977 12.007,-3.104 13.56,2.708 1.544,-7.739 9.291,-3.104 12.391,0.39 -4.649,-10.075 12.012,-9.296 13.176,0 -1.548,-8.129 12.389,-9.296 14.717,-1.547 3.101,-5.821 14.723,-3.104 13.172,4.254 0,0.397 0,0.397 0,0 1.165,-3.487 6.199,-2.707 9.3,-1.16 -1.551,-8.915 10.07,-6.588 10.463,0.777 3.094,-3.491 11.616,-2.714 9.679,3.874 -1.551,4.254 -8.909,3.487 -13.173,3.487 8.912,4.262 -5.032,15.494 -8.52,6.192 6.202,10.853 -8.522,12.4 -14.336,5.812 6.975,10.462 -8.523,10.075 -13.554,3.49 0.774,4.262 1.164,9.3 -3.487,10.841 -4.261,1.562 -10.846,-1.928 -11.625,-5.416 1.935,8.526 -5.812,10.849 -10.461,3.875 C 22.08,3.78 13.944,5.421 6.198,-0.768 7.746,1.547 8.526,6.201 4.263,5.814 1.161,5.421 0,0 0,0"
               style="fill:#4c886d;fill-opacity:1;fill-rule:nonzero;stroke:none"
               id="path3600" />
          </g>
        </g>
      </g>
      <g
         id="g3602">
        <g
           id="g3604"
           clip-path="url(#clipPath3608)">
          <g
             id="g3610">
            <g
               id="g3612" />
            <g
               id="g3624">
              <g
                 clip-path="url(#clipPath3616)"
                 opacity="0.649994"
                 id="g3622">
                <g
                   transform="translate(560.338,370.8306)"
                   id="g3620">
                  <path
                     d="m 0,0 c -12.391,3.858 5.812,13.931 13.177,12.003 -5.812,5.032 5.035,12.004 10.459,3.871 -3.1,8.529 10.453,11.623 10.453,2.328 1.553,8.129 13.563,3.484 12.014,-4.652 -1.551,6.582 2.324,13.177 9.687,9.296 -7.752,7.749 8.13,12.013 11.231,5.032 -1.935,12.403 12.009,16.277 11.235,3.494 -1.163,6.978 10.849,5.034 6.585,-4.645 0,5.425 8.523,6.191 9.301,0.77 v 6.582 c 3.873,1.947 10.844,1.167 11.228,-3.874 -1.937,9.686 13.177,7.368 12.013,-3.478 1.164,6.191 10.072,5.805 8.909,-1.554 -0.383,2.324 3.102,6.979 6.976,5.422 3.096,-1.16 4.325,-5.86 4.325,-8.568 2.323,6.192 10.781,2.757 8.071,-3.825 2.71,5.034 11.622,3.097 8.911,-3.875 4.649,8.909 17.821,-4.27 10.07,-11.232 -5.421,-4.652 -21.697,-3.095 -29.051,-4.652 -26.35,-5.811 -52.69,-3.097 -79.42,-3.097 -12.783,0 -24.023,-1.943 -36.411,-4.651 z"
                     style="fill:#4c886d;fill-opacity:1;fill-rule:nonzero;stroke:none"
                     id="path3618" />
                </g>
              </g>
            </g>
          </g>
        </g>
      </g>
      <g
         id="g3626">
        <g
           id="g3628"
           clip-path="url(#clipPath3632)">
          <g
             id="g3634"
             transform="translate(869.7696,484.5654)">
            <path
               d="m 0,0 c -1.03,4.898 -9.814,3.874 -12.909,3.091 2.575,1.56 12.397,5.682 5.157,9.566 -2.146,1.151 -6.732,-0.239 -9.754,-2.411 1.596,3.159 1.873,6.546 -2.636,6.546 -3.452,0 -8.657,-3.261 -10.295,-6.891 1.036,6.672 -7.72,4.449 -12.435,3.262 2.325,1.809 9.041,4.394 4.906,8.01 -1.806,1.815 -9.552,0.777 -11.881,-0.261 2.329,1.557 11.625,6.201 6.724,9.047 -3.102,1.806 -10.334,-2.069 -13.436,-2.588 3.615,1.808 9.561,8.01 3.615,9.812 -4.387,1.301 -10.071,-1.544 -12.912,-4.394 2.068,2.331 8.008,9.57 2.841,10.853 -4.391,1.032 -9.298,-4.651 -12.14,-6.978 1.034,1.82 4.65,8.01 3.361,10.333 -1.553,2.586 -6.201,-0.257 -8.268,-1.289 -2.171,-1.17 -4.664,-3.517 -7.145,-5.17 3.71,2.434 6.621,7.623 6.118,11.891 -1.036,7.748 -10.331,4.902 -13.432,0 1.036,4.383 4.648,10.842 -0.775,14.197 -6.2,3.875 -9.297,-4.131 -9.813,-8.776 0.255,4.135 -0.78,13.689 -6.459,13.431 -4.6,0 -5.106,-6.678 -4.53,-11.072 -1.44,5.006 -6.588,12.306 -11.738,10.292 -5.796,-2.398 -3.089,-9.721 0.223,-14.24 -3.182,2.597 -8.013,5.099 -10.556,3.655 -4.906,-3.104 1.034,-11.111 3.357,-13.947 -2.323,2.318 -9.037,6.198 -12.133,4.393 -3.986,-2.208 -0.583,-6.872 2.26,-9.147 -2.996,1.902 -8.369,4.361 -10.787,2.169 -4.129,-3.871 3.101,-10.33 5.17,-12.919 -7.494,6.982 -10.075,-2.833 -10.592,-8.515 -1.034,3.616 -5.424,9.815 -9.556,10.839 -5.686,1.561 -5.686,-4.38 -5.686,-8.512 -2.32,4.132 -7.484,9.815 -12.905,8.512 -4.655,-1.024 -6.201,-8.512 -2.847,-12.128 -4.389,2.327 -10.069,6.452 -15.497,4.905 -5.167,-1.551 -4.905,-8.528 -1.032,-11.623 -5.417,0.519 -11.876,2.585 -15.751,-2.846 -3.359,-4.638 0.257,-11.616 6.198,-12.387 -4.905,-0.261 -20.149,-5.94 -15.501,-12.66 4.912,-7.23 14.47,-1.29 18.601,2.846 -6.459,-11.114 8.26,-11.372 10.067,-3.104 -3.356,-12.661 13.177,-9.038 16.017,0 -2.34,-11.459 12.205,-8.506 13.269,-1.915 0.628,-3.581 3.794,-6.147 7.907,-5.057 4.389,1.289 6.457,5.94 8.009,9.556 -0.776,-4.393 3.356,-5.94 6.972,-4.651 3.353,1.548 6.976,6.718 7.227,10.335 1.292,-3.359 2.327,-6.711 7.233,-5.425 4.648,1.289 5.166,5.94 8.267,8.776 -1.035,-5.679 -0.519,-10.581 6.975,-9.295 6.195,1.038 8.774,7.229 10.324,12.66 -1.957,-11.755 12.077,-10.034 12.883,0.3 0.919,-7.455 16.6,-8.293 17.08,2.273 1.035,-3.61 0.515,-9.289 5.68,-9.032 1.092,0.061 2.046,0.406 2.888,0.925 0.338,-1.009 0.745,-1.953 1.24,-2.733 2.065,-3.104 8.788,-4.912 8.788,0.77 -0.229,-9.554 14.964,-9.076 15.045,-3.178 3.384,-6.988 14.588,-4.664 14.804,-0.435 1.859,-2.878 4.924,-6.002 7.597,-6.202 4.132,-0.257 6.199,4.393 3.875,7.756 3.356,-3.363 9.298,-6.718 13.943,-4.652 5.94,2.837 2.583,6.711 -1.802,9.038 C -7.752,-4.906 0.776,-4.394 0,0"
               style="fill:#4c886d;fill-opacity:1;fill-rule:nonzero;stroke:none"
               id="path3636" />
          </g>
        </g>
      </g>
      <g
         id="g3638">
        <g
           id="g3640"
           clip-path="url(#clipPath3644)">
          <g
             id="g3646">
            <g
               id="g3648" />
            <g
               id="g3660">
              <g
                 clip-path="url(#clipPath3652)"
                 opacity="0.649994"
                 id="g3658">
                <g
                   transform="translate(648.2803,464.314)"
                   id="g3656">
                  <path
                     d="m 0,0 c -6.714,8.003 4.394,15.751 12.393,15.232 -4.644,2.585 -2.059,9.045 2.065,10.334 5.687,2.066 9.561,-1.289 12.658,-5.421 -3.357,3.874 -0.776,8.268 3.618,9.295 6.195,1.809 6.713,-2.065 7.233,-6.968 0,5.16 0.253,11.1 5.932,13.17 6.459,2.066 12.658,-3.098 13.694,-9.296 -0.519,6.968 12.395,8.007 11.361,0.258 0.519,2.836 -1.032,9.296 2.066,11.623 3.874,3.091 9.811,-0.261 11.62,-3.874 -1.035,5.157 -1.543,12.647 3.619,16.27 4.906,3.356 13.429,0 13.947,-5.95 6.199,10.853 20.661,2.847 13.431,-6.707 6.451,1.805 9.812,-1.547 9.551,-7.745 3.358,7.487 12.915,8.783 18.856,2.83 -1.548,4.393 -2.067,9.814 3.358,10.075 5.941,0.258 9.293,-4.899 9.293,-10.075 -0.775,12.403 18.598,3.629 9.822,-5.157 1.286,7.487 18.075,1.038 13.942,-6.712 1.293,2.057 5.937,4.126 8.262,2.318 2.066,-1.808 0.515,-5.683 -0.51,-7.749 0.252,6.721 14.198,6.721 14.973,0 2.068,11.881 34.351,5.431 19.113,-10.839 -6.198,-6.459 -15.239,-9.044 -23.501,-9.306 -10.075,-0.261 -21.692,-1.028 -31.507,0.519 -9.813,1.809 -18.079,6.979 -28.15,7.239 C 127.062,3.609 116.986,4.912 107.182,3.871 87.549,2.063 69.988,-8.268 50.099,-9.039 46.488,-9.296 41.582,-10.073 37.967,-8.777 Z"
                     style="fill:#4c886d;fill-opacity:1;fill-rule:nonzero;stroke:none"
                     id="path3654" />
                </g>
              </g>
            </g>
          </g>
        </g>
      </g>
    </g>
  </g>
</svg>
